G04 Layer_Color=65535*
%FSLAX25Y25*%
%MOIN*%
G70*
G01*
G75*
%ADD29C,0.01000*%
%ADD51C,0.00000*%
%ADD52C,0.00984*%
%ADD53C,0.02362*%
%ADD54C,0.00197*%
%ADD55C,0.00787*%
%ADD56C,0.00500*%
%ADD57C,0.00591*%
G36*
X215000Y252500D02*
X210000Y255000D01*
X215000Y257500D01*
Y252500D01*
D02*
G37*
G36*
Y260000D02*
X210000Y262500D01*
X215000Y265000D01*
Y260000D01*
D02*
G37*
D29*
X226484Y251500D02*
G03*
X226484Y251500I-984J0D01*
G01*
X206000Y259000D02*
G03*
X206000Y259000I-500J0D01*
G01*
Y251500D02*
G03*
X206000Y251500I-500J0D01*
G01*
X315000Y211000D02*
X315500D01*
D51*
X350200Y247800D02*
G03*
X350200Y247800I-1200J0D01*
G01*
D52*
X324102Y136153D02*
G03*
X324102Y136153I-492J0D01*
G01*
X259988Y186047D02*
G03*
X259988Y186047I-492J0D01*
G01*
D53*
X315244Y140701D02*
G03*
X315244Y140701I-1181J0D01*
G01*
X255264Y177583D02*
G03*
X255264Y177583I-1181J0D01*
G01*
D54*
X270079Y178000D02*
X279921D01*
X270079Y187370D02*
X279921D01*
X270079Y138630D02*
Y187370D01*
Y138630D02*
X279921D01*
Y187370D01*
D55*
X361106Y240839D02*
X361894D01*
X361106Y245761D02*
X361894D01*
X361106Y233839D02*
X361894D01*
X361106Y238761D02*
X361894D01*
X380720Y256048D02*
X392531D01*
X380720Y224552D02*
X392531D01*
X353461Y225406D02*
Y226194D01*
X348539Y225406D02*
Y226194D01*
X238213Y270740D02*
X239787D01*
X238213Y263260D02*
X239787D01*
X318000Y136764D02*
Y207236D01*
X293000Y136764D02*
Y207236D01*
Y136764D02*
X318000D01*
X293000Y207236D02*
X318000D01*
X360461Y225406D02*
Y226194D01*
X355539Y225406D02*
Y226194D01*
X222980Y146480D02*
Y181520D01*
X258020Y146480D02*
Y181520D01*
X222980Y146480D02*
X258020D01*
X222980Y181520D02*
X258020D01*
X203539Y211606D02*
Y212394D01*
X208461Y211606D02*
Y212394D01*
X203539Y243106D02*
Y243894D01*
X208461Y243106D02*
Y243894D01*
X210000Y262500D02*
X215000Y260000D01*
Y265000D01*
X210000Y262500D02*
X215000Y265000D01*
X210000Y255000D02*
X215000Y252500D01*
Y257500D01*
X210000Y255000D02*
X215000Y257500D01*
X212461Y145606D02*
Y146394D01*
X207539Y145606D02*
Y146394D01*
X212461Y159606D02*
Y160394D01*
X207539Y159606D02*
Y160394D01*
D56*
X327800Y233100D02*
Y248500D01*
X344694D02*
X347200Y245994D01*
Y233100D02*
Y245994D01*
D57*
X211500Y191500D02*
Y194649D01*
X213074D01*
X213599Y194124D01*
Y193074D01*
X213074Y192550D01*
X211500D01*
X212549D02*
X213599Y191500D01*
X214649D02*
X215698D01*
X215173D01*
Y194649D01*
X214649Y194124D01*
X217272D02*
X217797Y194649D01*
X218847D01*
X219372Y194124D01*
Y193599D01*
X218847Y193074D01*
X219372Y192550D01*
Y192025D01*
X218847Y191500D01*
X217797D01*
X217272Y192025D01*
Y192550D01*
X217797Y193074D01*
X217272Y193599D01*
Y194124D01*
X217797Y193074D02*
X218847D01*
X220851Y216000D02*
Y217050D01*
Y216525D01*
X224000D01*
Y216000D01*
Y217050D01*
X221376Y220723D02*
X220851Y220198D01*
Y219149D01*
X221376Y218624D01*
X223475D01*
X224000Y219149D01*
Y220198D01*
X223475Y220723D01*
X224000Y223871D02*
Y221772D01*
X221901Y223871D01*
X221376D01*
X220851Y223347D01*
Y222297D01*
X221376Y221772D01*
X311000Y135149D02*
X312050D01*
X311525D01*
Y132000D01*
X311000D01*
X312050D01*
X315723Y134624D02*
X315198Y135149D01*
X314149D01*
X313624Y134624D01*
Y132525D01*
X314149Y132000D01*
X315198D01*
X315723Y132525D01*
X318347Y132000D02*
Y135149D01*
X316772Y133574D01*
X318871D01*
X323500Y229500D02*
X320351D01*
Y231074D01*
X320876Y231599D01*
X321926D01*
X322450Y231074D01*
Y229500D01*
Y230550D02*
X323500Y231599D01*
X320876Y232649D02*
X320351Y233173D01*
Y234223D01*
X320876Y234748D01*
X321401D01*
X321926Y234223D01*
Y233698D01*
Y234223D01*
X322450Y234748D01*
X322975D01*
X323500Y234223D01*
Y233173D01*
X322975Y232649D01*
X320876Y235797D02*
X320351Y236322D01*
Y237371D01*
X320876Y237896D01*
X322975D01*
X323500Y237371D01*
Y236322D01*
X322975Y235797D01*
X320876D01*
X287124Y235401D02*
X287649Y235926D01*
Y236975D01*
X287124Y237500D01*
X286599D01*
X286074Y236975D01*
Y235926D01*
X285549Y235401D01*
X285025D01*
X284500Y235926D01*
Y236975D01*
X285025Y237500D01*
X287649Y234351D02*
X284500D01*
X285549Y233302D01*
X284500Y232252D01*
X287649D01*
X284500Y231203D02*
Y230153D01*
Y230678D01*
X287649D01*
X287124Y231203D01*
X386351Y198000D02*
X389500D01*
Y200099D01*
X386351Y203248D02*
Y201149D01*
X389500D01*
Y203248D01*
X387926Y201149D02*
Y202198D01*
X386351Y204297D02*
X389500D01*
Y205872D01*
X388975Y206396D01*
X386876D01*
X386351Y205872D01*
Y204297D01*
X386876Y207446D02*
X386351Y207970D01*
Y209020D01*
X386876Y209545D01*
X387401D01*
X387926Y209020D01*
Y208495D01*
Y209020D01*
X388451Y209545D01*
X388975D01*
X389500Y209020D01*
Y207970D01*
X388975Y207446D01*
X386351Y166500D02*
X389500D01*
Y168599D01*
X386351Y171748D02*
Y169649D01*
X389500D01*
Y171748D01*
X387926Y169649D02*
Y170698D01*
X386351Y172797D02*
X389500D01*
Y174372D01*
X388975Y174896D01*
X386876D01*
X386351Y174372D01*
Y172797D01*
X389500Y178045D02*
Y175946D01*
X387401Y178045D01*
X386876D01*
X386351Y177520D01*
Y176470D01*
X386876Y175946D01*
X386351Y136000D02*
X389500D01*
Y138099D01*
X386351Y141248D02*
Y139149D01*
X389500D01*
Y141248D01*
X387926Y139149D02*
Y140198D01*
X386351Y142297D02*
X389500D01*
Y143871D01*
X388975Y144396D01*
X386876D01*
X386351Y143871D01*
Y142297D01*
X389500Y145446D02*
Y146495D01*
Y145970D01*
X386351D01*
X386876Y145446D01*
X201851Y138500D02*
X205000Y140599D01*
X201851D02*
X205000Y138500D01*
X201851Y143748D02*
Y141649D01*
X203426D01*
X202901Y142698D01*
Y143223D01*
X203426Y143748D01*
X204475D01*
X205000Y143223D01*
Y142173D01*
X204475Y141649D01*
X202351Y220000D02*
X205500Y222099D01*
X202351D02*
X205500Y220000D01*
X202876Y223149D02*
X202351Y223673D01*
Y224723D01*
X202876Y225248D01*
X203401D01*
X203926Y224723D01*
Y224198D01*
Y224723D01*
X204450Y225248D01*
X204975D01*
X205500Y224723D01*
Y223673D01*
X204975Y223149D01*
X213500Y188149D02*
X214549D01*
X214025D01*
Y185000D01*
X213500D01*
X214549D01*
X218223Y187624D02*
X217698Y188149D01*
X216649D01*
X216124Y187624D01*
Y185525D01*
X216649Y185000D01*
X217698D01*
X218223Y185525D01*
X219272Y187624D02*
X219797Y188149D01*
X220847D01*
X221372Y187624D01*
Y187099D01*
X220847Y186574D01*
X220322D01*
X220847D01*
X221372Y186049D01*
Y185525D01*
X220847Y185000D01*
X219797D01*
X219272Y185525D01*
X389000Y269649D02*
Y266500D01*
X390574D01*
X391099Y267025D01*
Y269124D01*
X390574Y269649D01*
X389000D01*
X394248Y266500D02*
X392149D01*
X394248Y268599D01*
Y269124D01*
X393723Y269649D01*
X392673D01*
X392149Y269124D01*
X372429Y269149D02*
Y266000D01*
X374003D01*
X374528Y266525D01*
Y268624D01*
X374003Y269149D01*
X372429D01*
X375578Y266000D02*
X376627D01*
X376102D01*
Y269149D01*
X375578Y268624D01*
X393149Y254500D02*
X390000Y252401D01*
X393149D02*
X390000Y254500D01*
Y249252D02*
Y251351D01*
X392099Y249252D01*
X392624D01*
X393149Y249777D01*
Y250827D01*
X392624Y251351D01*
X360000Y105649D02*
X362099Y102500D01*
Y105649D02*
X360000Y102500D01*
X364723D02*
Y105649D01*
X363149Y104074D01*
X365248D01*
X153500Y290649D02*
X155599Y287500D01*
Y290649D02*
X153500Y287500D01*
X156649D02*
X157698D01*
X157173D01*
Y290649D01*
X156649Y290124D01*
X317000Y268500D02*
X320149D01*
Y266926D01*
X319624Y266401D01*
X318574D01*
X318050Y266926D01*
Y268500D01*
Y267450D02*
X317000Y266401D01*
Y263777D02*
X320149D01*
X318574Y265351D01*
Y263252D01*
X321000Y268500D02*
X324149D01*
Y266926D01*
X323624Y266401D01*
X322574D01*
X322049Y266926D01*
Y268500D01*
Y267450D02*
X321000Y266401D01*
Y263252D02*
Y265351D01*
X323099Y263252D01*
X323624D01*
X324149Y263777D01*
Y264827D01*
X323624Y265351D01*
X325000Y268500D02*
X328149D01*
Y266926D01*
X327624Y266401D01*
X326574D01*
X326049Y266926D01*
Y268500D01*
Y267450D02*
X325000Y266401D01*
X327624Y265351D02*
X328149Y264827D01*
Y263777D01*
X327624Y263252D01*
X327099D01*
X326574Y263777D01*
Y264302D01*
Y263777D01*
X326049Y263252D01*
X325525D01*
X325000Y263777D01*
Y264827D01*
X325525Y265351D01*
X329000Y268500D02*
X332149D01*
Y266926D01*
X331624Y266401D01*
X330574D01*
X330049Y266926D01*
Y268500D01*
Y267450D02*
X329000Y266401D01*
Y265351D02*
Y264302D01*
Y264827D01*
X332149D01*
X331624Y265351D01*
X261500Y264000D02*
Y267149D01*
X263074D01*
X263599Y266624D01*
Y265574D01*
X263074Y265050D01*
X261500D01*
X262549D02*
X263599Y264000D01*
X264649D02*
X265698D01*
X265173D01*
Y267149D01*
X264649Y266624D01*
X269372Y264000D02*
X267272D01*
X269372Y266099D01*
Y266624D01*
X268847Y267149D01*
X267797D01*
X267272Y266624D01*
X227500Y206500D02*
Y209649D01*
X229074D01*
X229599Y209124D01*
Y208074D01*
X229074Y207550D01*
X227500D01*
X228550D02*
X229599Y206500D01*
X230649D02*
X231698D01*
X231173D01*
Y209649D01*
X230649Y209124D01*
X233272Y206500D02*
X234322D01*
X233797D01*
Y209649D01*
X233272Y209124D01*
X214000Y208000D02*
X210851D01*
Y209574D01*
X211376Y210099D01*
X212426D01*
X212950Y209574D01*
Y208000D01*
Y209050D02*
X214000Y210099D01*
Y211149D02*
Y212198D01*
Y211673D01*
X210851D01*
X211376Y211149D01*
Y213772D02*
X210851Y214297D01*
Y215347D01*
X211376Y215872D01*
X213475D01*
X214000Y215347D01*
Y214297D01*
X213475Y213772D01*
X211376D01*
X376500Y223000D02*
X379649D01*
Y221426D01*
X379124Y220901D01*
X378074D01*
X377550Y221426D01*
Y223000D01*
Y221951D02*
X376500Y220901D01*
X379124Y219851D02*
X379649Y219327D01*
Y218277D01*
X379124Y217752D01*
X378599D01*
X378074Y218277D01*
X377550Y217752D01*
X377025D01*
X376500Y218277D01*
Y219327D01*
X377025Y219851D01*
X377550D01*
X378074Y219327D01*
X378599Y219851D01*
X379124D01*
X378074Y219327D02*
Y218277D01*
X380500Y223000D02*
X383649D01*
Y221426D01*
X383124Y220901D01*
X382074D01*
X381550Y221426D01*
Y223000D01*
Y221951D02*
X380500Y220901D01*
X383649Y219851D02*
Y217752D01*
X383124D01*
X381025Y219851D01*
X380500D01*
X206500Y230000D02*
X203351D01*
Y231574D01*
X203876Y232099D01*
X204926D01*
X205451Y231574D01*
Y230000D01*
Y231049D02*
X206500Y232099D01*
X205975Y233149D02*
X206500Y233673D01*
Y234723D01*
X205975Y235248D01*
X203876D01*
X203351Y234723D01*
Y233673D01*
X203876Y233149D01*
X204401D01*
X204926Y233673D01*
Y235248D01*
X368500Y241000D02*
X371649D01*
Y239426D01*
X371124Y238901D01*
X370074D01*
X369549Y239426D01*
Y241000D01*
Y239950D02*
X368500Y238901D01*
X371649Y235752D02*
Y237851D01*
X370074D01*
X370599Y236802D01*
Y236277D01*
X370074Y235752D01*
X369025D01*
X368500Y236277D01*
Y237327D01*
X369025Y237851D01*
X356000Y247000D02*
Y250149D01*
X357574D01*
X358099Y249624D01*
Y248574D01*
X357574Y248049D01*
X356000D01*
X357049D02*
X358099Y247000D01*
X361248Y250149D02*
X360198Y249624D01*
X359149Y248574D01*
Y247525D01*
X359673Y247000D01*
X360723D01*
X361248Y247525D01*
Y248049D01*
X360723Y248574D01*
X359149D01*
X323351Y241000D02*
Y242050D01*
Y241525D01*
X326500D01*
Y241000D01*
Y242050D01*
X323876Y245723D02*
X323351Y245198D01*
Y244149D01*
X323876Y243624D01*
X325975D01*
X326500Y244149D01*
Y245198D01*
X325975Y245723D01*
X326500Y246772D02*
Y247822D01*
Y247297D01*
X323351D01*
X323876Y246772D01*
X197500Y270149D02*
Y267000D01*
X199074D01*
X199599Y267525D01*
Y269624D01*
X199074Y270149D01*
X197500D01*
X202223Y267000D02*
Y270149D01*
X200649Y268574D01*
X202748D01*
X197500Y265649D02*
Y262500D01*
X199074D01*
X199599Y263025D01*
Y265124D01*
X199074Y265649D01*
X197500D01*
X200649Y265124D02*
X201173Y265649D01*
X202223D01*
X202748Y265124D01*
Y264599D01*
X202223Y264074D01*
X201698D01*
X202223D01*
X202748Y263549D01*
Y263025D01*
X202223Y262500D01*
X201173D01*
X200649Y263025D01*
X365124Y255401D02*
X365649Y255926D01*
Y256975D01*
X365124Y257500D01*
X363025D01*
X362500Y256975D01*
Y255926D01*
X363025Y255401D01*
X365649Y252252D02*
Y254351D01*
X364074D01*
X364599Y253302D01*
Y252777D01*
X364074Y252252D01*
X363025D01*
X362500Y252777D01*
Y253827D01*
X363025Y254351D01*
X364624Y224401D02*
X365149Y224926D01*
Y225975D01*
X364624Y226500D01*
X362525D01*
X362000Y225975D01*
Y224926D01*
X362525Y224401D01*
X365149Y221252D02*
X364624Y222302D01*
X363574Y223351D01*
X362525D01*
X362000Y222827D01*
Y221777D01*
X362525Y221252D01*
X363050D01*
X363574Y221777D01*
Y223351D01*
X232099Y261124D02*
X231574Y261649D01*
X230525D01*
X230000Y261124D01*
Y259025D01*
X230525Y258500D01*
X231574D01*
X232099Y259025D01*
X233149Y258500D02*
X234198D01*
X233673D01*
Y261649D01*
X233149Y261124D01*
X235772D02*
X236297Y261649D01*
X237347D01*
X237872Y261124D01*
Y260599D01*
X237347Y260074D01*
X237872Y259549D01*
Y259025D01*
X237347Y258500D01*
X236297D01*
X235772Y259025D01*
Y259549D01*
X236297Y260074D01*
X235772Y260599D01*
Y261124D01*
X236297Y260074D02*
X237347D01*
X210099Y230624D02*
X209574Y231149D01*
X208525D01*
X208000Y230624D01*
Y228525D01*
X208525Y228000D01*
X209574D01*
X210099Y228525D01*
X211149Y228000D02*
X212198D01*
X211673D01*
Y231149D01*
X211149Y230624D01*
X215347Y228000D02*
Y231149D01*
X213772Y229574D01*
X215872D01*
X266599Y223624D02*
X266074Y224149D01*
X265025D01*
X264500Y223624D01*
Y221525D01*
X265025Y221000D01*
X266074D01*
X266599Y221525D01*
X267649Y221000D02*
X268698D01*
X268173D01*
Y224149D01*
X267649Y223624D01*
X272372Y224149D02*
X270272D01*
Y222574D01*
X271322Y223099D01*
X271847D01*
X272372Y222574D01*
Y221525D01*
X271847Y221000D01*
X270797D01*
X270272Y221525D01*
X210099Y234624D02*
X209574Y235149D01*
X208525D01*
X208000Y234624D01*
Y232525D01*
X208525Y232000D01*
X209574D01*
X210099Y232525D01*
X211149Y232000D02*
X212198D01*
X211673D01*
Y235149D01*
X211149Y234624D01*
X215872Y235149D02*
X214822Y234624D01*
X213772Y233574D01*
Y232525D01*
X214297Y232000D01*
X215347D01*
X215872Y232525D01*
Y233050D01*
X215347Y233574D01*
X213772D01*
X272099Y233124D02*
X271574Y233649D01*
X270525D01*
X270000Y233124D01*
Y231025D01*
X270525Y230500D01*
X271574D01*
X272099Y231025D01*
X273149Y230500D02*
X274198D01*
X273673D01*
Y233649D01*
X273149Y233124D01*
X275772Y233649D02*
X277871D01*
Y233124D01*
X275772Y231025D01*
Y230500D01*
X296599Y268624D02*
X296074Y269149D01*
X295025D01*
X294500Y268624D01*
Y266525D01*
X295025Y266000D01*
X296074D01*
X296599Y266525D01*
X297649Y266000D02*
X298698D01*
X298173D01*
Y269149D01*
X297649Y268624D01*
X206599Y126124D02*
X206074Y126649D01*
X205025D01*
X204500Y126124D01*
Y124025D01*
X205025Y123500D01*
X206074D01*
X206599Y124025D01*
X207649Y123500D02*
X208698D01*
X208173D01*
Y126649D01*
X207649Y126124D01*
X210272Y123500D02*
X211322D01*
X210797D01*
Y126649D01*
X210272Y126124D01*
X299599Y131124D02*
X299074Y131649D01*
X298025D01*
X297500Y131124D01*
Y129025D01*
X298025Y128500D01*
X299074D01*
X299599Y129025D01*
X300649Y128500D02*
X301698D01*
X301173D01*
Y131649D01*
X300649Y131124D01*
X303272D02*
X303797Y131649D01*
X304847D01*
X305371Y131124D01*
Y129025D01*
X304847Y128500D01*
X303797D01*
X303272Y129025D01*
Y131124D01*
X225599Y263624D02*
X225074Y264149D01*
X224025D01*
X223500Y263624D01*
Y261525D01*
X224025Y261000D01*
X225074D01*
X225599Y261525D01*
X228223Y261000D02*
Y264149D01*
X226649Y262574D01*
X228748D01*
X327099Y212124D02*
X326574Y212649D01*
X325525D01*
X325000Y212124D01*
Y210025D01*
X325525Y209500D01*
X326574D01*
X327099Y210025D01*
X328149D02*
X328673Y209500D01*
X329723D01*
X330248Y210025D01*
Y212124D01*
X329723Y212649D01*
X328673D01*
X328149Y212124D01*
Y211599D01*
X328673Y211074D01*
X330248D01*
X358599Y254124D02*
X358074Y254649D01*
X357025D01*
X356500Y254124D01*
Y252025D01*
X357025Y251500D01*
X358074D01*
X358599Y252025D01*
X359649Y254124D02*
X360173Y254649D01*
X361223D01*
X361748Y254124D01*
Y253599D01*
X361223Y253074D01*
X361748Y252550D01*
Y252025D01*
X361223Y251500D01*
X360173D01*
X359649Y252025D01*
Y252550D01*
X360173Y253074D01*
X359649Y253599D01*
Y254124D01*
X360173Y253074D02*
X361223D01*
X336099Y212124D02*
X335574Y212649D01*
X334525D01*
X334000Y212124D01*
Y210025D01*
X334525Y209500D01*
X335574D01*
X336099Y210025D01*
X337149Y212649D02*
X339248D01*
Y212124D01*
X337149Y210025D01*
Y209500D01*
X265351Y139000D02*
X268500Y141099D01*
X265351D02*
X268500Y139000D01*
X265351Y142149D02*
Y144248D01*
X265876D01*
X267975Y142149D01*
X268500D01*
X206600Y155400D02*
Y158549D01*
X208174D01*
X208699Y158024D01*
Y156974D01*
X208174Y156449D01*
X206600D01*
X207649D02*
X208699Y155400D01*
X209749D02*
X210798D01*
X210273D01*
Y158549D01*
X209749Y158024D01*
X212372Y155925D02*
X212897Y155400D01*
X213947D01*
X214472Y155925D01*
Y158024D01*
X213947Y158549D01*
X212897D01*
X212372Y158024D01*
Y157499D01*
X212897Y156974D01*
X214472D01*
X206600Y169400D02*
Y172549D01*
X208174D01*
X208699Y172024D01*
Y170974D01*
X208174Y170449D01*
X206600D01*
X207649D02*
X208699Y169400D01*
X209749D02*
X210798D01*
X210273D01*
Y172549D01*
X209749Y172024D01*
X212372Y172549D02*
X214472D01*
Y172024D01*
X212372Y169925D01*
Y169400D01*
X227321Y133381D02*
Y136530D01*
X228896D01*
X229420Y136005D01*
Y134955D01*
X228896Y134431D01*
X227321D01*
X228371D02*
X229420Y133381D01*
X232569D02*
X230470D01*
X232569Y135480D01*
Y136005D01*
X232044Y136530D01*
X230995D01*
X230470Y136005D01*
X233618Y133381D02*
X234668D01*
X234143D01*
Y136530D01*
X233618Y136005D01*
M02*
