G04 Layer_Color=20142*
%FSLAX25Y25*%
%MOIN*%
G70*
G01*
G75*
%ADD57C,0.00591*%
%ADD58R,0.05131X0.06115*%
%ADD59R,0.04934X0.06509*%
G04:AMPARAMS|DCode=60|XSize=38mil|YSize=59.18mil|CornerRadius=11.5mil|HoleSize=0mil|Usage=FLASHONLY|Rotation=0.000|XOffset=0mil|YOffset=0mil|HoleType=Round|Shape=RoundedRectangle|*
%AMROUNDEDRECTD60*
21,1,0.03800,0.03618,0,0,0.0*
21,1,0.01500,0.05918,0,0,0.0*
1,1,0.02300,0.00750,-0.01809*
1,1,0.02300,-0.00750,-0.01809*
1,1,0.02300,-0.00750,0.01809*
1,1,0.02300,0.00750,0.01809*
%
%ADD60ROUNDEDRECTD60*%
%ADD61R,0.06115X0.04934*%
%ADD62R,0.06115X0.05131*%
%ADD63R,0.05918X0.02769*%
%ADD64R,0.05918X0.07690*%
%ADD65R,0.09855X0.09658*%
%ADD66R,0.06509X0.04934*%
%ADD67R,0.02300X0.06300*%
%ADD68R,0.04934X0.06115*%
%ADD69R,0.06300X0.09100*%
%ADD70R,0.07887X0.09068*%
%ADD71R,0.05918X0.01784*%
%ADD72R,0.01784X0.05918*%
%ADD73O,0.08871X0.03162*%
%ADD74O,0.06509X0.02965*%
%ADD75O,0.02965X0.06509*%
%ADD76R,0.04737X0.04737*%
%ADD77C,0.07099*%
%ADD78R,0.07099X0.07099*%
%ADD79C,0.00800*%
%ADD80O,0.12611X0.16548*%
%ADD81C,0.07887*%
%ADD82C,0.06706*%
%ADD83C,0.07800*%
%ADD84R,0.07800X0.07800*%
%ADD85C,0.24422*%
%ADD86C,0.03162*%
%ADD87C,0.05800*%
D57*
X132124Y275780D02*
X131468Y276436D01*
X130156D01*
X129500Y275780D01*
Y273156D01*
X130156Y272500D01*
X131468D01*
X132124Y273156D01*
X136060Y275780D02*
X135404Y276436D01*
X134092D01*
X133436Y275780D01*
Y273156D01*
X134092Y272500D01*
X135404D01*
X136060Y273156D01*
X141307Y276436D02*
Y272500D01*
X143275D01*
X143931Y273156D01*
Y273812D01*
X143275Y274468D01*
X141307D01*
X143275D01*
X143931Y275124D01*
Y275780D01*
X143275Y276436D01*
X141307D01*
X145243D02*
Y275780D01*
X146555Y274468D01*
X147867Y275780D01*
Y276436D01*
X146555Y274468D02*
Y272500D01*
X129000Y280624D02*
X130312Y278000D01*
X131624Y280624D01*
X132936Y278000D02*
X134248D01*
X133592D01*
Y281936D01*
X132936Y281280D01*
X136215Y278000D02*
Y278656D01*
X136872D01*
Y278000D01*
X136215D01*
X139495Y281280D02*
X140151Y281936D01*
X141463D01*
X142119Y281280D01*
Y278656D01*
X141463Y278000D01*
X140151D01*
X139495Y278656D01*
Y281280D01*
X129000Y283500D02*
X130312D01*
X129656D01*
Y287436D01*
X129000Y286780D01*
X134904Y283500D02*
X132280D01*
X134904Y286124D01*
Y286780D01*
X134248Y287436D01*
X132936D01*
X132280Y286780D01*
X136215Y283500D02*
X138839Y286124D01*
X142775Y283500D02*
X140151D01*
X142775Y286124D01*
Y286780D01*
X142119Y287436D01*
X140807D01*
X140151Y286780D01*
X144087D02*
X144743Y287436D01*
X146055D01*
X146711Y286780D01*
Y284156D01*
X146055Y283500D01*
X144743D01*
X144087Y284156D01*
Y286780D01*
X148023Y283500D02*
X149335D01*
X148679D01*
Y287436D01*
X148023Y286780D01*
X151303D02*
X151959Y287436D01*
X153270D01*
X153926Y286780D01*
Y286124D01*
X153270Y285468D01*
X153926Y284812D01*
Y284156D01*
X153270Y283500D01*
X151959D01*
X151303Y284156D01*
Y284812D01*
X151959Y285468D01*
X151303Y286124D01*
Y286780D01*
X151959Y285468D02*
X153270D01*
D58*
X217256Y187500D02*
D03*
X211744D02*
D03*
X258256Y268500D02*
D03*
X252744D02*
D03*
X224256Y135500D02*
D03*
X218744D02*
D03*
D59*
X365142Y243300D02*
D03*
X357858D02*
D03*
X365142Y236300D02*
D03*
X357858D02*
D03*
D60*
X366571Y263000D02*
D03*
X375429D02*
D03*
X383071D02*
D03*
X391929D02*
D03*
D61*
X351000Y246847D02*
D03*
Y252753D02*
D03*
X337000Y221753D02*
D03*
Y215847D02*
D03*
X329500Y221753D02*
D03*
Y215847D02*
D03*
D62*
X369000Y229056D02*
D03*
Y223544D02*
D03*
Y250044D02*
D03*
Y255556D02*
D03*
X360000Y266056D02*
D03*
Y260544D02*
D03*
X353000Y266056D02*
D03*
Y260544D02*
D03*
X346000Y266056D02*
D03*
Y260544D02*
D03*
X339000Y266056D02*
D03*
Y260544D02*
D03*
X238000Y208756D02*
D03*
Y203244D02*
D03*
X319000Y216244D02*
D03*
Y221756D02*
D03*
D63*
X376193Y235182D02*
D03*
Y245418D02*
D03*
Y237741D02*
D03*
Y242859D02*
D03*
Y240300D02*
D03*
D64*
Y252406D02*
D03*
Y228194D02*
D03*
D65*
X383870Y232131D02*
D03*
Y248469D02*
D03*
D66*
X351000Y229442D02*
D03*
Y222158D02*
D03*
X358000Y229442D02*
D03*
Y222158D02*
D03*
X206000Y208358D02*
D03*
Y215642D02*
D03*
Y239858D02*
D03*
Y247142D02*
D03*
X210000Y149642D02*
D03*
Y142358D02*
D03*
Y163642D02*
D03*
Y156358D02*
D03*
D67*
X346250Y251300D02*
D03*
X343750D02*
D03*
X341250D02*
D03*
X338750D02*
D03*
X336200D02*
D03*
X333700D02*
D03*
X331200D02*
D03*
X328700D02*
D03*
Y230300D02*
D03*
X331200D02*
D03*
X333700D02*
D03*
X336200D02*
D03*
X338750D02*
D03*
X341250D02*
D03*
X343750D02*
D03*
X346250D02*
D03*
D68*
X304047Y268000D02*
D03*
X309953D02*
D03*
X271047Y238000D02*
D03*
X276953D02*
D03*
X265547Y217000D02*
D03*
X271453D02*
D03*
X303953Y125000D02*
D03*
X298047D02*
D03*
X214547D02*
D03*
X220453D02*
D03*
X218953Y239000D02*
D03*
X213047D02*
D03*
X218953Y246000D02*
D03*
X213047D02*
D03*
X220547Y268500D02*
D03*
X226453D02*
D03*
D69*
X311350Y216050D02*
D03*
Y251950D02*
D03*
X293650D02*
D03*
Y216050D02*
D03*
D70*
X233095Y267000D02*
D03*
X244905D02*
D03*
D71*
X225874Y229610D02*
D03*
Y231579D02*
D03*
X260126Y247327D02*
D03*
Y245358D02*
D03*
Y243390D02*
D03*
Y241421D02*
D03*
Y239453D02*
D03*
Y237484D02*
D03*
Y235516D02*
D03*
Y233547D02*
D03*
Y231579D02*
D03*
Y229610D02*
D03*
Y227642D02*
D03*
Y225673D02*
D03*
X225874D02*
D03*
Y227642D02*
D03*
Y233547D02*
D03*
Y235516D02*
D03*
Y237484D02*
D03*
Y239453D02*
D03*
Y241421D02*
D03*
Y243390D02*
D03*
Y245358D02*
D03*
Y247327D02*
D03*
D72*
X253827Y253500D02*
D03*
X232173D02*
D03*
X234142D02*
D03*
X236110D02*
D03*
X238079D02*
D03*
X240047D02*
D03*
X242016D02*
D03*
X243984D02*
D03*
X245953D02*
D03*
X247921D02*
D03*
X249890D02*
D03*
X251858D02*
D03*
X253827Y219374D02*
D03*
X251858D02*
D03*
X249890D02*
D03*
X247921D02*
D03*
X245953D02*
D03*
X243984D02*
D03*
X242016D02*
D03*
X240047D02*
D03*
X238079D02*
D03*
X236110D02*
D03*
X234142D02*
D03*
X232173D02*
D03*
D73*
X323610Y139500D02*
D03*
Y144500D02*
D03*
Y149500D02*
D03*
Y154500D02*
D03*
Y159500D02*
D03*
Y164500D02*
D03*
Y169500D02*
D03*
Y174500D02*
D03*
Y179500D02*
D03*
Y184500D02*
D03*
Y189500D02*
D03*
Y194500D02*
D03*
Y199500D02*
D03*
Y204500D02*
D03*
X287390Y139500D02*
D03*
Y144500D02*
D03*
Y149500D02*
D03*
Y154500D02*
D03*
Y159500D02*
D03*
Y164500D02*
D03*
Y169500D02*
D03*
Y174500D02*
D03*
Y179500D02*
D03*
Y184500D02*
D03*
Y189500D02*
D03*
Y194500D02*
D03*
Y199500D02*
D03*
Y204500D02*
D03*
D74*
X218453Y164000D02*
D03*
Y167150D02*
D03*
Y151402D02*
D03*
Y154551D02*
D03*
X262547Y179748D02*
D03*
Y176598D02*
D03*
Y173449D02*
D03*
Y170299D02*
D03*
Y167150D02*
D03*
Y164000D02*
D03*
Y160850D02*
D03*
Y157701D02*
D03*
Y154551D02*
D03*
Y151402D02*
D03*
Y148252D02*
D03*
X218453D02*
D03*
Y157701D02*
D03*
Y160850D02*
D03*
Y170299D02*
D03*
Y173449D02*
D03*
Y176598D02*
D03*
Y179748D02*
D03*
D75*
X256248Y141953D02*
D03*
X253098D02*
D03*
X249949D02*
D03*
X246799D02*
D03*
X243650D02*
D03*
X240500D02*
D03*
X237350D02*
D03*
X234201D02*
D03*
X231051D02*
D03*
X227902D02*
D03*
X224752D02*
D03*
Y186047D02*
D03*
X227902D02*
D03*
X231051D02*
D03*
X234201D02*
D03*
X237350D02*
D03*
X240500D02*
D03*
X243650D02*
D03*
X246799D02*
D03*
X249949D02*
D03*
X253098D02*
D03*
X256248D02*
D03*
D76*
X218701Y262500D02*
D03*
X206299D02*
D03*
X218701Y255000D02*
D03*
X206299D02*
D03*
D77*
X275000Y143000D02*
D03*
Y153000D02*
D03*
Y163000D02*
D03*
Y173000D02*
D03*
D78*
Y183000D02*
D03*
D79*
X143020Y258000D02*
D03*
Y213000D02*
D03*
Y136000D02*
D03*
Y181000D02*
D03*
D80*
X155028Y266189D02*
D03*
Y204811D02*
D03*
Y127811D02*
D03*
Y189189D02*
D03*
D81*
X168020Y253000D02*
D03*
X178020Y248000D02*
D03*
X168020Y243000D02*
D03*
X178020Y238000D02*
D03*
X168020Y233000D02*
D03*
X178020Y228000D02*
D03*
X168020Y223000D02*
D03*
X178020Y218000D02*
D03*
X197035Y256996D02*
D03*
Y246996D02*
D03*
Y224004D02*
D03*
Y214004D02*
D03*
Y137004D02*
D03*
Y147004D02*
D03*
Y169996D02*
D03*
Y179996D02*
D03*
X178020Y141000D02*
D03*
X168020Y146000D02*
D03*
X178020Y151000D02*
D03*
X168020Y156000D02*
D03*
X178020Y161000D02*
D03*
X168020Y166000D02*
D03*
X178020Y171000D02*
D03*
X168020Y176000D02*
D03*
D82*
X348000Y194000D02*
D03*
X358000D02*
D03*
X368000D02*
D03*
X378000D02*
D03*
X388000D02*
D03*
Y214000D02*
D03*
X378000D02*
D03*
X368000D02*
D03*
X358000D02*
D03*
X348000D02*
D03*
Y162500D02*
D03*
X358000D02*
D03*
X368000D02*
D03*
X378000D02*
D03*
X388000D02*
D03*
Y182500D02*
D03*
X378000D02*
D03*
X368000D02*
D03*
X358000D02*
D03*
X348000D02*
D03*
Y131000D02*
D03*
X358000D02*
D03*
X368000D02*
D03*
X378000D02*
D03*
X388000D02*
D03*
Y151000D02*
D03*
X378000D02*
D03*
X368000D02*
D03*
X358000D02*
D03*
X348000D02*
D03*
D83*
X224016Y116496D02*
D03*
Y106496D02*
D03*
X214016Y116496D02*
D03*
Y106496D02*
D03*
X204016Y116496D02*
D03*
Y106496D02*
D03*
X164016D02*
D03*
Y116496D02*
D03*
X174016Y106496D02*
D03*
Y116496D02*
D03*
X184016Y106496D02*
D03*
Y116496D02*
D03*
X194016Y106496D02*
D03*
Y116496D02*
D03*
X264016D02*
D03*
Y106496D02*
D03*
X254016Y116496D02*
D03*
Y106496D02*
D03*
X244016Y116496D02*
D03*
Y106496D02*
D03*
X234016Y116496D02*
D03*
Y106496D02*
D03*
X304016Y116496D02*
D03*
Y106496D02*
D03*
X294016Y116496D02*
D03*
Y106496D02*
D03*
X284016Y116496D02*
D03*
Y106496D02*
D03*
X274016Y116496D02*
D03*
Y106496D02*
D03*
X314016D02*
D03*
Y116496D02*
D03*
X324016Y106496D02*
D03*
Y116496D02*
D03*
X334016Y106496D02*
D03*
Y116496D02*
D03*
X344016Y106496D02*
D03*
Y116496D02*
D03*
X354016Y106496D02*
D03*
X294016Y277008D02*
D03*
Y287008D02*
D03*
X304016Y277008D02*
D03*
Y287008D02*
D03*
X314016Y277008D02*
D03*
Y287008D02*
D03*
X354016D02*
D03*
Y277008D02*
D03*
X344016Y287008D02*
D03*
Y277008D02*
D03*
X334016Y287008D02*
D03*
Y277008D02*
D03*
X324016Y287008D02*
D03*
Y277008D02*
D03*
X254016D02*
D03*
Y287008D02*
D03*
X264016Y277008D02*
D03*
Y287008D02*
D03*
X274016Y277008D02*
D03*
Y287008D02*
D03*
X284016Y277008D02*
D03*
Y287008D02*
D03*
X214016Y277008D02*
D03*
Y287008D02*
D03*
X224016Y277008D02*
D03*
Y287008D02*
D03*
X234016Y277008D02*
D03*
Y287008D02*
D03*
X244016Y277008D02*
D03*
Y287008D02*
D03*
X204016D02*
D03*
Y277008D02*
D03*
X194016Y287008D02*
D03*
Y277008D02*
D03*
X184016Y287008D02*
D03*
Y277008D02*
D03*
X174016Y287008D02*
D03*
Y277008D02*
D03*
X164016Y287008D02*
D03*
D84*
X354016Y116496D02*
D03*
X164016Y277008D02*
D03*
D85*
X112008Y112992D02*
D03*
Y280000D02*
D03*
X382992Y112992D02*
D03*
Y280000D02*
D03*
D86*
X202500Y169000D02*
D03*
X207500Y225500D02*
D03*
X350500Y246500D02*
D03*
X351000Y234800D02*
D03*
X301000Y257500D02*
D03*
X320000Y269500D02*
D03*
X321500Y253000D02*
D03*
X294000Y258000D02*
D03*
X211000Y237000D02*
D03*
X378000Y188000D02*
D03*
X369500Y200000D02*
D03*
X374500Y197500D02*
D03*
X369500Y188000D02*
D03*
X380000Y200000D02*
D03*
X367000Y207000D02*
D03*
X354500Y208000D02*
D03*
X390000Y201000D02*
D03*
Y205500D02*
D03*
X332000Y211000D02*
D03*
X206500Y185000D02*
D03*
X288000Y212000D02*
D03*
X282500Y215500D02*
D03*
X280500Y203000D02*
D03*
X281000Y188500D02*
D03*
X109500Y177500D02*
D03*
X130000D02*
D03*
X109500Y137500D02*
D03*
X130000D02*
D03*
Y158000D02*
D03*
X109500D02*
D03*
X109000Y235000D02*
D03*
X129500D02*
D03*
Y214500D02*
D03*
X109000D02*
D03*
X129500Y254500D02*
D03*
X109000D02*
D03*
X312500Y126500D02*
D03*
X324000D02*
D03*
X325000Y251000D02*
D03*
X318000Y237000D02*
D03*
Y247000D02*
D03*
Y256500D02*
D03*
X287500Y251000D02*
D03*
Y256500D02*
D03*
X277000Y243000D02*
D03*
X218000Y221000D02*
D03*
X252000Y153000D02*
D03*
X240000D02*
D03*
X275500Y127500D02*
D03*
X257000D02*
D03*
X237000D02*
D03*
X256500Y136000D02*
D03*
X206000Y202000D02*
D03*
X219000D02*
D03*
X230000D02*
D03*
X239500Y191500D02*
D03*
X262000Y184000D02*
D03*
X250000Y171000D02*
D03*
X268000Y167000D02*
D03*
X222500Y191500D02*
D03*
X213000Y182500D02*
D03*
X238500Y175000D02*
D03*
X242000Y166000D02*
D03*
X235000Y164500D02*
D03*
X225000D02*
D03*
X216500Y145000D02*
D03*
X229000Y147500D02*
D03*
X246000Y159500D02*
D03*
Y147000D02*
D03*
X257500D02*
D03*
Y159500D02*
D03*
X315500Y202000D02*
D03*
Y191000D02*
D03*
Y178500D02*
D03*
Y166000D02*
D03*
Y152500D02*
D03*
Y140000D02*
D03*
X304000D02*
D03*
Y152500D02*
D03*
Y166000D02*
D03*
X294000Y184500D02*
D03*
X304000Y178500D02*
D03*
Y191000D02*
D03*
Y202000D02*
D03*
X309500Y223000D02*
D03*
Y231500D02*
D03*
Y241000D02*
D03*
X302000Y223000D02*
D03*
Y231500D02*
D03*
Y241000D02*
D03*
Y250000D02*
D03*
X293500Y245000D02*
D03*
Y237500D02*
D03*
Y230000D02*
D03*
X301000Y216000D02*
D03*
X293500Y223000D02*
D03*
X383000Y262500D02*
D03*
X367000Y263000D02*
D03*
X387500Y220500D02*
D03*
X374000Y219000D02*
D03*
X358500Y222000D02*
D03*
X351000Y223000D02*
D03*
X282500Y225000D02*
D03*
X288500D02*
D03*
X301500Y133500D02*
D03*
X218000Y234000D02*
D03*
X371000Y234500D02*
D03*
X319000Y226500D02*
D03*
X340500Y222000D02*
D03*
X291500Y265000D02*
D03*
X301000Y268500D02*
D03*
X297500Y264500D02*
D03*
X334000Y266000D02*
D03*
X351000Y144500D02*
D03*
X349500Y141500D02*
D03*
X344000Y221000D02*
D03*
X341500Y211500D02*
D03*
X344000Y206000D02*
D03*
X264000Y187500D02*
D03*
X204500Y165500D02*
D03*
X254000Y194000D02*
D03*
X293500Y164500D02*
D03*
X294500Y133500D02*
D03*
X256000Y179000D02*
D03*
X232500Y160000D02*
D03*
X224500D02*
D03*
X227000Y180000D02*
D03*
X291500Y209500D02*
D03*
X282000Y149500D02*
D03*
X329000Y204500D02*
D03*
X296500Y178000D02*
D03*
X285500Y136000D02*
D03*
X331500Y131000D02*
D03*
Y136000D02*
D03*
X281500Y174500D02*
D03*
X267500Y152000D02*
D03*
X296000Y194500D02*
D03*
X293500Y190500D02*
D03*
X226000Y170299D02*
D03*
X256500Y174500D02*
D03*
X244000Y179748D02*
D03*
X338500Y184000D02*
D03*
X331000D02*
D03*
X331500Y190000D02*
D03*
X339000Y197500D02*
D03*
X339500Y136000D02*
D03*
X343000Y128500D02*
D03*
X378000Y208500D02*
D03*
X360000D02*
D03*
X347500D02*
D03*
X375500Y201500D02*
D03*
X342500Y193500D02*
D03*
X344000Y201000D02*
D03*
X331500Y143000D02*
D03*
X331000Y151500D02*
D03*
X330500Y159500D02*
D03*
X331000Y167500D02*
D03*
Y176000D02*
D03*
X229500Y223000D02*
D03*
X203095Y251890D02*
D03*
X338500Y225800D02*
D03*
X280902Y268500D02*
D03*
X281500Y258000D02*
D03*
X312000Y268000D02*
D03*
X249862Y257862D02*
D03*
X254000Y259500D02*
D03*
X244500Y228000D02*
D03*
X246500Y247000D02*
D03*
X235000Y245000D02*
D03*
X238000Y242000D02*
D03*
X241000Y239000D02*
D03*
X269000Y243500D02*
D03*
X267000Y240000D02*
D03*
X264500Y248000D02*
D03*
X265000Y235000D02*
D03*
X266500Y230500D02*
D03*
X265000Y227500D02*
D03*
X265500Y244500D02*
D03*
X242500Y262500D02*
D03*
X226500Y215500D02*
D03*
X255000Y248500D02*
D03*
X240000Y258500D02*
D03*
X254500Y213000D02*
D03*
X243000Y211500D02*
D03*
X246000Y213500D02*
D03*
X248000Y211000D02*
D03*
X250500Y214500D02*
D03*
X240500D02*
D03*
X295500Y125000D02*
D03*
X223000D02*
D03*
X257000Y219500D02*
D03*
X229500Y219000D02*
D03*
X226500Y265000D02*
D03*
X224000Y258500D02*
D03*
X256000Y255000D02*
D03*
X249500Y237000D02*
D03*
X245500D02*
D03*
X228500Y254500D02*
D03*
X253500Y226500D02*
D03*
X362500Y249800D02*
D03*
X333000Y225800D02*
D03*
X370500Y244300D02*
D03*
X326000Y238300D02*
D03*
Y233300D02*
D03*
Y228800D02*
D03*
X341500Y244300D02*
D03*
X345500D02*
D03*
X332500Y236300D02*
D03*
X337500D02*
D03*
X342000D02*
D03*
X347000D02*
D03*
X369000Y258800D02*
D03*
X380500Y226800D02*
D03*
X384000D02*
D03*
X387500D02*
D03*
X381000Y253800D02*
D03*
X384000D02*
D03*
X387000D02*
D03*
X356000Y252800D02*
D03*
X337000Y244300D02*
D03*
X333700Y260000D02*
D03*
X346000Y259800D02*
D03*
X353000Y258820D02*
D03*
X358000Y256300D02*
D03*
X331500Y245300D02*
D03*
X271500Y210500D02*
D03*
X233000Y213500D02*
D03*
X260000Y210500D02*
D03*
X264500Y255000D02*
D03*
X170500Y205000D02*
D03*
X185500D02*
D03*
X168000Y191000D02*
D03*
X187000Y164500D02*
D03*
X295500Y152500D02*
D03*
X298000Y143500D02*
D03*
X209057Y175000D02*
D03*
X208500Y179000D02*
D03*
X181000Y176500D02*
D03*
X190000Y261000D02*
D03*
X175500Y261500D02*
D03*
X195000Y234500D02*
D03*
X187000Y214500D02*
D03*
X165000Y214000D02*
D03*
X157000Y227500D02*
D03*
X159000Y250500D02*
D03*
X158500Y177000D02*
D03*
Y168500D02*
D03*
X160000Y150500D02*
D03*
X163000Y139500D02*
D03*
X169000Y127500D02*
D03*
X182500Y126000D02*
D03*
X268500Y173500D02*
D03*
D87*
X382984Y288500D02*
D03*
X374492Y279992D02*
D03*
X383000Y271500D02*
D03*
X391492Y280008D02*
D03*
X389484Y286008D02*
D03*
X376984Y286492D02*
D03*
X376500Y273992D02*
D03*
X389000Y273508D02*
D03*
X382984Y121492D02*
D03*
X374492Y112984D02*
D03*
X383000Y104492D02*
D03*
X391492Y113000D02*
D03*
X389484Y119000D02*
D03*
X376984Y119484D02*
D03*
X376500Y106984D02*
D03*
X389000Y106500D02*
D03*
X112000Y121492D02*
D03*
X103508Y112984D02*
D03*
X112016Y104492D02*
D03*
X120508Y113000D02*
D03*
X118500Y119000D02*
D03*
X106000Y119484D02*
D03*
X105516Y106984D02*
D03*
X118016Y106500D02*
D03*
Y273508D02*
D03*
X105516Y273992D02*
D03*
X106000Y286492D02*
D03*
X118500Y286008D02*
D03*
X120508Y280008D02*
D03*
X112016Y271500D02*
D03*
X103508Y279992D02*
D03*
X112000Y288500D02*
D03*
M02*
