G04 Layer_Physical_Order=1*
G04 Layer_Color=25308*
%FSLAX25Y25*%
%MOIN*%
G70*
G01*
G75*
%ADD10R,0.04331X0.05315*%
%ADD11R,0.04134X0.05709*%
G04:AMPARAMS|DCode=12|XSize=30mil|YSize=51.18mil|CornerRadius=7.5mil|HoleSize=0mil|Usage=FLASHONLY|Rotation=0.000|XOffset=0mil|YOffset=0mil|HoleType=Round|Shape=RoundedRectangle|*
%AMROUNDEDRECTD12*
21,1,0.03000,0.03618,0,0,0.0*
21,1,0.01500,0.05118,0,0,0.0*
1,1,0.01500,0.00750,-0.01809*
1,1,0.01500,-0.00750,-0.01809*
1,1,0.01500,-0.00750,0.01809*
1,1,0.01500,0.00750,0.01809*
%
%ADD12ROUNDEDRECTD12*%
%ADD13R,0.05315X0.04134*%
%ADD14R,0.05315X0.04331*%
%ADD15R,0.05118X0.01969*%
%ADD16R,0.05118X0.06890*%
%ADD17R,0.09055X0.08858*%
%ADD18R,0.05709X0.04134*%
%ADD19R,0.01500X0.05500*%
%ADD20R,0.04134X0.05315*%
%ADD21R,0.05500X0.08300*%
%ADD22R,0.07087X0.08268*%
%ADD23R,0.05118X0.00984*%
%ADD24R,0.00984X0.05118*%
%ADD25O,0.08071X0.02362*%
%ADD26O,0.05709X0.02165*%
%ADD27O,0.02165X0.05709*%
%ADD28R,0.03937X0.03937*%
%ADD29C,0.01000*%
%ADD30C,0.00900*%
%ADD31C,0.01201*%
%ADD32C,0.01181*%
%ADD33C,0.06299*%
%ADD34R,0.06299X0.06299*%
%ADD35O,0.11811X0.15748*%
%ADD36C,0.07087*%
%ADD37C,0.05906*%
%ADD38C,0.07000*%
%ADD39R,0.07000X0.07000*%
%ADD40C,0.23622*%
%ADD41C,0.02362*%
%ADD42C,0.05000*%
G36*
X396063Y100000D02*
X100000D01*
Y292913D01*
X396063D01*
Y100000D01*
D02*
G37*
%LPC*%
G36*
X344016Y120430D02*
X342998Y120296D01*
X342049Y119903D01*
X341234Y119278D01*
X340609Y118463D01*
X340216Y117514D01*
X340082Y116496D01*
X340216Y115478D01*
X340609Y114529D01*
X341234Y113715D01*
X342049Y113089D01*
X342998Y112697D01*
X344016Y112562D01*
X345034Y112697D01*
X345983Y113089D01*
X346797Y113715D01*
X347422Y114529D01*
X347815Y115478D01*
X347949Y116496D01*
X347815Y117514D01*
X347422Y118463D01*
X346797Y119278D01*
X345983Y119903D01*
X345034Y120296D01*
X344016Y120430D01*
D02*
G37*
G36*
X334016D02*
X332998Y120296D01*
X332049Y119903D01*
X331234Y119278D01*
X330609Y118463D01*
X330216Y117514D01*
X330082Y116496D01*
X330216Y115478D01*
X330609Y114529D01*
X331234Y113715D01*
X332049Y113089D01*
X332998Y112697D01*
X334016Y112562D01*
X335034Y112697D01*
X335983Y113089D01*
X336797Y113715D01*
X337422Y114529D01*
X337815Y115478D01*
X337949Y116496D01*
X337815Y117514D01*
X337422Y118463D01*
X336797Y119278D01*
X335983Y119903D01*
X335034Y120296D01*
X334016Y120430D01*
D02*
G37*
G36*
X324016D02*
X322998Y120296D01*
X322049Y119903D01*
X321234Y119278D01*
X320609Y118463D01*
X320216Y117514D01*
X320082Y116496D01*
X320216Y115478D01*
X320609Y114529D01*
X321234Y113715D01*
X322049Y113089D01*
X322998Y112697D01*
X324016Y112562D01*
X325034Y112697D01*
X325983Y113089D01*
X326797Y113715D01*
X327422Y114529D01*
X327815Y115478D01*
X327949Y116496D01*
X327815Y117514D01*
X327422Y118463D01*
X326797Y119278D01*
X325983Y119903D01*
X325034Y120296D01*
X324016Y120430D01*
D02*
G37*
G36*
X368000Y134382D02*
X367125Y134266D01*
X366309Y133929D01*
X365609Y133391D01*
X365071Y132691D01*
X364734Y131875D01*
X364618Y131000D01*
X364734Y130125D01*
X365071Y129309D01*
X365609Y128609D01*
X366309Y128071D01*
X367125Y127734D01*
X368000Y127618D01*
X368875Y127734D01*
X369691Y128071D01*
X370391Y128609D01*
X370929Y129309D01*
X371266Y130125D01*
X371382Y131000D01*
X371266Y131875D01*
X370929Y132691D01*
X370391Y133391D01*
X369691Y133929D01*
X368875Y134266D01*
X368000Y134382D01*
D02*
G37*
G36*
X358000D02*
X357125Y134266D01*
X356309Y133929D01*
X355609Y133391D01*
X355071Y132691D01*
X354734Y131875D01*
X354618Y131000D01*
X354734Y130125D01*
X355071Y129309D01*
X355609Y128609D01*
X356309Y128071D01*
X357125Y127734D01*
X358000Y127618D01*
X358875Y127734D01*
X359691Y128071D01*
X360391Y128609D01*
X360929Y129309D01*
X361266Y130125D01*
X361382Y131000D01*
X361266Y131875D01*
X360929Y132691D01*
X360391Y133391D01*
X359691Y133929D01*
X358875Y134266D01*
X358000Y134382D01*
D02*
G37*
G36*
X357916Y120396D02*
X350116D01*
Y112596D01*
X357916D01*
Y120396D01*
D02*
G37*
G36*
X314016Y120430D02*
X312998Y120296D01*
X312049Y119903D01*
X311234Y119278D01*
X310609Y118463D01*
X310216Y117514D01*
X310082Y116496D01*
X310216Y115478D01*
X310609Y114529D01*
X311234Y113715D01*
X312049Y113089D01*
X312998Y112697D01*
X314016Y112562D01*
X315034Y112697D01*
X315983Y113089D01*
X316797Y113715D01*
X317422Y114529D01*
X317815Y115478D01*
X317949Y116496D01*
X317815Y117514D01*
X317422Y118463D01*
X316797Y119278D01*
X315983Y119903D01*
X315034Y120296D01*
X314016Y120430D01*
D02*
G37*
G36*
X264016D02*
X262998Y120296D01*
X262049Y119903D01*
X261234Y119278D01*
X260609Y118463D01*
X260216Y117514D01*
X260082Y116496D01*
X260216Y115478D01*
X260609Y114529D01*
X261234Y113715D01*
X262049Y113089D01*
X262998Y112697D01*
X264016Y112562D01*
X265034Y112697D01*
X265983Y113089D01*
X266797Y113715D01*
X267422Y114529D01*
X267815Y115478D01*
X267949Y116496D01*
X267815Y117514D01*
X267422Y118463D01*
X266797Y119278D01*
X265983Y119903D01*
X265034Y120296D01*
X264016Y120430D01*
D02*
G37*
G36*
X254016D02*
X252998Y120296D01*
X252049Y119903D01*
X251234Y119278D01*
X250609Y118463D01*
X250216Y117514D01*
X250082Y116496D01*
X250216Y115478D01*
X250609Y114529D01*
X251234Y113715D01*
X252049Y113089D01*
X252998Y112697D01*
X254016Y112562D01*
X255034Y112697D01*
X255983Y113089D01*
X256797Y113715D01*
X257422Y114529D01*
X257815Y115478D01*
X257949Y116496D01*
X257815Y117514D01*
X257422Y118463D01*
X256797Y119278D01*
X255983Y119903D01*
X255034Y120296D01*
X254016Y120430D01*
D02*
G37*
G36*
X244016D02*
X242998Y120296D01*
X242049Y119903D01*
X241234Y119278D01*
X240609Y118463D01*
X240216Y117514D01*
X240082Y116496D01*
X240216Y115478D01*
X240609Y114529D01*
X241234Y113715D01*
X242049Y113089D01*
X242998Y112697D01*
X244016Y112562D01*
X245034Y112697D01*
X245983Y113089D01*
X246797Y113715D01*
X247422Y114529D01*
X247815Y115478D01*
X247949Y116496D01*
X247815Y117514D01*
X247422Y118463D01*
X246797Y119278D01*
X245983Y119903D01*
X245034Y120296D01*
X244016Y120430D01*
D02*
G37*
G36*
X294016D02*
X292998Y120296D01*
X292049Y119903D01*
X291234Y119278D01*
X290609Y118463D01*
X290216Y117514D01*
X290082Y116496D01*
X290216Y115478D01*
X290609Y114529D01*
X291234Y113715D01*
X292049Y113089D01*
X292998Y112697D01*
X294016Y112562D01*
X295034Y112697D01*
X295983Y113089D01*
X296797Y113715D01*
X297422Y114529D01*
X297815Y115478D01*
X297949Y116496D01*
X297815Y117514D01*
X297422Y118463D01*
X296797Y119278D01*
X295983Y119903D01*
X295034Y120296D01*
X294016Y120430D01*
D02*
G37*
G36*
X284016D02*
X282998Y120296D01*
X282049Y119903D01*
X281234Y119278D01*
X280609Y118463D01*
X280216Y117514D01*
X280082Y116496D01*
X280216Y115478D01*
X280609Y114529D01*
X281234Y113715D01*
X282049Y113089D01*
X282998Y112697D01*
X284016Y112562D01*
X285034Y112697D01*
X285983Y113089D01*
X286797Y113715D01*
X287422Y114529D01*
X287815Y115478D01*
X287949Y116496D01*
X287815Y117514D01*
X287422Y118463D01*
X286797Y119278D01*
X285983Y119903D01*
X285034Y120296D01*
X284016Y120430D01*
D02*
G37*
G36*
X274016D02*
X272998Y120296D01*
X272049Y119903D01*
X271234Y119278D01*
X270609Y118463D01*
X270216Y117514D01*
X270082Y116496D01*
X270216Y115478D01*
X270609Y114529D01*
X271234Y113715D01*
X272049Y113089D01*
X272998Y112697D01*
X274016Y112562D01*
X275034Y112697D01*
X275983Y113089D01*
X276797Y113715D01*
X277422Y114529D01*
X277815Y115478D01*
X277949Y116496D01*
X277815Y117514D01*
X277422Y118463D01*
X276797Y119278D01*
X275983Y119903D01*
X275034Y120296D01*
X274016Y120430D01*
D02*
G37*
G36*
X293500Y166112D02*
X292883Y165989D01*
X292360Y165640D01*
X292212Y165418D01*
X291532D01*
X291384Y165640D01*
X290861Y165989D01*
X290244Y166112D01*
X284535D01*
X283918Y165989D01*
X283396Y165640D01*
X283046Y165117D01*
X282923Y164500D01*
X283046Y163883D01*
X283396Y163360D01*
X283918Y163011D01*
X284535Y162888D01*
X290244D01*
X290861Y163011D01*
X291384Y163360D01*
X291532Y163582D01*
X292212D01*
X292360Y163360D01*
X292883Y163011D01*
X293500Y162888D01*
X294117Y163011D01*
X294640Y163360D01*
X294989Y163883D01*
X295112Y164500D01*
X294989Y165117D01*
X294640Y165640D01*
X294117Y165989D01*
X293500Y166112D01*
D02*
G37*
G36*
X168020Y169977D02*
X166990Y169842D01*
X166031Y169445D01*
X165207Y168812D01*
X164575Y167989D01*
X164178Y167029D01*
X164042Y166000D01*
X164178Y164971D01*
X164575Y164011D01*
X165207Y163188D01*
X166031Y162556D01*
X166990Y162158D01*
X168020Y162023D01*
X169049Y162158D01*
X170008Y162556D01*
X170832Y163188D01*
X171464Y164011D01*
X171862Y164971D01*
X171997Y166000D01*
X171862Y167029D01*
X171464Y167989D01*
X170832Y168812D01*
X170008Y169445D01*
X169049Y169842D01*
X168020Y169977D01*
D02*
G37*
G36*
X330500Y161112D02*
X329883Y160989D01*
X329360Y160640D01*
X329177Y160367D01*
X327787D01*
X327605Y160640D01*
X327081Y160989D01*
X326465Y161112D01*
X320756D01*
X320139Y160989D01*
X319616Y160640D01*
X319267Y160117D01*
X319144Y159500D01*
X319267Y158883D01*
X319616Y158360D01*
X320139Y158011D01*
X320756Y157888D01*
X326465D01*
X327081Y158011D01*
X327605Y158360D01*
X327787Y158633D01*
X329177D01*
X329360Y158360D01*
X329883Y158011D01*
X330500Y157888D01*
X331117Y158011D01*
X331640Y158360D01*
X331989Y158883D01*
X332112Y159500D01*
X331989Y160117D01*
X331640Y160640D01*
X331117Y160989D01*
X330500Y161112D01*
D02*
G37*
G36*
X331000Y177612D02*
X330383Y177489D01*
X329860Y177140D01*
X329605Y176759D01*
X329387Y176613D01*
X329199Y176332D01*
X329133Y176000D01*
Y172359D01*
X327490Y170716D01*
X327081Y170989D01*
X326465Y171112D01*
X320756D01*
X320139Y170989D01*
X319616Y170640D01*
X319267Y170117D01*
X319144Y169500D01*
X319267Y168883D01*
X319616Y168360D01*
X320139Y168011D01*
X320756Y167888D01*
X326465D01*
X327081Y168011D01*
X327605Y168360D01*
X327831Y168699D01*
X327832Y168699D01*
X328113Y168887D01*
X330613Y171387D01*
X330801Y171668D01*
X330812Y171723D01*
X330867Y172000D01*
Y174278D01*
X331000Y174388D01*
X331617Y174511D01*
X332140Y174860D01*
X332489Y175383D01*
X332612Y176000D01*
X332489Y176617D01*
X332140Y177140D01*
X331617Y177489D01*
X331000Y177612D01*
D02*
G37*
G36*
X178020Y174977D02*
X176990Y174842D01*
X176031Y174444D01*
X175207Y173812D01*
X174575Y172989D01*
X174178Y172029D01*
X174042Y171000D01*
X174178Y169971D01*
X174575Y169011D01*
X175207Y168188D01*
X176031Y167555D01*
X176990Y167158D01*
X178020Y167023D01*
X179049Y167158D01*
X180008Y167555D01*
X180832Y168188D01*
X181464Y169011D01*
X181861Y169971D01*
X181997Y171000D01*
X181861Y172029D01*
X181464Y172989D01*
X180832Y173812D01*
X180008Y174444D01*
X179049Y174842D01*
X178020Y174977D01*
D02*
G37*
G36*
X331000Y169112D02*
X330383Y168989D01*
X329860Y168640D01*
X329511Y168117D01*
X329388Y167500D01*
X329452Y167178D01*
X327887Y165612D01*
X327605Y165640D01*
X327081Y165989D01*
X326465Y166112D01*
X320756D01*
X320139Y165989D01*
X319616Y165640D01*
X319267Y165117D01*
X319144Y164500D01*
X319267Y163883D01*
X319616Y163360D01*
X320139Y163011D01*
X320756Y162888D01*
X326465D01*
X327081Y163011D01*
X327605Y163360D01*
X327787Y163633D01*
X328000D01*
X328332Y163699D01*
X328613Y163887D01*
X330678Y165952D01*
X331000Y165888D01*
X331617Y166011D01*
X332140Y166360D01*
X332489Y166883D01*
X332612Y167500D01*
X332489Y168117D01*
X332140Y168640D01*
X331617Y168989D01*
X331000Y169112D01*
D02*
G37*
G36*
X388000Y165882D02*
X387125Y165767D01*
X386309Y165429D01*
X385609Y164891D01*
X385071Y164191D01*
X384734Y163375D01*
X384618Y162500D01*
X384734Y161625D01*
X385071Y160809D01*
X385609Y160109D01*
X386309Y159571D01*
X387125Y159233D01*
X388000Y159118D01*
X388875Y159233D01*
X389691Y159571D01*
X390391Y160109D01*
X390929Y160809D01*
X391266Y161625D01*
X391382Y162500D01*
X391266Y163375D01*
X390929Y164191D01*
X390391Y164891D01*
X389691Y165429D01*
X388875Y165767D01*
X388000Y165882D01*
D02*
G37*
G36*
X326465Y151112D02*
X320756D01*
X320139Y150989D01*
X319616Y150640D01*
X319267Y150117D01*
X319144Y149500D01*
X319267Y148883D01*
X319616Y148360D01*
X320139Y148011D01*
X320756Y147888D01*
X326386D01*
X330270Y144005D01*
X330011Y143617D01*
X329895Y143037D01*
X329751Y142945D01*
X329416Y142810D01*
X328018Y144207D01*
X328077Y144500D01*
X327954Y145117D01*
X327605Y145640D01*
X327081Y145989D01*
X326465Y146112D01*
X320756D01*
X320139Y145989D01*
X319616Y145640D01*
X319267Y145117D01*
X319144Y144500D01*
X319267Y143883D01*
X319616Y143360D01*
X320139Y143011D01*
X320756Y142888D01*
X326465D01*
X326817Y142958D01*
X330633Y139141D01*
Y137322D01*
X330360Y137140D01*
X330011Y136617D01*
X329888Y136000D01*
X330011Y135383D01*
X330360Y134860D01*
X330883Y134511D01*
X331500Y134388D01*
X332117Y134511D01*
X332640Y134860D01*
X332989Y135383D01*
X333112Y136000D01*
X332989Y136617D01*
X332640Y137140D01*
X332367Y137322D01*
Y139500D01*
X332301Y139832D01*
X332113Y140113D01*
X331310Y140916D01*
X331445Y141251D01*
X331537Y141395D01*
X332117Y141511D01*
X332640Y141860D01*
X332989Y142383D01*
X333112Y143000D01*
X332989Y143617D01*
X332640Y144140D01*
X332259Y144395D01*
X332238Y144425D01*
X332113Y144613D01*
X327909Y148816D01*
X327954Y148883D01*
X328077Y149500D01*
X327954Y150117D01*
X327605Y150640D01*
X327081Y150989D01*
X326465Y151112D01*
D02*
G37*
G36*
X197035Y140981D02*
X196006Y140846D01*
X195047Y140448D01*
X194223Y139816D01*
X193591Y138993D01*
X193194Y138033D01*
X193058Y137004D01*
X193194Y135975D01*
X193591Y135015D01*
X194223Y134192D01*
X195047Y133560D01*
X196006Y133162D01*
X197035Y133027D01*
X198065Y133162D01*
X199024Y133560D01*
X199848Y134192D01*
X200480Y135015D01*
X200877Y135975D01*
X201013Y137004D01*
X200877Y138033D01*
X200480Y138993D01*
X199848Y139816D01*
X199024Y140448D01*
X198065Y140846D01*
X197035Y140981D01*
D02*
G37*
G36*
X388000Y134382D02*
X387125Y134266D01*
X386309Y133929D01*
X385609Y133391D01*
X385071Y132691D01*
X384734Y131875D01*
X384618Y131000D01*
X384734Y130125D01*
X385071Y129309D01*
X385609Y128609D01*
X386309Y128071D01*
X387125Y127734D01*
X388000Y127618D01*
X388875Y127734D01*
X389691Y128071D01*
X390391Y128609D01*
X390929Y129309D01*
X391266Y130125D01*
X391382Y131000D01*
X391266Y131875D01*
X390929Y132691D01*
X390391Y133391D01*
X389691Y133929D01*
X388875Y134266D01*
X388000Y134382D01*
D02*
G37*
G36*
X290244Y151112D02*
X284535D01*
X283918Y150989D01*
X283634Y150800D01*
X283268Y150681D01*
X282901Y150800D01*
X282617Y150989D01*
X282000Y151112D01*
X281383Y150989D01*
X280860Y150640D01*
X280511Y150117D01*
X280388Y149500D01*
X280511Y148883D01*
X280860Y148360D01*
X281383Y148011D01*
X282000Y147888D01*
X282617Y148011D01*
X282901Y148200D01*
X283268Y148319D01*
X283634Y148200D01*
X283918Y148011D01*
X284535Y147888D01*
X290244D01*
X290861Y148011D01*
X291384Y148360D01*
X291734Y148883D01*
X291856Y149500D01*
X291734Y150117D01*
X291384Y150640D01*
X290861Y150989D01*
X290244Y151112D01*
D02*
G37*
G36*
X326465Y156112D02*
X320756D01*
X320139Y155989D01*
X319616Y155640D01*
X319267Y155117D01*
X319144Y154500D01*
X319267Y153883D01*
X319616Y153360D01*
X320139Y153011D01*
X320756Y152888D01*
X326465D01*
X327081Y153011D01*
X327605Y153360D01*
X327887Y153388D01*
X329452Y151822D01*
X329388Y151500D01*
X329511Y150883D01*
X329860Y150360D01*
X330383Y150011D01*
X331000Y149888D01*
X331617Y150011D01*
X332140Y150360D01*
X332489Y150883D01*
X332612Y151500D01*
X332489Y152117D01*
X332140Y152640D01*
X331617Y152989D01*
X331000Y153112D01*
X330678Y153048D01*
X328613Y155113D01*
X328332Y155301D01*
X328000Y155367D01*
X327787D01*
X327605Y155640D01*
X327081Y155989D01*
X326465Y156112D01*
D02*
G37*
G36*
X178020Y154977D02*
X176990Y154842D01*
X176031Y154445D01*
X175207Y153812D01*
X174575Y152989D01*
X174178Y152029D01*
X174042Y151000D01*
X174178Y149971D01*
X174575Y149011D01*
X175207Y148188D01*
X176031Y147555D01*
X176990Y147158D01*
X178020Y147023D01*
X179049Y147158D01*
X180008Y147555D01*
X180832Y148188D01*
X181464Y149011D01*
X181861Y149971D01*
X181997Y151000D01*
X181861Y152029D01*
X181464Y152989D01*
X180832Y153812D01*
X180008Y154445D01*
X179049Y154842D01*
X178020Y154977D01*
D02*
G37*
G36*
X264016Y110430D02*
X262998Y110296D01*
X262049Y109903D01*
X261234Y109278D01*
X260609Y108463D01*
X260216Y107514D01*
X260082Y106496D01*
X260216Y105478D01*
X260609Y104529D01*
X261234Y103715D01*
X262049Y103089D01*
X262998Y102697D01*
X264016Y102562D01*
X265034Y102697D01*
X265983Y103089D01*
X266797Y103715D01*
X267422Y104529D01*
X267815Y105478D01*
X267949Y106496D01*
X267815Y107514D01*
X267422Y108463D01*
X266797Y109278D01*
X265983Y109903D01*
X265034Y110296D01*
X264016Y110430D01*
D02*
G37*
G36*
X254016D02*
X252998Y110296D01*
X252049Y109903D01*
X251234Y109278D01*
X250609Y108463D01*
X250216Y107514D01*
X250082Y106496D01*
X250216Y105478D01*
X250609Y104529D01*
X251234Y103715D01*
X252049Y103089D01*
X252998Y102697D01*
X254016Y102562D01*
X255034Y102697D01*
X255983Y103089D01*
X256797Y103715D01*
X257422Y104529D01*
X257815Y105478D01*
X257949Y106496D01*
X257815Y107514D01*
X257422Y108463D01*
X256797Y109278D01*
X255983Y109903D01*
X255034Y110296D01*
X254016Y110430D01*
D02*
G37*
G36*
X244016D02*
X242998Y110296D01*
X242049Y109903D01*
X241234Y109278D01*
X240609Y108463D01*
X240216Y107514D01*
X240082Y106496D01*
X240216Y105478D01*
X240609Y104529D01*
X241234Y103715D01*
X242049Y103089D01*
X242998Y102697D01*
X244016Y102562D01*
X245034Y102697D01*
X245983Y103089D01*
X246797Y103715D01*
X247422Y104529D01*
X247815Y105478D01*
X247949Y106496D01*
X247815Y107514D01*
X247422Y108463D01*
X246797Y109278D01*
X245983Y109903D01*
X245034Y110296D01*
X244016Y110430D01*
D02*
G37*
G36*
X294016D02*
X292998Y110296D01*
X292049Y109903D01*
X291234Y109278D01*
X290609Y108463D01*
X290216Y107514D01*
X290082Y106496D01*
X290216Y105478D01*
X290609Y104529D01*
X291234Y103715D01*
X292049Y103089D01*
X292998Y102697D01*
X294016Y102562D01*
X295034Y102697D01*
X295983Y103089D01*
X296797Y103715D01*
X297422Y104529D01*
X297815Y105478D01*
X297949Y106496D01*
X297815Y107514D01*
X297422Y108463D01*
X296797Y109278D01*
X295983Y109903D01*
X295034Y110296D01*
X294016Y110430D01*
D02*
G37*
G36*
X284016D02*
X282998Y110296D01*
X282049Y109903D01*
X281234Y109278D01*
X280609Y108463D01*
X280216Y107514D01*
X280082Y106496D01*
X280216Y105478D01*
X280609Y104529D01*
X281234Y103715D01*
X282049Y103089D01*
X282998Y102697D01*
X284016Y102562D01*
X285034Y102697D01*
X285983Y103089D01*
X286797Y103715D01*
X287422Y104529D01*
X287815Y105478D01*
X287949Y106496D01*
X287815Y107514D01*
X287422Y108463D01*
X286797Y109278D01*
X285983Y109903D01*
X285034Y110296D01*
X284016Y110430D01*
D02*
G37*
G36*
X274016D02*
X272998Y110296D01*
X272049Y109903D01*
X271234Y109278D01*
X270609Y108463D01*
X270216Y107514D01*
X270082Y106496D01*
X270216Y105478D01*
X270609Y104529D01*
X271234Y103715D01*
X272049Y103089D01*
X272998Y102697D01*
X274016Y102562D01*
X275034Y102697D01*
X275983Y103089D01*
X276797Y103715D01*
X277422Y104529D01*
X277815Y105478D01*
X277949Y106496D01*
X277815Y107514D01*
X277422Y108463D01*
X276797Y109278D01*
X275983Y109903D01*
X275034Y110296D01*
X274016Y110430D01*
D02*
G37*
G36*
X234016D02*
X232998Y110296D01*
X232049Y109903D01*
X231234Y109278D01*
X230609Y108463D01*
X230216Y107514D01*
X230082Y106496D01*
X230216Y105478D01*
X230609Y104529D01*
X231234Y103715D01*
X232049Y103089D01*
X232998Y102697D01*
X234016Y102562D01*
X235034Y102697D01*
X235983Y103089D01*
X236797Y103715D01*
X237422Y104529D01*
X237815Y105478D01*
X237949Y106496D01*
X237815Y107514D01*
X237422Y108463D01*
X236797Y109278D01*
X235983Y109903D01*
X235034Y110296D01*
X234016Y110430D01*
D02*
G37*
G36*
X184016D02*
X182998Y110296D01*
X182049Y109903D01*
X181234Y109278D01*
X180609Y108463D01*
X180216Y107514D01*
X180082Y106496D01*
X180216Y105478D01*
X180609Y104529D01*
X181234Y103715D01*
X182049Y103089D01*
X182998Y102697D01*
X184016Y102562D01*
X185034Y102697D01*
X185983Y103089D01*
X186797Y103715D01*
X187422Y104529D01*
X187815Y105478D01*
X187949Y106496D01*
X187815Y107514D01*
X187422Y108463D01*
X186797Y109278D01*
X185983Y109903D01*
X185034Y110296D01*
X184016Y110430D01*
D02*
G37*
G36*
X174016D02*
X172998Y110296D01*
X172049Y109903D01*
X171234Y109278D01*
X170609Y108463D01*
X170216Y107514D01*
X170082Y106496D01*
X170216Y105478D01*
X170609Y104529D01*
X171234Y103715D01*
X172049Y103089D01*
X172998Y102697D01*
X174016Y102562D01*
X175034Y102697D01*
X175983Y103089D01*
X176797Y103715D01*
X177422Y104529D01*
X177815Y105478D01*
X177949Y106496D01*
X177815Y107514D01*
X177422Y108463D01*
X176797Y109278D01*
X175983Y109903D01*
X175034Y110296D01*
X174016Y110430D01*
D02*
G37*
G36*
X164016D02*
X162998Y110296D01*
X162049Y109903D01*
X161234Y109278D01*
X160609Y108463D01*
X160216Y107514D01*
X160082Y106496D01*
X160216Y105478D01*
X160609Y104529D01*
X161234Y103715D01*
X162049Y103089D01*
X162998Y102697D01*
X164016Y102562D01*
X165034Y102697D01*
X165983Y103089D01*
X166797Y103715D01*
X167422Y104529D01*
X167815Y105478D01*
X167949Y106496D01*
X167815Y107514D01*
X167422Y108463D01*
X166797Y109278D01*
X165983Y109903D01*
X165034Y110296D01*
X164016Y110430D01*
D02*
G37*
G36*
X224016D02*
X222998Y110296D01*
X222049Y109903D01*
X221234Y109278D01*
X220609Y108463D01*
X220216Y107514D01*
X220082Y106496D01*
X220216Y105478D01*
X220609Y104529D01*
X221234Y103715D01*
X222049Y103089D01*
X222998Y102697D01*
X224016Y102562D01*
X225034Y102697D01*
X225983Y103089D01*
X226797Y103715D01*
X227422Y104529D01*
X227815Y105478D01*
X227949Y106496D01*
X227815Y107514D01*
X227422Y108463D01*
X226797Y109278D01*
X225983Y109903D01*
X225034Y110296D01*
X224016Y110430D01*
D02*
G37*
G36*
X204016D02*
X202998Y110296D01*
X202049Y109903D01*
X201234Y109278D01*
X200609Y108463D01*
X200216Y107514D01*
X200082Y106496D01*
X200216Y105478D01*
X200609Y104529D01*
X201234Y103715D01*
X202049Y103089D01*
X202998Y102697D01*
X204016Y102562D01*
X205034Y102697D01*
X205983Y103089D01*
X206797Y103715D01*
X207422Y104529D01*
X207815Y105478D01*
X207949Y106496D01*
X207815Y107514D01*
X207422Y108463D01*
X206797Y109278D01*
X205983Y109903D01*
X205034Y110296D01*
X204016Y110430D01*
D02*
G37*
G36*
X194016D02*
X192998Y110296D01*
X192049Y109903D01*
X191234Y109278D01*
X190609Y108463D01*
X190216Y107514D01*
X190082Y106496D01*
X190216Y105478D01*
X190609Y104529D01*
X191234Y103715D01*
X192049Y103089D01*
X192998Y102697D01*
X194016Y102562D01*
X195034Y102697D01*
X195983Y103089D01*
X196797Y103715D01*
X197422Y104529D01*
X197815Y105478D01*
X197949Y106496D01*
X197815Y107514D01*
X197422Y108463D01*
X196797Y109278D01*
X195983Y109903D01*
X195034Y110296D01*
X194016Y110430D01*
D02*
G37*
G36*
Y120430D02*
X192998Y120296D01*
X192049Y119903D01*
X191234Y119278D01*
X190609Y118463D01*
X190216Y117514D01*
X190082Y116496D01*
X190216Y115478D01*
X190609Y114529D01*
X191234Y113715D01*
X192049Y113089D01*
X192998Y112697D01*
X194016Y112562D01*
X195034Y112697D01*
X195983Y113089D01*
X196797Y113715D01*
X197422Y114529D01*
X197815Y115478D01*
X197949Y116496D01*
X197815Y117514D01*
X197422Y118463D01*
X196797Y119278D01*
X195983Y119903D01*
X195034Y120296D01*
X194016Y120430D01*
D02*
G37*
G36*
X184016D02*
X182998Y120296D01*
X182049Y119903D01*
X181234Y119278D01*
X180609Y118463D01*
X180216Y117514D01*
X180082Y116496D01*
X180216Y115478D01*
X180609Y114529D01*
X181234Y113715D01*
X182049Y113089D01*
X182998Y112697D01*
X184016Y112562D01*
X185034Y112697D01*
X185983Y113089D01*
X186797Y113715D01*
X187422Y114529D01*
X187815Y115478D01*
X187949Y116496D01*
X187815Y117514D01*
X187422Y118463D01*
X186797Y119278D01*
X185983Y119903D01*
X185034Y120296D01*
X184016Y120430D01*
D02*
G37*
G36*
X174016D02*
X172998Y120296D01*
X172049Y119903D01*
X171234Y119278D01*
X170609Y118463D01*
X170216Y117514D01*
X170082Y116496D01*
X170216Y115478D01*
X170609Y114529D01*
X171234Y113715D01*
X172049Y113089D01*
X172998Y112697D01*
X174016Y112562D01*
X175034Y112697D01*
X175983Y113089D01*
X176797Y113715D01*
X177422Y114529D01*
X177815Y115478D01*
X177949Y116496D01*
X177815Y117514D01*
X177422Y118463D01*
X176797Y119278D01*
X175983Y119903D01*
X175034Y120296D01*
X174016Y120430D01*
D02*
G37*
G36*
X234016D02*
X232998Y120296D01*
X232049Y119903D01*
X231234Y119278D01*
X230609Y118463D01*
X230216Y117514D01*
X230082Y116496D01*
X230216Y115478D01*
X230609Y114529D01*
X231234Y113715D01*
X232049Y113089D01*
X232998Y112697D01*
X234016Y112562D01*
X235034Y112697D01*
X235983Y113089D01*
X236797Y113715D01*
X237422Y114529D01*
X237815Y115478D01*
X237949Y116496D01*
X237815Y117514D01*
X237422Y118463D01*
X236797Y119278D01*
X235983Y119903D01*
X235034Y120296D01*
X234016Y120430D01*
D02*
G37*
G36*
X224016D02*
X222998Y120296D01*
X222049Y119903D01*
X221234Y119278D01*
X220609Y118463D01*
X220216Y117514D01*
X220082Y116496D01*
X220216Y115478D01*
X220609Y114529D01*
X221234Y113715D01*
X222049Y113089D01*
X222998Y112697D01*
X224016Y112562D01*
X225034Y112697D01*
X225983Y113089D01*
X226797Y113715D01*
X227422Y114529D01*
X227815Y115478D01*
X227949Y116496D01*
X227815Y117514D01*
X227422Y118463D01*
X226797Y119278D01*
X225983Y119903D01*
X225034Y120296D01*
X224016Y120430D01*
D02*
G37*
G36*
X204016D02*
X202998Y120296D01*
X202049Y119903D01*
X201234Y119278D01*
X200609Y118463D01*
X200216Y117514D01*
X200082Y116496D01*
X200216Y115478D01*
X200609Y114529D01*
X201234Y113715D01*
X202049Y113089D01*
X202998Y112697D01*
X204016Y112562D01*
X205034Y112697D01*
X205983Y113089D01*
X206797Y113715D01*
X207422Y114529D01*
X207815Y115478D01*
X207949Y116496D01*
X207815Y117514D01*
X207422Y118463D01*
X206797Y119278D01*
X205983Y119903D01*
X205034Y120296D01*
X204016Y120430D01*
D02*
G37*
G36*
X164016D02*
X162998Y120296D01*
X162049Y119903D01*
X161234Y119278D01*
X160609Y118463D01*
X160216Y117514D01*
X160082Y116496D01*
X160216Y115478D01*
X160609Y114529D01*
X161234Y113715D01*
X162049Y113089D01*
X162998Y112697D01*
X164016Y112562D01*
X165034Y112697D01*
X165983Y113089D01*
X166797Y113715D01*
X167422Y114529D01*
X167815Y115478D01*
X167949Y116496D01*
X167815Y117514D01*
X167422Y118463D01*
X166797Y119278D01*
X165983Y119903D01*
X165034Y120296D01*
X164016Y120430D01*
D02*
G37*
G36*
X334016Y110430D02*
X332998Y110296D01*
X332049Y109903D01*
X331234Y109278D01*
X330609Y108463D01*
X330216Y107514D01*
X330082Y106496D01*
X330216Y105478D01*
X330609Y104529D01*
X331234Y103715D01*
X332049Y103089D01*
X332998Y102697D01*
X334016Y102562D01*
X335034Y102697D01*
X335983Y103089D01*
X336797Y103715D01*
X337422Y104529D01*
X337815Y105478D01*
X337949Y106496D01*
X337815Y107514D01*
X337422Y108463D01*
X336797Y109278D01*
X335983Y109903D01*
X335034Y110296D01*
X334016Y110430D01*
D02*
G37*
G36*
X324016D02*
X322998Y110296D01*
X322049Y109903D01*
X321234Y109278D01*
X320609Y108463D01*
X320216Y107514D01*
X320082Y106496D01*
X320216Y105478D01*
X320609Y104529D01*
X321234Y103715D01*
X322049Y103089D01*
X322998Y102697D01*
X324016Y102562D01*
X325034Y102697D01*
X325983Y103089D01*
X326797Y103715D01*
X327422Y104529D01*
X327815Y105478D01*
X327949Y106496D01*
X327815Y107514D01*
X327422Y108463D01*
X326797Y109278D01*
X325983Y109903D01*
X325034Y110296D01*
X324016Y110430D01*
D02*
G37*
G36*
X314016D02*
X312998Y110296D01*
X312049Y109903D01*
X311234Y109278D01*
X310609Y108463D01*
X310216Y107514D01*
X310082Y106496D01*
X310216Y105478D01*
X310609Y104529D01*
X311234Y103715D01*
X312049Y103089D01*
X312998Y102697D01*
X314016Y102562D01*
X315034Y102697D01*
X315983Y103089D01*
X316797Y103715D01*
X317422Y104529D01*
X317815Y105478D01*
X317949Y106496D01*
X317815Y107514D01*
X317422Y108463D01*
X316797Y109278D01*
X315983Y109903D01*
X315034Y110296D01*
X314016Y110430D01*
D02*
G37*
G36*
X141175Y117804D02*
X125419D01*
Y109919D01*
X141175D01*
Y117804D01*
D02*
G37*
G36*
X354016Y110430D02*
X352998Y110296D01*
X352049Y109903D01*
X351234Y109278D01*
X350609Y108463D01*
X350216Y107514D01*
X350082Y106496D01*
X350216Y105478D01*
X350609Y104529D01*
X351234Y103715D01*
X352049Y103089D01*
X352998Y102697D01*
X354016Y102562D01*
X355034Y102697D01*
X355983Y103089D01*
X356797Y103715D01*
X357422Y104529D01*
X357815Y105478D01*
X357949Y106496D01*
X357815Y107514D01*
X357422Y108463D01*
X356797Y109278D01*
X355983Y109903D01*
X355034Y110296D01*
X354016Y110430D01*
D02*
G37*
G36*
X344016D02*
X342998Y110296D01*
X342049Y109903D01*
X341234Y109278D01*
X340609Y108463D01*
X340216Y107514D01*
X340082Y106496D01*
X340216Y105478D01*
X340609Y104529D01*
X341234Y103715D01*
X342049Y103089D01*
X342998Y102697D01*
X344016Y102562D01*
X345034Y102697D01*
X345983Y103089D01*
X346797Y103715D01*
X347422Y104529D01*
X347815Y105478D01*
X347949Y106496D01*
X347815Y107514D01*
X347422Y108463D01*
X346797Y109278D01*
X345983Y109903D01*
X345034Y110296D01*
X344016Y110430D01*
D02*
G37*
G36*
X324016Y280942D02*
X322998Y280807D01*
X322049Y280415D01*
X321234Y279789D01*
X320609Y278975D01*
X320216Y278026D01*
X320082Y277008D01*
X320216Y275990D01*
X320609Y275041D01*
X321234Y274226D01*
X322049Y273601D01*
X322998Y273208D01*
X323098Y273195D01*
Y261896D01*
X320851Y259649D01*
X320652Y259351D01*
X320582Y259000D01*
Y254288D01*
X320360Y254140D01*
X320011Y253617D01*
X319888Y253000D01*
X320011Y252383D01*
X320360Y251860D01*
X320883Y251511D01*
X321500Y251388D01*
X322117Y251511D01*
X322640Y251860D01*
X322989Y252383D01*
X323112Y253000D01*
X322989Y253617D01*
X322640Y254140D01*
X322418Y254288D01*
Y258620D01*
X324665Y260867D01*
X324864Y261165D01*
X324933Y261516D01*
Y273195D01*
X325034Y273208D01*
X325983Y273601D01*
X326797Y274226D01*
X327422Y275041D01*
X327815Y275990D01*
X327949Y277008D01*
X327815Y278026D01*
X327422Y278975D01*
X326797Y279789D01*
X325983Y280415D01*
X325034Y280807D01*
X324016Y280942D01*
D02*
G37*
G36*
X194016Y290942D02*
X192998Y290808D01*
X192049Y290415D01*
X191234Y289789D01*
X190609Y288975D01*
X190216Y288026D01*
X190082Y287008D01*
X190216Y285990D01*
X190609Y285041D01*
X191234Y284226D01*
X192049Y283601D01*
X192998Y283208D01*
X194016Y283074D01*
X195034Y283208D01*
X195983Y283601D01*
X196797Y284226D01*
X197422Y285041D01*
X197815Y285990D01*
X197949Y287008D01*
X197815Y288026D01*
X197422Y288975D01*
X196797Y289789D01*
X195983Y290415D01*
X195034Y290808D01*
X194016Y290942D01*
D02*
G37*
G36*
X184016D02*
X182998Y290808D01*
X182049Y290415D01*
X181234Y289789D01*
X180609Y288975D01*
X180216Y288026D01*
X180082Y287008D01*
X180216Y285990D01*
X180609Y285041D01*
X181234Y284226D01*
X182049Y283601D01*
X182998Y283208D01*
X184016Y283074D01*
X185034Y283208D01*
X185983Y283601D01*
X186797Y284226D01*
X187422Y285041D01*
X187815Y285990D01*
X187949Y287008D01*
X187815Y288026D01*
X187422Y288975D01*
X186797Y289789D01*
X185983Y290415D01*
X185034Y290808D01*
X184016Y290942D01*
D02*
G37*
G36*
X164016D02*
X162998Y290808D01*
X162049Y290415D01*
X161234Y289789D01*
X160609Y288975D01*
X160216Y288026D01*
X160082Y287008D01*
X160216Y285990D01*
X160609Y285041D01*
X161234Y284226D01*
X162049Y283601D01*
X162998Y283208D01*
X164016Y283074D01*
X165034Y283208D01*
X165983Y283601D01*
X166797Y284226D01*
X167422Y285041D01*
X167815Y285990D01*
X167949Y287008D01*
X167815Y288026D01*
X167422Y288975D01*
X166797Y289789D01*
X165983Y290415D01*
X165034Y290808D01*
X164016Y290942D01*
D02*
G37*
G36*
X174016D02*
X172998Y290808D01*
X172049Y290415D01*
X171234Y289789D01*
X170609Y288975D01*
X170216Y288026D01*
X170082Y287008D01*
X170216Y285990D01*
X170609Y285041D01*
X171234Y284226D01*
X172049Y283601D01*
X172998Y283208D01*
X174016Y283074D01*
X175034Y283208D01*
X175983Y283601D01*
X176797Y284226D01*
X177422Y285041D01*
X177815Y285990D01*
X177949Y287008D01*
X177815Y288026D01*
X177422Y288975D01*
X176797Y289789D01*
X175983Y290415D01*
X175034Y290808D01*
X174016Y290942D01*
D02*
G37*
G36*
X288500Y226612D02*
X287883Y226489D01*
X287360Y226140D01*
X287212Y225918D01*
X283788D01*
X283640Y226140D01*
X283117Y226489D01*
X282500Y226612D01*
X281883Y226489D01*
X281360Y226140D01*
X281011Y225617D01*
X280888Y225000D01*
X281011Y224383D01*
X281360Y223860D01*
X281883Y223511D01*
X282500Y223388D01*
X283117Y223511D01*
X283640Y223860D01*
X283788Y224082D01*
X287212D01*
X287360Y223860D01*
X287883Y223511D01*
X288500Y223388D01*
X289117Y223511D01*
X289640Y223860D01*
X289989Y224383D01*
X290112Y225000D01*
X289989Y225617D01*
X289640Y226140D01*
X289117Y226489D01*
X288500Y226612D01*
D02*
G37*
G36*
X314016Y290942D02*
X312998Y290808D01*
X312049Y290415D01*
X311234Y289789D01*
X310609Y288975D01*
X310216Y288026D01*
X310082Y287008D01*
X310216Y285990D01*
X310609Y285041D01*
X311102Y284399D01*
X308351Y281649D01*
X308152Y281351D01*
X308082Y281000D01*
Y278688D01*
X307582Y278589D01*
X307422Y278975D01*
X306797Y279789D01*
X305983Y280415D01*
X305034Y280807D01*
X304016Y280942D01*
X302998Y280807D01*
X302049Y280415D01*
X301234Y279789D01*
X300609Y278975D01*
X300216Y278026D01*
X300082Y277008D01*
X300216Y275990D01*
X300609Y275041D01*
X301234Y274226D01*
X302049Y273601D01*
X302998Y273208D01*
X303130Y273191D01*
Y271058D01*
X301580D01*
Y270391D01*
X301194Y270074D01*
X301000Y270112D01*
X300383Y269989D01*
X299860Y269640D01*
X299712Y269418D01*
X282190D01*
X282042Y269640D01*
X281519Y269989D01*
X280902Y270112D01*
X280285Y269989D01*
X279762Y269640D01*
X279613Y269418D01*
X260821D01*
Y271557D01*
X255809D01*
X255691Y271557D01*
X255500D01*
X255309D01*
X255190Y271557D01*
X250984D01*
X249393Y273149D01*
X249095Y273348D01*
X248744Y273418D01*
X246565D01*
X246395Y273918D01*
X246797Y274226D01*
X247422Y275041D01*
X247815Y275990D01*
X247949Y277008D01*
X247815Y278026D01*
X247422Y278975D01*
X246797Y279789D01*
X245983Y280415D01*
X245577Y280582D01*
X245677Y281082D01*
X252355D01*
X252454Y280582D01*
X252049Y280415D01*
X251234Y279789D01*
X250609Y278975D01*
X250216Y278026D01*
X250082Y277008D01*
X250216Y275990D01*
X250609Y275041D01*
X251234Y274226D01*
X252049Y273601D01*
X252998Y273208D01*
X254016Y273074D01*
X255034Y273208D01*
X255983Y273601D01*
X256797Y274226D01*
X257422Y275041D01*
X257815Y275990D01*
X257949Y277008D01*
X257815Y278026D01*
X257422Y278975D01*
X256797Y279789D01*
X255983Y280415D01*
X255577Y280582D01*
X255677Y281082D01*
X262355D01*
X262454Y280582D01*
X262049Y280415D01*
X261234Y279789D01*
X260609Y278975D01*
X260216Y278026D01*
X260082Y277008D01*
X260216Y275990D01*
X260609Y275041D01*
X261234Y274226D01*
X262049Y273601D01*
X262998Y273208D01*
X264016Y273074D01*
X265034Y273208D01*
X265983Y273601D01*
X266797Y274226D01*
X267422Y275041D01*
X267815Y275990D01*
X267949Y277008D01*
X267815Y278026D01*
X267422Y278975D01*
X266797Y279789D01*
X265983Y280415D01*
X265577Y280582D01*
X265677Y281082D01*
X269008D01*
X269359Y281152D01*
X269657Y281351D01*
X271969Y283663D01*
X272049Y283601D01*
X272998Y283208D01*
X274016Y283074D01*
X275034Y283208D01*
X275983Y283601D01*
X276797Y284226D01*
X277422Y285041D01*
X277815Y285990D01*
X277949Y287008D01*
X277815Y288026D01*
X277422Y288975D01*
X276797Y289789D01*
X275983Y290415D01*
X275034Y290808D01*
X274016Y290942D01*
X272998Y290808D01*
X272049Y290415D01*
X271234Y289789D01*
X270609Y288975D01*
X270216Y288026D01*
X270082Y287008D01*
X270216Y285990D01*
X270609Y285041D01*
X270671Y284961D01*
X268628Y282918D01*
X265639D01*
X265539Y283418D01*
X265983Y283601D01*
X266797Y284226D01*
X267422Y285041D01*
X267815Y285990D01*
X267949Y287008D01*
X267815Y288026D01*
X267422Y288975D01*
X266797Y289789D01*
X265983Y290415D01*
X265034Y290808D01*
X264016Y290942D01*
X262998Y290808D01*
X262049Y290415D01*
X261234Y289789D01*
X260609Y288975D01*
X260216Y288026D01*
X260082Y287008D01*
X260216Y285990D01*
X260609Y285041D01*
X261234Y284226D01*
X262049Y283601D01*
X262492Y283418D01*
X262393Y282918D01*
X255639D01*
X255539Y283418D01*
X255983Y283601D01*
X256797Y284226D01*
X257422Y285041D01*
X257815Y285990D01*
X257949Y287008D01*
X257815Y288026D01*
X257422Y288975D01*
X256797Y289789D01*
X255983Y290415D01*
X255034Y290808D01*
X254016Y290942D01*
X252998Y290808D01*
X252049Y290415D01*
X251234Y289789D01*
X250609Y288975D01*
X250216Y288026D01*
X250082Y287008D01*
X250216Y285990D01*
X250609Y285041D01*
X251234Y284226D01*
X252049Y283601D01*
X252492Y283418D01*
X252393Y282918D01*
X245639D01*
X245539Y283418D01*
X245983Y283601D01*
X246797Y284226D01*
X247422Y285041D01*
X247815Y285990D01*
X247949Y287008D01*
X247815Y288026D01*
X247422Y288975D01*
X246797Y289789D01*
X245983Y290415D01*
X245034Y290808D01*
X244016Y290942D01*
X242998Y290808D01*
X242049Y290415D01*
X241234Y289789D01*
X240609Y288975D01*
X240216Y288026D01*
X240082Y287008D01*
X240216Y285990D01*
X240609Y285041D01*
X241234Y284226D01*
X242049Y283601D01*
X242492Y283418D01*
X242393Y282918D01*
X235639D01*
X235539Y283418D01*
X235983Y283601D01*
X236797Y284226D01*
X237422Y285041D01*
X237815Y285990D01*
X237949Y287008D01*
X237815Y288026D01*
X237422Y288975D01*
X236797Y289789D01*
X235983Y290415D01*
X235034Y290808D01*
X234016Y290942D01*
X232998Y290808D01*
X232049Y290415D01*
X231234Y289789D01*
X230609Y288975D01*
X230216Y288026D01*
X230082Y287008D01*
X230216Y285990D01*
X230609Y285041D01*
X231234Y284226D01*
X232049Y283601D01*
X232492Y283418D01*
X232393Y282918D01*
X225639D01*
X225539Y283418D01*
X225983Y283601D01*
X226797Y284226D01*
X227422Y285041D01*
X227815Y285990D01*
X227949Y287008D01*
X227815Y288026D01*
X227422Y288975D01*
X226797Y289789D01*
X225983Y290415D01*
X225034Y290808D01*
X224016Y290942D01*
X222998Y290808D01*
X222049Y290415D01*
X221234Y289789D01*
X220609Y288975D01*
X220216Y288026D01*
X220082Y287008D01*
X220216Y285990D01*
X220609Y285041D01*
X221234Y284226D01*
X222049Y283601D01*
X222492Y283418D01*
X222393Y282918D01*
X210000D01*
X209649Y282848D01*
X209351Y282649D01*
X207851Y281149D01*
X207652Y280851D01*
X207582Y280500D01*
Y279588D01*
X207082Y279418D01*
X206797Y279789D01*
X205983Y280415D01*
X205034Y280807D01*
X204016Y280942D01*
X202998Y280807D01*
X202049Y280415D01*
X201234Y279789D01*
X200609Y278975D01*
X200216Y278026D01*
X200082Y277008D01*
X200216Y275990D01*
X200609Y275041D01*
X201234Y274226D01*
X202049Y273601D01*
X202998Y273208D01*
X204016Y273074D01*
X205034Y273208D01*
X205983Y273601D01*
X206797Y274226D01*
X207098Y274618D01*
X207598Y274449D01*
Y265097D01*
X207370Y264868D01*
X203931D01*
Y260132D01*
X208668D01*
Y263571D01*
X209165Y264068D01*
X209364Y264365D01*
X209433Y264717D01*
Y278872D01*
X209418Y278951D01*
Y280120D01*
X210380Y281082D01*
X212355D01*
X212454Y280582D01*
X212049Y280415D01*
X211234Y279789D01*
X210609Y278975D01*
X210216Y278026D01*
X210082Y277008D01*
X210216Y275990D01*
X210609Y275041D01*
X211234Y274226D01*
X212049Y273601D01*
X212998Y273208D01*
X213098Y273195D01*
Y271484D01*
X213168Y271133D01*
X213367Y270835D01*
X216351Y267851D01*
X216649Y267652D01*
X217000Y267582D01*
X218080D01*
Y265442D01*
X223014D01*
Y271557D01*
X218080D01*
Y269418D01*
X217380D01*
X214933Y271864D01*
Y273195D01*
X215034Y273208D01*
X215983Y273601D01*
X216797Y274226D01*
X217422Y275041D01*
X217815Y275990D01*
X217949Y277008D01*
X217815Y278026D01*
X217422Y278975D01*
X216797Y279789D01*
X215983Y280415D01*
X215577Y280582D01*
X215677Y281082D01*
X222355D01*
X222454Y280582D01*
X222049Y280415D01*
X221234Y279789D01*
X220609Y278975D01*
X220216Y278026D01*
X220082Y277008D01*
X220216Y275990D01*
X220609Y275041D01*
X221234Y274226D01*
X222049Y273601D01*
X222998Y273208D01*
X224016Y273074D01*
X225034Y273208D01*
X225983Y273601D01*
X226797Y274226D01*
X227422Y275041D01*
X227815Y275990D01*
X227949Y277008D01*
X227815Y278026D01*
X227422Y278975D01*
X226797Y279789D01*
X225983Y280415D01*
X225577Y280582D01*
X225677Y281082D01*
X232355D01*
X232454Y280582D01*
X232049Y280415D01*
X231234Y279789D01*
X230609Y278975D01*
X230216Y278026D01*
X230082Y277008D01*
X230216Y275990D01*
X230609Y275041D01*
X231234Y274226D01*
X232049Y273601D01*
X232998Y273208D01*
X234016Y273074D01*
X235034Y273208D01*
X235983Y273601D01*
X236797Y274226D01*
X237422Y275041D01*
X237815Y275990D01*
X237949Y277008D01*
X237815Y278026D01*
X237422Y278975D01*
X236797Y279789D01*
X235983Y280415D01*
X235577Y280582D01*
X235677Y281082D01*
X242355D01*
X242454Y280582D01*
X242049Y280415D01*
X241234Y279789D01*
X240609Y278975D01*
X240216Y278026D01*
X240082Y277008D01*
X240216Y275990D01*
X240609Y275041D01*
X241234Y274226D01*
X241637Y273918D01*
X241467Y273418D01*
X238500D01*
X238149Y273348D01*
X237851Y273149D01*
X236236Y271534D01*
X229151D01*
Y263418D01*
X221069D01*
Y264868D01*
X216332D01*
Y260132D01*
X217783D01*
Y257368D01*
X216332D01*
Y252807D01*
X208668D01*
Y257368D01*
X203931D01*
Y257020D01*
X203469Y256829D01*
X202653Y257645D01*
X202355Y257844D01*
X202004Y257914D01*
X200892D01*
X200877Y258026D01*
X200480Y258985D01*
X199848Y259808D01*
X199024Y260440D01*
X198065Y260838D01*
X197035Y260973D01*
X196006Y260838D01*
X195047Y260440D01*
X194223Y259808D01*
X193591Y258985D01*
X193194Y258026D01*
X193058Y256996D01*
X193194Y255967D01*
X193591Y255007D01*
X194223Y254184D01*
X195047Y253552D01*
X196006Y253154D01*
X197035Y253019D01*
X198065Y253154D01*
X199024Y253552D01*
X199848Y254184D01*
X200480Y255007D01*
X200877Y255967D01*
X200892Y256078D01*
X201624D01*
X203351Y254351D01*
X203613Y254176D01*
X203656Y254091D01*
X203686Y253820D01*
X203270Y253467D01*
X203095Y253502D01*
X202478Y253379D01*
X201955Y253030D01*
X201606Y252507D01*
X201483Y251890D01*
X201606Y251273D01*
X201955Y250750D01*
X202478Y250400D01*
X203095Y250278D01*
X203712Y250400D01*
X204235Y250750D01*
X204383Y250972D01*
X206770D01*
X206834Y250886D01*
X206867Y250306D01*
X206169Y249609D01*
X202746D01*
Y244675D01*
X209254D01*
Y248740D01*
X215203D01*
X215335Y248652D01*
X215686Y248582D01*
X216314D01*
X216486Y248442D01*
Y242943D01*
X221102D01*
Y242057D01*
X216486D01*
Y235943D01*
X217230D01*
X217302Y235730D01*
X217313Y235442D01*
X216860Y235140D01*
X216633Y234800D01*
X216051Y234675D01*
X215713Y235013D01*
X215432Y235201D01*
X215100Y235267D01*
X203959D01*
X196713Y242513D01*
X196631Y242568D01*
X196811Y243048D01*
X197035Y243019D01*
X198065Y243154D01*
X199024Y243552D01*
X199154Y243652D01*
X202423Y240383D01*
X202704Y240195D01*
X202746Y240187D01*
Y237391D01*
X209254D01*
Y242325D01*
X202932D01*
X200380Y244877D01*
X200480Y245007D01*
X200877Y245967D01*
X201013Y246996D01*
X200877Y248025D01*
X200480Y248985D01*
X199848Y249809D01*
X199024Y250441D01*
X198065Y250838D01*
X197035Y250973D01*
X196006Y250838D01*
X195047Y250441D01*
X194223Y249809D01*
X193591Y248985D01*
X193194Y248025D01*
X193058Y246996D01*
X193194Y245967D01*
X193591Y245007D01*
X194223Y244184D01*
X195047Y243552D01*
X195735Y243267D01*
X195635Y242767D01*
X192959D01*
X191867Y243859D01*
Y253500D01*
X191812Y253777D01*
X191801Y253832D01*
X191613Y254113D01*
X187713Y258013D01*
X187432Y258201D01*
X187100Y258267D01*
X178213D01*
X177881Y258201D01*
X177600Y258013D01*
X172488Y252901D01*
X172257Y252947D01*
X171983Y253103D01*
X171862Y254029D01*
X171464Y254989D01*
X170832Y255812D01*
X170008Y256445D01*
X169049Y256842D01*
X168020Y256977D01*
X166990Y256842D01*
X166031Y256445D01*
X165207Y255812D01*
X164575Y254989D01*
X164178Y254029D01*
X164042Y253000D01*
X164178Y251971D01*
X164575Y251011D01*
X165207Y250188D01*
X166031Y249555D01*
X166990Y249158D01*
X168020Y249023D01*
X169049Y249158D01*
X170008Y249555D01*
X170832Y250188D01*
X171438Y250977D01*
X172657D01*
X172754Y250996D01*
X173153Y250597D01*
X173133Y250500D01*
X173199Y250168D01*
X173387Y249887D01*
X174197Y249077D01*
X174178Y249029D01*
X174042Y248000D01*
X174178Y246971D01*
X174575Y246011D01*
X175207Y245188D01*
X176031Y244555D01*
X176990Y244158D01*
X178020Y244023D01*
X179049Y244158D01*
X180008Y244555D01*
X180832Y245188D01*
X181464Y246011D01*
X181861Y246971D01*
X181963Y247740D01*
X182020Y247779D01*
X182242Y248110D01*
X182319Y248500D01*
X182242Y248890D01*
X182020Y249221D01*
X181691Y249442D01*
X181464Y249989D01*
X180832Y250812D01*
X180008Y251445D01*
X179049Y251842D01*
X178020Y251977D01*
X177318Y251885D01*
X177084Y252359D01*
X179359Y254633D01*
X185954D01*
X188233Y252354D01*
Y242713D01*
X188299Y242381D01*
X188487Y242100D01*
X191200Y239387D01*
X191481Y239199D01*
X191536Y239188D01*
X191813Y239133D01*
X194954D01*
X202200Y231887D01*
X202481Y231699D01*
X202536Y231688D01*
X202813Y231633D01*
X213320D01*
X213544Y231349D01*
X213329Y230867D01*
X200440D01*
X200296Y231010D01*
X200015Y231198D01*
X199684Y231264D01*
X189710D01*
X189434Y231209D01*
X189379Y231198D01*
X189097Y231010D01*
X181954Y223867D01*
X179652D01*
X179552Y224367D01*
X180008Y224555D01*
X180832Y225188D01*
X181464Y226011D01*
X181861Y226971D01*
X181997Y228000D01*
X181861Y229029D01*
X181464Y229989D01*
X180832Y230812D01*
X180008Y231445D01*
X179049Y231842D01*
X178020Y231977D01*
X176990Y231842D01*
X176031Y231445D01*
X175207Y230812D01*
X174575Y229989D01*
X174178Y229029D01*
X174042Y228000D01*
X174178Y226971D01*
X174575Y226011D01*
X175207Y225188D01*
X176031Y224555D01*
X176487Y224367D01*
X176388Y223867D01*
X171883D01*
X171862Y224029D01*
X171464Y224989D01*
X170832Y225812D01*
X170008Y226445D01*
X169049Y226842D01*
X168020Y226977D01*
X166990Y226842D01*
X166031Y226445D01*
X165207Y225812D01*
X164575Y224989D01*
X164178Y224029D01*
X164042Y223000D01*
X164178Y221971D01*
X164575Y221011D01*
X165207Y220188D01*
X166031Y219555D01*
X166990Y219158D01*
X168020Y219023D01*
X169049Y219158D01*
X170008Y219555D01*
X170832Y220188D01*
X171464Y221011D01*
X171862Y221971D01*
X171883Y222133D01*
X176388D01*
X176487Y221633D01*
X176031Y221445D01*
X175207Y220812D01*
X174575Y219989D01*
X174178Y219029D01*
X174042Y218000D01*
X174178Y216971D01*
X174575Y216011D01*
X175207Y215188D01*
X176031Y214556D01*
X176990Y214158D01*
X178020Y214023D01*
X179049Y214158D01*
X180008Y214556D01*
X180832Y215188D01*
X181464Y216011D01*
X181861Y216971D01*
X181997Y218000D01*
X181907Y218682D01*
X190856Y227631D01*
X194463D01*
X194633Y227131D01*
X194223Y226816D01*
X193591Y225993D01*
X193194Y225033D01*
X193058Y224004D01*
X193194Y222974D01*
X193591Y222015D01*
X194223Y221192D01*
X195047Y220560D01*
X196006Y220162D01*
X197035Y220027D01*
X198065Y220162D01*
X199024Y220560D01*
X199848Y221192D01*
X200480Y222015D01*
X200877Y222974D01*
X201013Y224004D01*
X200877Y225033D01*
X200480Y225993D01*
X199911Y226733D01*
X200049Y227233D01*
X212854D01*
X215100Y224987D01*
X215381Y224799D01*
X215436Y224788D01*
X215713Y224733D01*
X225801D01*
X226041Y224781D01*
X228833D01*
Y226250D01*
X228833Y226565D01*
Y226658D01*
Y226750D01*
X228833Y227065D01*
Y228534D01*
X228833D01*
X228833Y228534D01*
Y228718D01*
X228833D01*
X228833Y228718D01*
Y230187D01*
X228833Y230502D01*
Y230594D01*
Y230687D01*
X228833Y231002D01*
Y232155D01*
X228833Y232471D01*
Y232563D01*
Y232655D01*
X228833Y232971D01*
Y234098D01*
Y234162D01*
X229333Y234369D01*
X238285Y225418D01*
X238077Y224918D01*
X233500D01*
X233149Y224848D01*
X232851Y224649D01*
X231524Y223322D01*
X231326Y223024D01*
X231256Y222673D01*
Y219374D01*
X231326Y219023D01*
X231524Y218725D01*
X231822Y218526D01*
X232173Y218456D01*
X232524Y218526D01*
X232750Y218677D01*
X233037Y218594D01*
X233250Y218465D01*
Y216415D01*
X234410D01*
X234617Y215915D01*
X233662Y214959D01*
X233617Y214989D01*
X233000Y215112D01*
X232383Y214989D01*
X231860Y214640D01*
X231511Y214117D01*
X231388Y213500D01*
X231511Y212883D01*
X231860Y212360D01*
X232383Y212011D01*
X233000Y211888D01*
X233617Y212011D01*
X234140Y212360D01*
X234489Y212883D01*
X234566Y213268D01*
X236661Y215363D01*
X237046Y215257D01*
X237161Y215174D01*
Y211321D01*
X234943D01*
Y206190D01*
X241057D01*
Y210730D01*
X241270Y210802D01*
X241558Y210813D01*
X241860Y210360D01*
X242383Y210011D01*
X243000Y209888D01*
X243617Y210011D01*
X244140Y210360D01*
X244489Y210883D01*
X244612Y211500D01*
X244504Y212042D01*
X244633Y212158D01*
X244781Y212254D01*
X244920Y212320D01*
X245383Y212011D01*
X246000Y211888D01*
X246104Y211909D01*
X246231Y211817D01*
X246482Y211474D01*
X246388Y211000D01*
X246511Y210383D01*
X246860Y209860D01*
X247383Y209511D01*
X248000Y209388D01*
X248617Y209511D01*
X249140Y209860D01*
X249489Y210383D01*
X249612Y211000D01*
X249489Y211617D01*
X249140Y212140D01*
X249099Y212167D01*
Y212933D01*
X249599Y213201D01*
X249883Y213011D01*
X250500Y212888D01*
X251117Y213011D01*
X251640Y213360D01*
X251989Y213883D01*
X252093Y214403D01*
X252376Y214554D01*
X252602Y214600D01*
X253241Y213961D01*
X253011Y213617D01*
X252888Y213000D01*
X253011Y212383D01*
X253360Y211860D01*
X253883Y211511D01*
X254500Y211388D01*
X255117Y211511D01*
X255640Y211860D01*
X255989Y212383D01*
X256112Y213000D01*
X255989Y213617D01*
X255640Y214140D01*
X255351Y214333D01*
X255348Y214351D01*
X255149Y214649D01*
X252776Y217022D01*
Y219374D01*
X252750Y219502D01*
Y222333D01*
X250966D01*
Y222333D01*
X250782D01*
Y222333D01*
X248998D01*
Y222333D01*
X248813D01*
Y222333D01*
X247029D01*
Y222333D01*
X247029Y222333D01*
X246845D01*
Y222333D01*
X246845Y222333D01*
X245376D01*
X245061Y222333D01*
X244969D01*
X244876D01*
X244561Y222333D01*
X243408D01*
X243092Y222333D01*
X243000D01*
X242908D01*
X242592Y222333D01*
X241264D01*
X241112Y222493D01*
X241029Y222643D01*
X241305Y223082D01*
X258453D01*
X258708Y223133D01*
X259048Y222952D01*
X259208Y222821D01*
Y218874D01*
X259278Y218523D01*
X259477Y218225D01*
X261351Y216351D01*
X261649Y216152D01*
X261707Y216141D01*
X262000Y216082D01*
X263080D01*
Y213943D01*
X268014D01*
Y220058D01*
X268014Y220058D01*
X268014D01*
X268251Y220454D01*
X273149Y225351D01*
X273348Y225649D01*
X273359Y225707D01*
X273418Y226000D01*
Y231120D01*
X275723Y233425D01*
X278516D01*
Y207814D01*
X268351Y197649D01*
X268152Y197351D01*
X268082Y197000D01*
Y184380D01*
X264962Y181260D01*
X264855Y181153D01*
X264319Y181260D01*
X260776D01*
X260197Y181145D01*
X259707Y180817D01*
X259440Y180418D01*
X256724D01*
X256617Y180489D01*
X256000Y180612D01*
X255383Y180489D01*
X255276Y180418D01*
X247717D01*
Y183106D01*
X247868Y183207D01*
X248096Y183548D01*
X248148Y183565D01*
X248600D01*
X248652Y183548D01*
X248880Y183207D01*
X249370Y182879D01*
X249949Y182764D01*
X250527Y182879D01*
X251018Y183207D01*
X251246Y183548D01*
X251297Y183565D01*
X251750D01*
X251801Y183548D01*
X252029Y183207D01*
X252520Y182879D01*
X253098Y182764D01*
X253677Y182879D01*
X254167Y183207D01*
X254495Y183697D01*
X254610Y184276D01*
Y187819D01*
X254495Y188397D01*
X254175Y188877D01*
X256880Y191582D01*
X262120D01*
X263082Y190620D01*
Y188788D01*
X262860Y188640D01*
X262511Y188117D01*
X262388Y187500D01*
X262511Y186883D01*
X262860Y186360D01*
X263383Y186011D01*
X264000Y185888D01*
X264617Y186011D01*
X265140Y186360D01*
X265489Y186883D01*
X265612Y187500D01*
X265489Y188117D01*
X265140Y188640D01*
X264918Y188788D01*
Y191000D01*
X264848Y191351D01*
X264649Y191649D01*
X263149Y193149D01*
X262851Y193348D01*
X262500Y193418D01*
X256500D01*
X256149Y193348D01*
X255923Y193197D01*
X255894Y193210D01*
X255640Y193375D01*
X255515Y193509D01*
X255612Y194000D01*
X255489Y194617D01*
X255140Y195140D01*
X254617Y195489D01*
X254000Y195612D01*
X253383Y195489D01*
X252860Y195140D01*
X252511Y194617D01*
X252388Y194000D01*
X252440Y193738D01*
X249300Y190598D01*
X249101Y190300D01*
X249031Y189949D01*
Y188989D01*
X248880Y188888D01*
X248652Y188547D01*
X248600Y188530D01*
X248148D01*
X248096Y188547D01*
X247868Y188888D01*
X247378Y189216D01*
X246799Y189331D01*
X246221Y189216D01*
X245730Y188888D01*
X245502Y188547D01*
X245451Y188530D01*
X244998D01*
X244947Y188547D01*
X244719Y188888D01*
X244228Y189216D01*
X243650Y189331D01*
X243071Y189216D01*
X242581Y188888D01*
X242353Y188547D01*
X242301Y188530D01*
X241848D01*
X241797Y188547D01*
X241569Y188888D01*
X241078Y189216D01*
X240500Y189331D01*
X239921Y189216D01*
X239431Y188888D01*
X239203Y188547D01*
X239152Y188530D01*
X238699D01*
X238647Y188547D01*
X238419Y188888D01*
X237929Y189216D01*
X237350Y189331D01*
X236772Y189216D01*
X236281Y188888D01*
X236053Y188547D01*
X236002Y188530D01*
X235549D01*
X235498Y188547D01*
X235270Y188888D01*
X234779Y189216D01*
X234201Y189331D01*
X233622Y189216D01*
X233132Y188888D01*
X232904Y188547D01*
X232852Y188530D01*
X232400D01*
X232348Y188547D01*
X232120Y188888D01*
X231969Y188989D01*
Y190949D01*
X231899Y191300D01*
X231700Y191598D01*
X230255Y193043D01*
X230249Y193071D01*
X230050Y193369D01*
X227270Y196149D01*
X226973Y196348D01*
X226621Y196418D01*
X207879D01*
X207527Y196348D01*
X207230Y196149D01*
X201851Y190770D01*
X201652Y190472D01*
X201582Y190121D01*
Y170718D01*
X201436Y170608D01*
X200903Y170832D01*
X200877Y171026D01*
X200480Y171985D01*
X199848Y172809D01*
X199024Y173441D01*
X198065Y173838D01*
X197035Y173973D01*
X196006Y173838D01*
X195047Y173441D01*
X194223Y172809D01*
X193591Y171985D01*
X193194Y171026D01*
X193058Y169996D01*
X193194Y168967D01*
X193591Y168007D01*
X194223Y167184D01*
X195047Y166552D01*
X196006Y166154D01*
X197035Y166019D01*
X198065Y166154D01*
X199024Y166552D01*
X199848Y167184D01*
X200480Y168007D01*
X200567Y168216D01*
X200594Y168227D01*
X201113Y168230D01*
X201360Y167860D01*
X201883Y167511D01*
X202500Y167388D01*
X203117Y167511D01*
X203640Y167860D01*
X203989Y168383D01*
X204048Y168677D01*
X204048D01*
X204054Y168707D01*
X204566Y168720D01*
X204576Y168705D01*
D01*
X204582Y168696D01*
Y167180D01*
X204500Y167112D01*
X203883Y166989D01*
X203360Y166640D01*
X203011Y166117D01*
X202888Y165500D01*
X203011Y164883D01*
X203360Y164360D01*
X203883Y164011D01*
X204500Y163888D01*
X205117Y164011D01*
X205640Y164360D01*
X205989Y164883D01*
X206112Y165500D01*
X206109Y165515D01*
X206246Y165650D01*
X206314Y165646D01*
X206746Y165441D01*
Y161175D01*
X211169D01*
X212142Y160202D01*
X212440Y160003D01*
X212791Y159933D01*
X215511D01*
X215612Y159781D01*
X216103Y159454D01*
X216681Y159339D01*
X220224D01*
X220803Y159454D01*
X221293Y159781D01*
X221394Y159933D01*
X222901D01*
X223011Y159383D01*
X223360Y158860D01*
X223582Y158712D01*
Y147880D01*
X218620Y142918D01*
X214785D01*
X214547Y142965D01*
X214310Y142918D01*
X213254D01*
Y144825D01*
X206746D01*
Y142918D01*
X204380D01*
X200929Y146369D01*
X201013Y147004D01*
X200877Y148033D01*
X200480Y148993D01*
X199848Y149816D01*
X199024Y150448D01*
X198514Y150660D01*
X198613Y151160D01*
X206746D01*
Y147175D01*
X213254D01*
Y151160D01*
X214165D01*
X214536Y150789D01*
X214723Y150663D01*
X214817Y150601D01*
X215148Y150535D01*
X215477D01*
X215612Y150333D01*
X216103Y150005D01*
X216681Y149890D01*
X220224D01*
X220803Y150005D01*
X221293Y150333D01*
X221621Y150823D01*
X221736Y151402D01*
X221621Y151980D01*
X221293Y152471D01*
X220952Y152699D01*
X220935Y152750D01*
Y153203D01*
X220952Y153254D01*
X221293Y153482D01*
X221621Y153973D01*
X221736Y154551D01*
X221621Y155130D01*
X221293Y155620D01*
X220803Y155948D01*
X220224Y156063D01*
X216681D01*
X216103Y155948D01*
X215612Y155620D01*
X215477Y155418D01*
X215148D01*
X214817Y155352D01*
X214536Y155164D01*
X214165Y154793D01*
X213254D01*
Y158825D01*
X206746D01*
Y154793D01*
X189239D01*
X188963Y154738D01*
X188908Y154727D01*
X188627Y154539D01*
X185487Y151400D01*
X185299Y151119D01*
X185233Y150787D01*
Y134210D01*
X174515D01*
X172367Y136359D01*
Y138141D01*
X173865Y139639D01*
X174355Y139542D01*
X174575Y139011D01*
X175207Y138188D01*
X176031Y137556D01*
X176990Y137158D01*
X178020Y137023D01*
X179049Y137158D01*
X180008Y137556D01*
X180832Y138188D01*
X181464Y139011D01*
X181861Y139971D01*
X181997Y141000D01*
X181861Y142029D01*
X181464Y142989D01*
X180832Y143812D01*
X180008Y144445D01*
X179049Y144842D01*
X178020Y144977D01*
X176990Y144842D01*
X176031Y144445D01*
X175207Y143812D01*
X174575Y142989D01*
X174178Y142029D01*
X174156Y141867D01*
X174000D01*
X173723Y141812D01*
X173668Y141801D01*
X173387Y141613D01*
X173355Y141581D01*
X173137Y141628D01*
X172867Y141799D01*
Y142020D01*
X172801Y142351D01*
X172613Y142632D01*
X171364Y143881D01*
X171464Y144011D01*
X171862Y144971D01*
X171997Y146000D01*
X171862Y147029D01*
X171464Y147989D01*
X170832Y148812D01*
X170008Y149444D01*
X169049Y149842D01*
X168020Y149977D01*
X166990Y149842D01*
X166031Y149444D01*
X165207Y148812D01*
X164575Y147989D01*
X164178Y147029D01*
X164042Y146000D01*
X164178Y144971D01*
X164575Y144011D01*
X165207Y143188D01*
X166031Y142555D01*
X166990Y142158D01*
X168020Y142023D01*
X169049Y142158D01*
X170008Y142555D01*
X170139Y142656D01*
X170941Y141853D01*
X168987Y139900D01*
X168799Y139619D01*
X168733Y139287D01*
Y135213D01*
X168799Y134881D01*
X168987Y134600D01*
X172757Y130831D01*
X173038Y130643D01*
X173370Y130577D01*
X186443D01*
X186775Y130643D01*
X187056Y130831D01*
X188613Y132387D01*
X188801Y132668D01*
X188812Y132723D01*
X188867Y133000D01*
Y149641D01*
X190385Y151160D01*
X195457D01*
X195557Y150660D01*
X195047Y150448D01*
X194223Y149816D01*
X193591Y148993D01*
X193194Y148033D01*
X193058Y147004D01*
X193194Y145975D01*
X193591Y145015D01*
X194223Y144192D01*
X195047Y143560D01*
X196006Y143162D01*
X197035Y143027D01*
X198065Y143162D01*
X199024Y143560D01*
X199848Y144192D01*
X199905Y144266D01*
X200404Y144299D01*
X203351Y141351D01*
X203649Y141152D01*
X204000Y141082D01*
X206746D01*
Y139891D01*
X213254D01*
X213630Y139590D01*
Y135500D01*
Y128058D01*
X212080D01*
Y121942D01*
X213630D01*
Y120379D01*
X212998Y120296D01*
X212049Y119903D01*
X211234Y119278D01*
X210609Y118463D01*
X210216Y117514D01*
X210082Y116496D01*
X210216Y115478D01*
X210609Y114529D01*
X211234Y113715D01*
X212049Y113089D01*
X212998Y112697D01*
X214016Y112562D01*
X215034Y112697D01*
X215983Y113089D01*
X216797Y113715D01*
X217422Y114529D01*
X217815Y115478D01*
X217949Y116496D01*
X217815Y117514D01*
X217422Y118463D01*
X216797Y119278D01*
X215983Y119903D01*
X215465Y120117D01*
Y121942D01*
X217014D01*
Y128058D01*
X215465D01*
Y134582D01*
X216179D01*
Y132442D01*
X221191D01*
X221309Y132442D01*
X221500D01*
X221691D01*
X221810Y132442D01*
X226821D01*
Y133195D01*
X227046Y133328D01*
X227321Y133381D01*
X229351Y131351D01*
X229649Y131152D01*
X229707Y131141D01*
X230000Y131082D01*
X293000D01*
X293351Y131152D01*
X293649Y131351D01*
X294238Y131940D01*
X294500Y131888D01*
X295117Y132011D01*
X295640Y132360D01*
X295989Y132883D01*
X296112Y133500D01*
X295989Y134117D01*
X295678Y134582D01*
X295744Y134834D01*
X295878Y135082D01*
X300122D01*
X300256Y134834D01*
X300322Y134582D01*
X300011Y134117D01*
X299888Y133500D01*
X300011Y132883D01*
X300360Y132360D01*
X300883Y132011D01*
X301500Y131888D01*
X301762Y131940D01*
X303035Y130667D01*
Y128058D01*
X301486D01*
Y121942D01*
X303098D01*
Y120309D01*
X302998Y120296D01*
X302049Y119903D01*
X301234Y119278D01*
X300609Y118463D01*
X300216Y117514D01*
X300082Y116496D01*
X300216Y115478D01*
X300609Y114529D01*
X301234Y113715D01*
X302049Y113089D01*
X302998Y112697D01*
X304016Y112562D01*
X305034Y112697D01*
X305983Y113089D01*
X306797Y113715D01*
X307422Y114529D01*
X307815Y115478D01*
X307949Y116496D01*
X307815Y117514D01*
X307422Y118463D01*
X306797Y119278D01*
X305983Y119903D01*
X305034Y120296D01*
X304933Y120309D01*
Y121942D01*
X306420D01*
Y128058D01*
X304870D01*
Y131047D01*
X304812Y131340D01*
X304801Y131398D01*
X304602Y131696D01*
X303060Y133238D01*
X303112Y133500D01*
X302989Y134117D01*
X302678Y134582D01*
X302744Y134834D01*
X302878Y135082D01*
X320110D01*
X320461Y135152D01*
X320759Y135351D01*
X323296Y137888D01*
X326465D01*
X327081Y138011D01*
X327605Y138360D01*
X327954Y138883D01*
X328077Y139500D01*
X327954Y140117D01*
X327605Y140640D01*
X327081Y140989D01*
X326465Y141112D01*
X320756D01*
X320139Y140989D01*
X319616Y140640D01*
X319267Y140117D01*
X319144Y139500D01*
X319267Y138883D01*
X319616Y138360D01*
X320125Y138020D01*
X320197Y137965D01*
X320294Y137481D01*
X319730Y136918D01*
X286788D01*
X286640Y137140D01*
X286269Y137388D01*
X286420Y137888D01*
X290244D01*
X290861Y138011D01*
X291384Y138360D01*
X291734Y138883D01*
X291856Y139500D01*
X291734Y140117D01*
X291384Y140640D01*
X290861Y140989D01*
X290244Y141112D01*
X284535D01*
X283918Y140989D01*
X283396Y140640D01*
X283213Y140367D01*
X280500D01*
X280223Y140312D01*
X280168Y140301D01*
X279887Y140113D01*
X279141Y139367D01*
X276810D01*
X276711Y139867D01*
X276790Y139899D01*
X277532Y140468D01*
X278101Y141210D01*
X278458Y142073D01*
X278580Y143000D01*
X278546Y143257D01*
X278876Y143633D01*
X283213D01*
X283396Y143360D01*
X283918Y143011D01*
X284535Y142888D01*
X290244D01*
X290861Y143011D01*
X291384Y143360D01*
X291734Y143883D01*
X291856Y144500D01*
X291734Y145117D01*
X291384Y145640D01*
X290861Y145989D01*
X290244Y146112D01*
X284535D01*
X283918Y145989D01*
X283396Y145640D01*
X283213Y145367D01*
X277658D01*
X277532Y145532D01*
X276790Y146101D01*
X275927Y146458D01*
X275000Y146580D01*
X274073Y146458D01*
X273210Y146101D01*
X272468Y145532D01*
X271899Y144790D01*
X271542Y143927D01*
X271420Y143000D01*
X271542Y142073D01*
X271899Y141210D01*
X272468Y140468D01*
X273210Y139899D01*
X273289Y139867D01*
X273190Y139367D01*
X271859D01*
X269867Y141359D01*
Y146641D01*
X273162Y149936D01*
X273210Y149899D01*
X274073Y149542D01*
X275000Y149420D01*
X275927Y149542D01*
X276790Y149899D01*
X277532Y150468D01*
X278101Y151210D01*
X278458Y152073D01*
X278580Y153000D01*
X278458Y153927D01*
X278101Y154790D01*
X277756Y155239D01*
X278133Y155570D01*
X279851Y153851D01*
X280149Y153652D01*
X280207Y153641D01*
X280500Y153582D01*
X283247D01*
X283396Y153360D01*
X283918Y153011D01*
X284535Y152888D01*
X290244D01*
X290861Y153011D01*
X291384Y153360D01*
X291734Y153883D01*
X291856Y154500D01*
X291734Y155117D01*
X291384Y155640D01*
X290861Y155989D01*
X290244Y156112D01*
X284535D01*
X283918Y155989D01*
X283396Y155640D01*
X283247Y155418D01*
X280880D01*
X279028Y157270D01*
X279219Y157732D01*
X280650D01*
X281001Y157802D01*
X281298Y158001D01*
X281880Y158582D01*
X283247D01*
X283396Y158360D01*
X283918Y158011D01*
X284535Y157888D01*
X290244D01*
X290861Y158011D01*
X291384Y158360D01*
X291734Y158883D01*
X291856Y159500D01*
X291734Y160117D01*
X291384Y160640D01*
X290861Y160989D01*
X290244Y161112D01*
X284535D01*
X283918Y160989D01*
X283396Y160640D01*
X283247Y160418D01*
X281500D01*
X281207Y160359D01*
X281149Y160348D01*
X280851Y160149D01*
X280270Y159567D01*
X271028D01*
X270677Y159497D01*
X270379Y159299D01*
X266550Y155469D01*
X265489D01*
X265388Y155620D01*
X265047Y155848D01*
X265030Y155900D01*
Y156352D01*
X265047Y156404D01*
X265388Y156632D01*
X265489Y156783D01*
X266201D01*
X266552Y156853D01*
X266850Y157052D01*
X270149Y160351D01*
X270348Y160649D01*
X270418Y161000D01*
Y164120D01*
X273880Y167582D01*
X280500D01*
X280851Y167652D01*
X281149Y167851D01*
X281880Y168582D01*
X283247D01*
X283396Y168360D01*
X283918Y168011D01*
X284535Y167888D01*
X290244D01*
X290861Y168011D01*
X291384Y168360D01*
X291734Y168883D01*
X291856Y169500D01*
X291734Y170117D01*
X291384Y170640D01*
X290861Y170989D01*
X290244Y171112D01*
X284535D01*
X283918Y170989D01*
X283396Y170640D01*
X283247Y170418D01*
X281500D01*
X281207Y170359D01*
X281149Y170348D01*
X280851Y170149D01*
X280120Y169418D01*
X277005D01*
X276810Y169867D01*
X276814Y169918D01*
X277532Y170468D01*
X278101Y171210D01*
X278458Y172073D01*
X278580Y173000D01*
X278458Y173927D01*
X278101Y174790D01*
X278095Y174797D01*
X281880Y178582D01*
X283247D01*
X283396Y178360D01*
X283918Y178011D01*
X284535Y177888D01*
X290244D01*
X290861Y178011D01*
X291384Y178360D01*
X291532Y178582D01*
X294598D01*
X294930Y178211D01*
X294888Y178000D01*
X295011Y177383D01*
X295360Y176860D01*
X295883Y176511D01*
X296500Y176388D01*
X297117Y176511D01*
X297640Y176860D01*
X297989Y177383D01*
X298112Y178000D01*
X297989Y178617D01*
X297640Y179140D01*
X297117Y179489D01*
X296500Y179612D01*
X296238Y179560D01*
X295649Y180149D01*
X295351Y180348D01*
X295000Y180418D01*
X291532D01*
X291384Y180640D01*
X290861Y180989D01*
X290244Y181112D01*
X284535D01*
X283918Y180989D01*
X283396Y180640D01*
X283247Y180418D01*
X281500D01*
X281149Y180348D01*
X280851Y180149D01*
X276797Y176095D01*
X276790Y176101D01*
X275927Y176458D01*
X275000Y176580D01*
X274073Y176458D01*
X273210Y176101D01*
X273203Y176095D01*
X268151Y181146D01*
X268073Y181625D01*
X268089Y181791D01*
X269649Y183351D01*
X269848Y183649D01*
X269918Y184000D01*
Y196620D01*
X280083Y206785D01*
X280282Y207083D01*
X280293Y207141D01*
X280351Y207434D01*
Y233962D01*
X280669Y234279D01*
X280853Y234555D01*
X282149Y235851D01*
X282348Y236149D01*
X282359Y236207D01*
X282418Y236500D01*
Y256712D01*
X282640Y256860D01*
X282989Y257383D01*
X283112Y258000D01*
X282989Y258617D01*
X282678Y259082D01*
X282744Y259334D01*
X282878Y259582D01*
X292622D01*
X292756Y259334D01*
X292822Y259082D01*
X292511Y258617D01*
X292388Y258000D01*
X292511Y257383D01*
X292860Y256860D01*
X293383Y256511D01*
X294000Y256388D01*
X294617Y256511D01*
X295140Y256860D01*
X295288Y257082D01*
X299471D01*
X299511Y256883D01*
X299860Y256360D01*
X300383Y256011D01*
X301000Y255888D01*
X301617Y256011D01*
X302140Y256360D01*
X302489Y256883D01*
X302612Y257500D01*
X302489Y258117D01*
X302140Y258640D01*
X301617Y258989D01*
X301323Y259048D01*
Y259048D01*
X301293Y259054D01*
X301280Y259566D01*
X301294Y259576D01*
D01*
X301304Y259582D01*
X312000D01*
X312351Y259652D01*
X312649Y259851D01*
X317649Y264851D01*
X317848Y265149D01*
X317918Y265500D01*
Y270621D01*
X317859Y270914D01*
X317848Y270972D01*
X317649Y271270D01*
X316918Y272001D01*
Y274383D01*
X317422Y275041D01*
X317815Y275990D01*
X317949Y277008D01*
X317815Y278026D01*
X317422Y278975D01*
X316797Y279789D01*
X315983Y280415D01*
X315034Y280807D01*
X314016Y280942D01*
X312998Y280807D01*
X312049Y280415D01*
X311234Y279789D01*
X310609Y278975D01*
X310418Y278512D01*
X309918Y278612D01*
Y280620D01*
X312650Y283352D01*
X312998Y283208D01*
X314016Y283074D01*
X315034Y283208D01*
X315983Y283601D01*
X316797Y284226D01*
X317422Y285041D01*
X317815Y285990D01*
X317949Y287008D01*
X317815Y288026D01*
X317422Y288975D01*
X316797Y289789D01*
X315983Y290415D01*
X315034Y290808D01*
X314016Y290942D01*
D02*
G37*
G36*
X372058Y252609D02*
X365943D01*
Y251064D01*
X365744D01*
X365354Y250987D01*
X365023Y250765D01*
X364421Y250163D01*
X364199Y249832D01*
X364122Y249442D01*
Y246554D01*
X362675D01*
Y240054D01*
X362675Y240046D01*
X362675D01*
Y239554D01*
D01*
X362675D01*
X362675Y239554D01*
Y233046D01*
X364122D01*
Y232914D01*
X364199Y232524D01*
X364421Y232193D01*
X365943Y230671D01*
Y226490D01*
X372058D01*
Y231621D01*
X367877D01*
X366915Y232584D01*
X367106Y233046D01*
X367609D01*
Y235280D01*
X367809D01*
X368199Y235358D01*
X368530Y235579D01*
X369852Y236900D01*
X372491D01*
X372643Y236799D01*
X373033Y236721D01*
X373234D01*
Y236357D01*
Y236100D01*
X371682D01*
X371373Y236038D01*
X371000Y236112D01*
X370383Y235989D01*
X369860Y235640D01*
X369511Y235117D01*
X369388Y234500D01*
X369511Y233883D01*
X369860Y233360D01*
X370383Y233011D01*
X371000Y232888D01*
X371617Y233011D01*
X372140Y233360D01*
X372489Y233883D01*
X372565Y234264D01*
X373234D01*
Y233798D01*
X379152D01*
Y236357D01*
Y238916D01*
Y241475D01*
Y244243D01*
X373234D01*
Y241475D01*
Y241320D01*
X373033D01*
X372643Y241242D01*
X372491Y241141D01*
X368743D01*
X367609Y242276D01*
Y246554D01*
X366162D01*
Y247479D01*
X372058D01*
Y252609D01*
D02*
G37*
G36*
X204016Y290942D02*
X202998Y290808D01*
X202049Y290415D01*
X201234Y289789D01*
X200609Y288975D01*
X200216Y288026D01*
X200082Y287008D01*
X200216Y285990D01*
X200609Y285041D01*
X201234Y284226D01*
X202049Y283601D01*
X202998Y283208D01*
X204016Y283074D01*
X205034Y283208D01*
X205983Y283601D01*
X206797Y284226D01*
X207422Y285041D01*
X207815Y285990D01*
X207949Y287008D01*
X207815Y288026D01*
X207422Y288975D01*
X206797Y289789D01*
X205983Y290415D01*
X205034Y290808D01*
X204016Y290942D01*
D02*
G37*
G36*
X168020Y246977D02*
X166990Y246842D01*
X166031Y246445D01*
X165207Y245812D01*
X164575Y244989D01*
X164178Y244029D01*
X164042Y243000D01*
X164178Y241971D01*
X164575Y241011D01*
X165207Y240188D01*
X166031Y239556D01*
X166990Y239158D01*
X168020Y239023D01*
X169049Y239158D01*
X170008Y239556D01*
X170832Y240188D01*
X171464Y241011D01*
X171862Y241971D01*
X171997Y243000D01*
X171862Y244029D01*
X171464Y244989D01*
X170832Y245812D01*
X170008Y246445D01*
X169049Y246842D01*
X168020Y246977D01*
D02*
G37*
G36*
X369929Y269418D02*
X364000D01*
X363649Y269348D01*
X363351Y269149D01*
X362824Y268621D01*
X356943D01*
Y266973D01*
X356058D01*
Y268621D01*
X349942D01*
Y266973D01*
X349058D01*
Y268621D01*
X342943D01*
Y266973D01*
X342057D01*
Y268621D01*
X335943D01*
Y266918D01*
X335288D01*
X335140Y267140D01*
X334617Y267489D01*
X334000Y267612D01*
X333383Y267489D01*
X332860Y267140D01*
X332511Y266617D01*
X332388Y266000D01*
X332511Y265383D01*
X332860Y264860D01*
X333383Y264511D01*
X334000Y264388D01*
X334617Y264511D01*
X335140Y264860D01*
X335165Y264898D01*
X335731Y264940D01*
X335943Y264729D01*
Y263610D01*
X335943Y263491D01*
Y263300D01*
Y263109D01*
X335943Y262990D01*
Y262462D01*
X335244D01*
X334951Y262403D01*
X334893Y262392D01*
X334595Y262193D01*
X333962Y261560D01*
X333700Y261612D01*
X333083Y261489D01*
X332560Y261140D01*
X332211Y260617D01*
X332088Y260000D01*
X332211Y259383D01*
X332560Y258860D01*
X332782Y258712D01*
Y254613D01*
X332350Y254450D01*
X332050Y254450D01*
X330350D01*
X330050Y254450D01*
X329950D01*
X329850D01*
X329550Y254450D01*
X327550D01*
Y248150D01*
X327680D01*
Y242600D01*
X327758Y242210D01*
X327979Y241879D01*
X329678Y240179D01*
X329830Y240078D01*
X329831Y240076D01*
X329831Y239524D01*
X329830Y239522D01*
X329678Y239421D01*
X327979Y237721D01*
X327758Y237390D01*
X327680Y237000D01*
Y233450D01*
X327550D01*
Y227150D01*
X328384D01*
X328652Y226651D01*
X328582Y226300D01*
Y224220D01*
X326443D01*
Y219286D01*
X332558D01*
Y220835D01*
X333943D01*
Y219286D01*
X340057D01*
Y220082D01*
X340444Y220399D01*
X340500Y220388D01*
X341117Y220511D01*
X341640Y220860D01*
X341937Y221304D01*
D01*
X341989Y221383D01*
D01*
X342009Y221375D01*
X342375Y221232D01*
X342398Y221223D01*
X342424Y221213D01*
X342430Y221211D01*
X342418Y221153D01*
Y221153D01*
X342388Y221000D01*
X342440Y220738D01*
X340851Y219149D01*
X340652Y218851D01*
X340582Y218500D01*
Y212788D01*
X340360Y212640D01*
X340011Y212117D01*
X339888Y211500D01*
X340011Y210883D01*
X340360Y210360D01*
X340883Y210011D01*
X341057Y209976D01*
X341222Y209434D01*
X332155Y200367D01*
X327787D01*
X327605Y200640D01*
X327081Y200989D01*
X326465Y201112D01*
X320756D01*
X320139Y200989D01*
X319616Y200640D01*
X319267Y200117D01*
X319144Y199500D01*
X319267Y198883D01*
X319616Y198360D01*
X320139Y198011D01*
X320756Y197888D01*
X326465D01*
X327081Y198011D01*
X327605Y198360D01*
X327787Y198633D01*
X332201D01*
X332408Y198133D01*
X329641Y195367D01*
X327787D01*
X327605Y195640D01*
X327081Y195989D01*
X326465Y196112D01*
X320756D01*
X320139Y195989D01*
X319616Y195640D01*
X319267Y195117D01*
X319144Y194500D01*
X319267Y193883D01*
X319616Y193360D01*
X320139Y193011D01*
X320756Y192888D01*
X326465D01*
X327081Y193011D01*
X327605Y193360D01*
X327787Y193633D01*
X329234D01*
X329426Y193171D01*
X327179Y190924D01*
X327081Y190989D01*
X326465Y191112D01*
X320756D01*
X320139Y190989D01*
X319616Y190640D01*
X319267Y190117D01*
X319144Y189500D01*
X319267Y188883D01*
X319616Y188360D01*
X320139Y188011D01*
X320756Y187888D01*
X326465D01*
X327081Y188011D01*
X327605Y188360D01*
X327954Y188883D01*
X328045Y189339D01*
X329565Y190860D01*
X329985Y190625D01*
X330006Y190593D01*
X329888Y190000D01*
X329952Y189678D01*
X326386Y186112D01*
X320756D01*
X320139Y185989D01*
X319616Y185640D01*
X319267Y185117D01*
X319144Y184500D01*
X319267Y183883D01*
X319616Y183360D01*
X320139Y183011D01*
X320756Y182888D01*
X326465D01*
X327081Y183011D01*
X327605Y183360D01*
X327954Y183883D01*
X328077Y184500D01*
X327954Y185117D01*
X327909Y185184D01*
X331178Y188452D01*
X331500Y188388D01*
X332117Y188511D01*
X332640Y188860D01*
X332989Y189383D01*
X333112Y190000D01*
X332989Y190617D01*
X332640Y191140D01*
X332117Y191489D01*
X331500Y191612D01*
X330907Y191494D01*
X330875Y191515D01*
X330640Y191935D01*
X337065Y198360D01*
X337485Y198125D01*
X337506Y198093D01*
X337388Y197500D01*
X337511Y196883D01*
X337860Y196360D01*
X338133Y196177D01*
Y192000D01*
X338199Y191668D01*
X338387Y191387D01*
X342633Y187141D01*
Y179000D01*
X342699Y178668D01*
X342887Y178387D01*
X347133Y174141D01*
Y165768D01*
X347125Y165767D01*
X346309Y165429D01*
X345609Y164891D01*
X345071Y164191D01*
X344734Y163375D01*
X344618Y162500D01*
X344734Y161625D01*
X345071Y160809D01*
X345609Y160109D01*
X346309Y159571D01*
X347125Y159233D01*
X348000Y159118D01*
X348875Y159233D01*
X349691Y159571D01*
X350391Y160109D01*
X350929Y160809D01*
X351266Y161625D01*
X351382Y162500D01*
X351266Y163375D01*
X350929Y164191D01*
X350391Y164891D01*
X349691Y165429D01*
X348875Y165767D01*
X348867Y165768D01*
Y174500D01*
X348812Y174777D01*
X348801Y174832D01*
X348613Y175113D01*
X344367Y179359D01*
Y181204D01*
X344867Y181303D01*
X345071Y180809D01*
X345609Y180109D01*
X346309Y179571D01*
X347125Y179234D01*
X348000Y179118D01*
X348875Y179234D01*
X349691Y179571D01*
X350391Y180109D01*
X350929Y180809D01*
X351266Y181625D01*
X351268Y181633D01*
X352133D01*
Y156359D01*
X349698Y153923D01*
X349691Y153929D01*
X348875Y154267D01*
X348000Y154382D01*
X347125Y154267D01*
X346309Y153929D01*
X345609Y153391D01*
X345071Y152691D01*
X344734Y151875D01*
X344732Y151867D01*
X344000D01*
X343668Y151801D01*
X343387Y151613D01*
X341887Y150113D01*
X341699Y149832D01*
X341633Y149500D01*
Y139359D01*
X339822Y137548D01*
X339500Y137612D01*
X338883Y137489D01*
X338360Y137140D01*
X338011Y136617D01*
X337888Y136000D01*
X338011Y135383D01*
X338360Y134860D01*
X338883Y134511D01*
X339500Y134388D01*
X340117Y134511D01*
X340640Y134860D01*
X340989Y135383D01*
X341112Y136000D01*
X341048Y136322D01*
X343113Y138387D01*
X343301Y138668D01*
X343367Y139000D01*
Y149141D01*
X344255Y150030D01*
X344312Y150041D01*
X344795Y149978D01*
X345071Y149309D01*
X345609Y148609D01*
X346309Y148071D01*
X347125Y147733D01*
X348000Y147618D01*
X348198Y147644D01*
X348431Y147171D01*
X345387Y144127D01*
X345199Y143845D01*
X345133Y143514D01*
Y137859D01*
X341141Y133867D01*
X338359D01*
X337367Y134859D01*
Y138141D01*
X339113Y139887D01*
X339301Y140168D01*
X339367Y140500D01*
Y182677D01*
X339640Y182860D01*
X339989Y183383D01*
X340112Y184000D01*
X339989Y184617D01*
X339640Y185140D01*
X339117Y185489D01*
X338500Y185612D01*
X337883Y185489D01*
X337360Y185140D01*
X337011Y184617D01*
X336888Y184000D01*
X337011Y183383D01*
X337360Y182860D01*
X337633Y182677D01*
Y140859D01*
X335887Y139113D01*
X335699Y138832D01*
X335633Y138500D01*
Y134500D01*
X335699Y134168D01*
X335887Y133887D01*
X337387Y132387D01*
X337418Y132367D01*
X337266Y131867D01*
X332822D01*
X332640Y132140D01*
X332117Y132489D01*
X331500Y132612D01*
X330883Y132489D01*
X330360Y132140D01*
X330011Y131617D01*
X329888Y131000D01*
X330011Y130383D01*
X330360Y129860D01*
X330883Y129511D01*
X331500Y129388D01*
X332117Y129511D01*
X332640Y129860D01*
X332822Y130133D01*
X340641D01*
X341569Y129205D01*
X341511Y129117D01*
X341388Y128500D01*
X341511Y127883D01*
X341860Y127360D01*
X342383Y127011D01*
X343000Y126888D01*
X343617Y127011D01*
X344140Y127360D01*
X344489Y127883D01*
X344612Y128500D01*
X344489Y129117D01*
X344140Y129640D01*
X343617Y129989D01*
X343142Y130084D01*
X341613Y131613D01*
X341555Y131651D01*
X341680Y132169D01*
X341832Y132199D01*
X342113Y132387D01*
X346613Y136887D01*
X346801Y137168D01*
X346812Y137223D01*
X346867Y137500D01*
Y143155D01*
X349001Y145289D01*
X349483Y145116D01*
X349504Y145086D01*
X349388Y144500D01*
X349511Y143883D01*
X349713Y143579D01*
X349603Y143337D01*
X349433Y143099D01*
X348883Y142989D01*
X348360Y142640D01*
X348011Y142117D01*
X347888Y141500D01*
X348011Y140883D01*
X348360Y140360D01*
X348883Y140011D01*
X349500Y139888D01*
X350117Y140011D01*
X350640Y140360D01*
X350822Y140633D01*
X373141D01*
X377133Y136641D01*
Y134268D01*
X377125Y134266D01*
X376309Y133929D01*
X375609Y133391D01*
X375071Y132691D01*
X374734Y131875D01*
X374618Y131000D01*
X374734Y130125D01*
X375071Y129309D01*
X375609Y128609D01*
X376309Y128071D01*
X376680Y127918D01*
X376581Y127418D01*
X374880D01*
X373918Y128380D01*
Y135000D01*
X373848Y135351D01*
X373649Y135649D01*
X371649Y137649D01*
X371351Y137848D01*
X371000Y137918D01*
X351000D01*
X350649Y137848D01*
X350351Y137649D01*
X347351Y134649D01*
X347152Y134351D01*
X347136Y134268D01*
X347125Y134266D01*
X346309Y133929D01*
X345609Y133391D01*
X345071Y132691D01*
X344734Y131875D01*
X344618Y131000D01*
X344734Y130125D01*
X345071Y129309D01*
X345609Y128609D01*
X346309Y128071D01*
X347125Y127734D01*
X348000Y127618D01*
X348875Y127734D01*
X349691Y128071D01*
X350391Y128609D01*
X350929Y129309D01*
X351266Y130125D01*
X351382Y131000D01*
X351266Y131875D01*
X350929Y132691D01*
X350391Y133391D01*
X349828Y133823D01*
X349702Y134404D01*
X351380Y136082D01*
X370620D01*
X372082Y134620D01*
Y128000D01*
X372152Y127649D01*
X372351Y127351D01*
X373851Y125851D01*
X374149Y125652D01*
X374500Y125582D01*
X381000D01*
X381351Y125652D01*
X381649Y125851D01*
X383149Y127351D01*
X383348Y127649D01*
X383418Y128000D01*
Y145120D01*
X386351Y148054D01*
X387125Y147733D01*
X388000Y147618D01*
X388875Y147733D01*
X389691Y148071D01*
X390391Y148609D01*
X390929Y149309D01*
X391266Y150125D01*
X391382Y151000D01*
X391266Y151875D01*
X390929Y152691D01*
X390391Y153391D01*
X389691Y153929D01*
X388875Y154267D01*
X388000Y154382D01*
X387125Y154267D01*
X386309Y153929D01*
X385609Y153391D01*
X385071Y152691D01*
X384734Y151875D01*
X384618Y151000D01*
X384734Y150125D01*
X385054Y149352D01*
X381851Y146149D01*
X381652Y145851D01*
X381582Y145500D01*
Y132419D01*
X381082Y132320D01*
X380929Y132691D01*
X380391Y133391D01*
X379691Y133929D01*
X378875Y134266D01*
X378867Y134268D01*
Y137000D01*
X378812Y137277D01*
X378801Y137332D01*
X378613Y137613D01*
X374113Y142113D01*
X373832Y142301D01*
X373500Y142367D01*
X351311D01*
X351284Y142386D01*
X351262Y142430D01*
X351537Y142995D01*
X351617Y143011D01*
X351801Y143133D01*
X377500D01*
X377832Y143199D01*
X378113Y143387D01*
X383113Y148387D01*
X383301Y148668D01*
X383367Y149000D01*
Y152141D01*
X386859Y155633D01*
X390500D01*
X390832Y155699D01*
X391113Y155887D01*
X393613Y158387D01*
X393801Y158668D01*
X393812Y158723D01*
X393867Y159000D01*
Y166500D01*
X393801Y166832D01*
X393613Y167113D01*
X388867Y171859D01*
Y179232D01*
X388875Y179234D01*
X389691Y179571D01*
X390391Y180109D01*
X390929Y180809D01*
X391266Y181625D01*
X391382Y182500D01*
X391266Y183375D01*
X390929Y184191D01*
X390391Y184891D01*
X389691Y185429D01*
X388875Y185766D01*
X388000Y185882D01*
X387125Y185766D01*
X386309Y185429D01*
X385609Y184891D01*
X385071Y184191D01*
X384734Y183375D01*
X384618Y182500D01*
X384734Y181625D01*
X385071Y180809D01*
X385609Y180109D01*
X386309Y179571D01*
X387125Y179234D01*
X387133Y179232D01*
Y171500D01*
X387199Y171168D01*
X387387Y170887D01*
X392133Y166141D01*
Y159359D01*
X390141Y157367D01*
X386500D01*
X386223Y157312D01*
X386168Y157301D01*
X385887Y157113D01*
X383859Y155084D01*
X383338Y155218D01*
X383317Y155250D01*
X383367Y155500D01*
Y182500D01*
Y209500D01*
X383312Y209777D01*
X383301Y209832D01*
X383113Y210113D01*
X380923Y212302D01*
X380929Y212309D01*
X381266Y213125D01*
X381382Y214000D01*
X381266Y214875D01*
X380929Y215691D01*
X380391Y216391D01*
X379691Y216929D01*
X378875Y217266D01*
X378000Y217382D01*
X377125Y217266D01*
X376309Y216929D01*
X375609Y216391D01*
X375071Y215691D01*
X374734Y214875D01*
X374618Y214000D01*
X374734Y213125D01*
X375071Y212309D01*
X375609Y211609D01*
X376309Y211071D01*
X377125Y210734D01*
X378000Y210618D01*
X378875Y210734D01*
X379691Y211071D01*
X379698Y211077D01*
X381633Y209141D01*
Y195296D01*
X381133Y195197D01*
X380929Y195691D01*
X380391Y196391D01*
X379691Y196929D01*
X378875Y197266D01*
X378000Y197382D01*
X377125Y197266D01*
X376309Y196929D01*
X375609Y196391D01*
X375071Y195691D01*
X374734Y194875D01*
X374618Y194000D01*
X374734Y193125D01*
X375071Y192309D01*
X375609Y191609D01*
X376309Y191071D01*
X377125Y190734D01*
X378000Y190618D01*
X378875Y190734D01*
X379691Y191071D01*
X380391Y191609D01*
X380929Y192309D01*
X381133Y192803D01*
X381633Y192704D01*
Y183796D01*
X381133Y183697D01*
X380929Y184191D01*
X380391Y184891D01*
X379691Y185429D01*
X378875Y185766D01*
X378000Y185882D01*
X377125Y185766D01*
X376309Y185429D01*
X375609Y184891D01*
X375071Y184191D01*
X374734Y183375D01*
X374618Y182500D01*
X374734Y181625D01*
X375071Y180809D01*
X375609Y180109D01*
X376309Y179571D01*
X377125Y179234D01*
X378000Y179118D01*
X378875Y179234D01*
X379691Y179571D01*
X380391Y180109D01*
X380929Y180809D01*
X381133Y181303D01*
X381633Y181204D01*
Y163796D01*
X381133Y163697D01*
X380929Y164191D01*
X380391Y164891D01*
X379691Y165429D01*
X378875Y165767D01*
X378000Y165882D01*
X377125Y165767D01*
X376309Y165429D01*
X375609Y164891D01*
X375071Y164191D01*
X374734Y163375D01*
X374618Y162500D01*
X374734Y161625D01*
X375071Y160809D01*
X375609Y160109D01*
X376309Y159571D01*
X377125Y159233D01*
X378000Y159118D01*
X378875Y159233D01*
X379691Y159571D01*
X380391Y160109D01*
X380929Y160809D01*
X381133Y161303D01*
X381633Y161204D01*
Y155859D01*
X379698Y153923D01*
X379691Y153929D01*
X378875Y154267D01*
X378000Y154382D01*
X377125Y154267D01*
X376309Y153929D01*
X375609Y153391D01*
X375071Y152691D01*
X374734Y151875D01*
X374618Y151000D01*
X374734Y150125D01*
X375071Y149309D01*
X375077Y149302D01*
X373141Y147367D01*
X369296D01*
X369197Y147867D01*
X369691Y148071D01*
X370391Y148609D01*
X370929Y149309D01*
X371266Y150125D01*
X371382Y151000D01*
X371266Y151875D01*
X370929Y152691D01*
X370923Y152698D01*
X373113Y154887D01*
X373301Y155168D01*
X373312Y155223D01*
X373367Y155500D01*
Y182500D01*
X373301Y182832D01*
X373113Y183113D01*
X372867Y183359D01*
Y196500D01*
X372801Y196832D01*
X372613Y197113D01*
X372476Y197250D01*
Y197750D01*
X373113Y198387D01*
X373301Y198668D01*
X373312Y198723D01*
X373367Y199000D01*
Y205701D01*
X373867Y205908D01*
X374633Y205141D01*
Y202822D01*
X374360Y202640D01*
X374011Y202117D01*
X373888Y201500D01*
X374011Y200883D01*
X374360Y200360D01*
X374883Y200011D01*
X375500Y199888D01*
X376117Y200011D01*
X376640Y200360D01*
X376989Y200883D01*
X377112Y201500D01*
X376989Y202117D01*
X376640Y202640D01*
X376367Y202822D01*
Y205500D01*
X376301Y205832D01*
X376113Y206113D01*
X372867Y209359D01*
Y216000D01*
X372801Y216332D01*
X372613Y216613D01*
X371155Y218070D01*
X371346Y218532D01*
X373170D01*
X373351Y218351D01*
X373649Y218152D01*
X374000Y218082D01*
X374351Y218152D01*
X374649Y218351D01*
X374848Y218649D01*
X374918Y219000D01*
X374848Y219351D01*
X374649Y219649D01*
X374199Y220099D01*
X373901Y220298D01*
X373550Y220368D01*
X369930D01*
X369918Y220380D01*
Y223544D01*
X369848Y223895D01*
X369649Y224193D01*
X369351Y224392D01*
X369000Y224462D01*
X368649Y224392D01*
X368351Y224193D01*
X368152Y223895D01*
X368082Y223544D01*
Y220000D01*
X368152Y219649D01*
X368341Y219367D01*
X368299Y219148D01*
X368182Y218867D01*
X345000D01*
X344668Y218801D01*
X344387Y218613D01*
X343018Y217244D01*
X342918Y217093D01*
X342418Y217245D01*
Y218120D01*
X343738Y219440D01*
X344000Y219388D01*
X344617Y219511D01*
X345140Y219860D01*
X345489Y220383D01*
X345612Y221000D01*
X345489Y221617D01*
X345140Y222140D01*
X344617Y222489D01*
X344000Y222612D01*
X343383Y222489D01*
X342860Y222140D01*
X342563Y221696D01*
D01*
X342511Y221617D01*
X342491Y221625D01*
X342125Y221768D01*
X342102Y221777D01*
X342076Y221787D01*
X342070Y221789D01*
X342082Y221847D01*
Y221847D01*
X342112Y222000D01*
X341989Y222617D01*
X341640Y223140D01*
X341117Y223489D01*
X340500Y223612D01*
X340444Y223601D01*
X340057Y223918D01*
Y224220D01*
X337118D01*
Y225524D01*
Y225524D01*
Y225524D01*
X337133Y225575D01*
X337150Y225577D01*
X337582Y225619D01*
X337603Y225621D01*
X337616Y225623D01*
X337618Y225623D01*
X337631Y225557D01*
X337642Y225502D01*
X337645Y225483D01*
X337652Y225449D01*
X337851Y225151D01*
X337851Y225151D01*
X337905Y225115D01*
X338149Y224952D01*
X338500Y224882D01*
X338851Y224952D01*
X339149Y225151D01*
X339399Y225401D01*
X339598Y225699D01*
X339609Y225757D01*
X339668Y226050D01*
Y226562D01*
X340168Y226838D01*
X340319Y226743D01*
X340332Y226718D01*
Y226550D01*
X340402Y226199D01*
X340601Y225901D01*
X341351Y225151D01*
X341649Y224952D01*
X342000Y224882D01*
X347352D01*
X347746Y224625D01*
X347746Y224382D01*
Y219691D01*
X354246D01*
X354254Y219691D01*
X354500D01*
X354746D01*
X354754Y219691D01*
X361254D01*
Y224625D01*
X356762D01*
X356610Y225125D01*
X356649Y225151D01*
X358472Y226975D01*
X361254D01*
Y231909D01*
X354754D01*
X354746Y231909D01*
X354500D01*
X354254D01*
X354246Y231909D01*
X351918D01*
Y233512D01*
X352140Y233660D01*
X352489Y234183D01*
X352612Y234800D01*
X352489Y235417D01*
X352140Y235940D01*
X351617Y236289D01*
X351000Y236412D01*
X350383Y236289D01*
X349860Y235940D01*
X349511Y235417D01*
X349388Y234800D01*
X349511Y234183D01*
X349860Y233660D01*
X350082Y233512D01*
Y232262D01*
X349729Y231909D01*
X347900D01*
X347746Y231909D01*
X347400Y232265D01*
X347400Y232265D01*
Y233450D01*
X345400D01*
X345100Y233450D01*
X345000D01*
X344900D01*
X344600Y233450D01*
X342900D01*
X342600Y233450D01*
X342500D01*
X342400D01*
X342100Y233450D01*
X340100D01*
Y230689D01*
X339600Y230640D01*
X339598Y230651D01*
X339399Y230949D01*
X339101Y231148D01*
X338750Y231218D01*
X338399Y231148D01*
X338101Y230949D01*
X337902Y230651D01*
X337850Y230389D01*
X337350Y230438D01*
Y233450D01*
X335050D01*
Y233450D01*
X334850D01*
Y233450D01*
X332850D01*
X332550Y233450D01*
X332550Y233450D01*
X332350D01*
Y233450D01*
X332350Y233450D01*
X330050D01*
Y233450D01*
X329720Y233813D01*
Y236578D01*
X330822Y237680D01*
X352369D01*
X354470Y235579D01*
X354801Y235358D01*
X355191Y235280D01*
X355391D01*
Y233046D01*
X360325D01*
Y239546D01*
X360325Y239554D01*
Y239800D01*
Y240046D01*
X360325Y240054D01*
Y246554D01*
X356505D01*
X356314Y247016D01*
X364649Y255351D01*
X364848Y255649D01*
X364859Y255707D01*
X364918Y256000D01*
Y259810D01*
X365341Y260087D01*
X365418Y260099D01*
X365821Y260018D01*
X367321D01*
X367770Y260108D01*
X368150Y260362D01*
X368404Y260742D01*
X368493Y261191D01*
Y262403D01*
X368612Y263000D01*
X368493Y263597D01*
Y264809D01*
X368404Y265258D01*
X368150Y265638D01*
X367770Y265892D01*
X367321Y265982D01*
X365821D01*
X365418Y265901D01*
X365341Y265913D01*
X364918Y266190D01*
Y267582D01*
X369549D01*
X373507Y263625D01*
Y261191D01*
X373596Y260742D01*
X373850Y260362D01*
X374230Y260108D01*
X374679Y260018D01*
X376179D01*
X376628Y260108D01*
X377008Y260362D01*
X377262Y260742D01*
X377352Y261191D01*
Y262082D01*
X378620D01*
X379082Y261620D01*
Y260000D01*
X379152Y259649D01*
X379351Y259351D01*
X381351Y257351D01*
X381649Y257152D01*
X382000Y257082D01*
X390000D01*
X390351Y257152D01*
X390649Y257351D01*
X392578Y259280D01*
X392777Y259578D01*
X392847Y259929D01*
Y260052D01*
X393128Y260108D01*
X393508Y260362D01*
X393762Y260742D01*
X393852Y261191D01*
Y264809D01*
X393762Y265258D01*
X393508Y265638D01*
X393128Y265892D01*
X392679Y265982D01*
X391179D01*
X390730Y265892D01*
X390350Y265638D01*
X390096Y265258D01*
X390007Y264809D01*
Y261191D01*
X390096Y260742D01*
X390350Y260362D01*
X390354Y260359D01*
X390418Y259715D01*
X389620Y258918D01*
X382380D01*
X381698Y259600D01*
X381873Y260080D01*
X381903Y260102D01*
X382321Y260018D01*
X383821D01*
X384270Y260108D01*
X384650Y260362D01*
X384904Y260742D01*
X384993Y261191D01*
Y264809D01*
X384904Y265258D01*
X384650Y265638D01*
X384270Y265892D01*
X383821Y265982D01*
X382321D01*
X381872Y265892D01*
X381492Y265638D01*
X381238Y265258D01*
X381148Y264809D01*
Y262801D01*
X380651Y262649D01*
X380648Y262649D01*
X379649Y263649D01*
X379351Y263848D01*
X379000Y263918D01*
X377352D01*
Y264809D01*
X377262Y265258D01*
X377008Y265638D01*
X376628Y265892D01*
X376179Y265982D01*
X374679D01*
X374230Y265892D01*
X373993Y265734D01*
X370578Y269149D01*
X370280Y269348D01*
X369929Y269418D01*
D02*
G37*
G36*
X334016Y280942D02*
X332998Y280807D01*
X332049Y280415D01*
X331234Y279789D01*
X330609Y278975D01*
X330216Y278026D01*
X330082Y277008D01*
X330216Y275990D01*
X330609Y275041D01*
X331234Y274226D01*
X332049Y273601D01*
X332998Y273208D01*
X334016Y273074D01*
X335034Y273208D01*
X335983Y273601D01*
X336797Y274226D01*
X337422Y275041D01*
X337815Y275990D01*
X337949Y277008D01*
X337815Y278026D01*
X337422Y278975D01*
X336797Y279789D01*
X335983Y280415D01*
X335034Y280807D01*
X334016Y280942D01*
D02*
G37*
G36*
X294016D02*
X292998Y280807D01*
X292049Y280415D01*
X291234Y279789D01*
X290609Y278975D01*
X290216Y278026D01*
X290082Y277008D01*
X290216Y275990D01*
X290609Y275041D01*
X291234Y274226D01*
X292049Y273601D01*
X292998Y273208D01*
X294016Y273074D01*
X295034Y273208D01*
X295983Y273601D01*
X296797Y274226D01*
X297422Y275041D01*
X297815Y275990D01*
X297949Y277008D01*
X297815Y278026D01*
X297422Y278975D01*
X296797Y279789D01*
X295983Y280415D01*
X295034Y280807D01*
X294016Y280942D01*
D02*
G37*
G36*
X344016D02*
X342998Y280807D01*
X342049Y280415D01*
X341234Y279789D01*
X340609Y278975D01*
X340216Y278026D01*
X340082Y277008D01*
X340216Y275990D01*
X340609Y275041D01*
X341234Y274226D01*
X342049Y273601D01*
X342998Y273208D01*
X344016Y273074D01*
X345034Y273208D01*
X345983Y273601D01*
X346797Y274226D01*
X347422Y275041D01*
X347815Y275990D01*
X347949Y277008D01*
X347815Y278026D01*
X347422Y278975D01*
X346797Y279789D01*
X345983Y280415D01*
X345034Y280807D01*
X344016Y280942D01*
D02*
G37*
G36*
X167916Y280908D02*
X160116D01*
Y273108D01*
X167916D01*
Y280908D01*
D02*
G37*
G36*
X354016Y280942D02*
X352998Y280807D01*
X352049Y280415D01*
X351234Y279789D01*
X350609Y278975D01*
X350216Y278026D01*
X350082Y277008D01*
X350216Y275990D01*
X350609Y275041D01*
X351234Y274226D01*
X352049Y273601D01*
X352998Y273208D01*
X354016Y273074D01*
X355034Y273208D01*
X355983Y273601D01*
X356797Y274226D01*
X357422Y275041D01*
X357815Y275990D01*
X357949Y277008D01*
X357815Y278026D01*
X357422Y278975D01*
X356797Y279789D01*
X355983Y280415D01*
X355034Y280807D01*
X354016Y280942D01*
D02*
G37*
G36*
X184016D02*
X182998Y280807D01*
X182049Y280415D01*
X181234Y279789D01*
X180609Y278975D01*
X180216Y278026D01*
X180082Y277008D01*
X180216Y275990D01*
X180609Y275041D01*
X181234Y274226D01*
X182049Y273601D01*
X182998Y273208D01*
X184016Y273074D01*
X185034Y273208D01*
X185983Y273601D01*
X186797Y274226D01*
X187422Y275041D01*
X187815Y275990D01*
X187949Y277008D01*
X187815Y278026D01*
X187422Y278975D01*
X186797Y279789D01*
X185983Y280415D01*
X185034Y280807D01*
X184016Y280942D01*
D02*
G37*
G36*
X174016D02*
X172998Y280807D01*
X172049Y280415D01*
X171234Y279789D01*
X170609Y278975D01*
X170216Y278026D01*
X170082Y277008D01*
X170216Y275990D01*
X170609Y275041D01*
X171234Y274226D01*
X172049Y273601D01*
X172998Y273208D01*
X174016Y273074D01*
X175034Y273208D01*
X175983Y273601D01*
X176797Y274226D01*
X177422Y275041D01*
X177815Y275990D01*
X177949Y277008D01*
X177815Y278026D01*
X177422Y278975D01*
X176797Y279789D01*
X175983Y280415D01*
X175034Y280807D01*
X174016Y280942D01*
D02*
G37*
G36*
X194016D02*
X192998Y280807D01*
X192049Y280415D01*
X191234Y279789D01*
X190609Y278975D01*
X190216Y278026D01*
X190082Y277008D01*
X190216Y275990D01*
X190609Y275041D01*
X191234Y274226D01*
X192049Y273601D01*
X192998Y273208D01*
X194016Y273074D01*
X195034Y273208D01*
X195983Y273601D01*
X196797Y274226D01*
X197422Y275041D01*
X197815Y275990D01*
X197949Y277008D01*
X197815Y278026D01*
X197422Y278975D01*
X196797Y279789D01*
X195983Y280415D01*
X195034Y280807D01*
X194016Y280942D01*
D02*
G37*
G36*
X284016D02*
X282998Y280807D01*
X282049Y280415D01*
X281234Y279789D01*
X280609Y278975D01*
X280216Y278026D01*
X280082Y277008D01*
X280216Y275990D01*
X280609Y275041D01*
X281234Y274226D01*
X282049Y273601D01*
X282998Y273208D01*
X284016Y273074D01*
X285034Y273208D01*
X285983Y273601D01*
X286797Y274226D01*
X287422Y275041D01*
X287815Y275990D01*
X287949Y277008D01*
X287815Y278026D01*
X287422Y278975D01*
X286797Y279789D01*
X285983Y280415D01*
X285034Y280807D01*
X284016Y280942D01*
D02*
G37*
G36*
X274016D02*
X272998Y280807D01*
X272049Y280415D01*
X271234Y279789D01*
X270609Y278975D01*
X270216Y278026D01*
X270082Y277008D01*
X270216Y275990D01*
X270609Y275041D01*
X271234Y274226D01*
X272049Y273601D01*
X272998Y273208D01*
X274016Y273074D01*
X275034Y273208D01*
X275983Y273601D01*
X276797Y274226D01*
X277422Y275041D01*
X277815Y275990D01*
X277949Y277008D01*
X277815Y278026D01*
X277422Y278975D01*
X276797Y279789D01*
X275983Y280415D01*
X275034Y280807D01*
X274016Y280942D01*
D02*
G37*
G36*
X331000Y185612D02*
X330383Y185489D01*
X329860Y185140D01*
X329511Y184617D01*
X329388Y184000D01*
X329452Y183678D01*
X326817Y181042D01*
X326465Y181112D01*
X320756D01*
X320139Y180989D01*
X319616Y180640D01*
X319267Y180117D01*
X319144Y179500D01*
X319267Y178883D01*
X319616Y178360D01*
X320139Y178011D01*
X320756Y177888D01*
X326465D01*
X327081Y178011D01*
X327605Y178360D01*
X327954Y178883D01*
X328077Y179500D01*
X328018Y179793D01*
X330678Y182452D01*
X331000Y182388D01*
X331617Y182511D01*
X332140Y182860D01*
X332489Y183383D01*
X332612Y184000D01*
X332489Y184617D01*
X332140Y185140D01*
X331617Y185489D01*
X331000Y185612D01*
D02*
G37*
G36*
X278550Y186550D02*
X271450D01*
Y179450D01*
X278550D01*
Y186550D01*
D02*
G37*
G36*
X334016Y290942D02*
X332998Y290808D01*
X332049Y290415D01*
X331234Y289789D01*
X330609Y288975D01*
X330216Y288026D01*
X330082Y287008D01*
X330216Y285990D01*
X330609Y285041D01*
X331234Y284226D01*
X332049Y283601D01*
X332998Y283208D01*
X334016Y283074D01*
X335034Y283208D01*
X335983Y283601D01*
X336797Y284226D01*
X337422Y285041D01*
X337815Y285990D01*
X337949Y287008D01*
X337815Y288026D01*
X337422Y288975D01*
X336797Y289789D01*
X335983Y290415D01*
X335034Y290808D01*
X334016Y290942D01*
D02*
G37*
G36*
X388000Y197382D02*
X387125Y197266D01*
X386309Y196929D01*
X385609Y196391D01*
X385071Y195691D01*
X384734Y194875D01*
X384618Y194000D01*
X384734Y193125D01*
X385071Y192309D01*
X385609Y191609D01*
X386309Y191071D01*
X387125Y190734D01*
X388000Y190618D01*
X388875Y190734D01*
X389691Y191071D01*
X390391Y191609D01*
X390929Y192309D01*
X391266Y193125D01*
X391382Y194000D01*
X391266Y194875D01*
X390929Y195691D01*
X390391Y196391D01*
X389691Y196929D01*
X388875Y197266D01*
X388000Y197382D01*
D02*
G37*
G36*
X293500Y192112D02*
X292883Y191989D01*
X292360Y191640D01*
X292011Y191117D01*
X291932Y190720D01*
X291401Y190615D01*
X291384Y190640D01*
X290861Y190989D01*
X290244Y191112D01*
X284535D01*
X283918Y190989D01*
X283396Y190640D01*
X283046Y190117D01*
X282923Y189500D01*
X283046Y188883D01*
X283396Y188360D01*
X283918Y188011D01*
X284535Y187888D01*
X290244D01*
X290861Y188011D01*
X291384Y188360D01*
X291532Y188582D01*
X292500D01*
X292851Y188652D01*
X293149Y188851D01*
X293238Y188940D01*
X293500Y188888D01*
X294117Y189011D01*
X294640Y189360D01*
X294989Y189883D01*
X295112Y190500D01*
X294989Y191117D01*
X294640Y191640D01*
X294117Y191989D01*
X293500Y192112D01*
D02*
G37*
G36*
X344016Y290942D02*
X342998Y290808D01*
X342049Y290415D01*
X341234Y289789D01*
X340609Y288975D01*
X340216Y288026D01*
X340082Y287008D01*
X340216Y285990D01*
X340609Y285041D01*
X341234Y284226D01*
X342049Y283601D01*
X342998Y283208D01*
X344016Y283074D01*
X345034Y283208D01*
X345983Y283601D01*
X346797Y284226D01*
X347422Y285041D01*
X347815Y285990D01*
X347949Y287008D01*
X347815Y288026D01*
X347422Y288975D01*
X346797Y289789D01*
X345983Y290415D01*
X345034Y290808D01*
X344016Y290942D01*
D02*
G37*
G36*
X354016D02*
X352998Y290808D01*
X352049Y290415D01*
X351234Y289789D01*
X350609Y288975D01*
X350216Y288026D01*
X350082Y287008D01*
X350216Y285990D01*
X350609Y285041D01*
X351234Y284226D01*
X352049Y283601D01*
X352998Y283208D01*
X354016Y283074D01*
X355034Y283208D01*
X355983Y283601D01*
X356797Y284226D01*
X357422Y285041D01*
X357815Y285990D01*
X357949Y287008D01*
X357815Y288026D01*
X357422Y288975D01*
X356797Y289789D01*
X355983Y290415D01*
X355034Y290808D01*
X354016Y290942D01*
D02*
G37*
G36*
X168020Y179977D02*
X166990Y179842D01*
X166031Y179445D01*
X165207Y178812D01*
X164575Y177989D01*
X164178Y177029D01*
X164042Y176000D01*
X164178Y174971D01*
X164575Y174011D01*
X165207Y173188D01*
X166031Y172555D01*
X166990Y172158D01*
X168020Y172023D01*
X169049Y172158D01*
X170008Y172555D01*
X170832Y173188D01*
X171464Y174011D01*
X171862Y174971D01*
X171997Y176000D01*
X171862Y177029D01*
X171464Y177989D01*
X170832Y178812D01*
X170008Y179445D01*
X169049Y179842D01*
X168020Y179977D01*
D02*
G37*
G36*
X197035Y183973D02*
X196006Y183838D01*
X195047Y183440D01*
X194223Y182808D01*
X193591Y181985D01*
X193194Y181026D01*
X193058Y179996D01*
X193194Y178967D01*
X193591Y178007D01*
X194223Y177184D01*
X195047Y176552D01*
X196006Y176154D01*
X197035Y176019D01*
X198065Y176154D01*
X199024Y176552D01*
X199848Y177184D01*
X200480Y178007D01*
X200877Y178967D01*
X201013Y179996D01*
X200877Y181026D01*
X200480Y181985D01*
X199848Y182808D01*
X199024Y183440D01*
X198065Y183838D01*
X197035Y183973D01*
D02*
G37*
G36*
X290244Y176112D02*
X284535D01*
X283918Y175989D01*
X283396Y175640D01*
X283257Y175432D01*
X282779D01*
X282640Y175640D01*
X282117Y175989D01*
X281500Y176112D01*
X280883Y175989D01*
X280360Y175640D01*
X280011Y175117D01*
X279888Y174500D01*
X280011Y173883D01*
X280360Y173360D01*
X280883Y173011D01*
X281500Y172888D01*
X282117Y173011D01*
X282640Y173360D01*
X282779Y173568D01*
X283257D01*
X283396Y173360D01*
X283918Y173011D01*
X284535Y172888D01*
X290244D01*
X290861Y173011D01*
X291384Y173360D01*
X291734Y173883D01*
X291856Y174500D01*
X291734Y175117D01*
X291384Y175640D01*
X290861Y175989D01*
X290244Y176112D01*
D02*
G37*
G36*
X296000Y196112D02*
X295383Y195989D01*
X294860Y195640D01*
X294712Y195418D01*
X291532D01*
X291384Y195640D01*
X290861Y195989D01*
X290244Y196112D01*
X284535D01*
X283918Y195989D01*
X283396Y195640D01*
X283046Y195117D01*
X282923Y194500D01*
X283046Y193883D01*
X283396Y193360D01*
X283918Y193011D01*
X284535Y192888D01*
X290244D01*
X290861Y193011D01*
X291384Y193360D01*
X291532Y193582D01*
X294712D01*
X294860Y193360D01*
X295383Y193011D01*
X296000Y192888D01*
X296617Y193011D01*
X297140Y193360D01*
X297489Y193883D01*
X297612Y194500D01*
X297489Y195117D01*
X297140Y195640D01*
X296617Y195989D01*
X296000Y196112D01*
D02*
G37*
G36*
X197035Y217981D02*
X196006Y217846D01*
X195047Y217448D01*
X194223Y216816D01*
X193591Y215993D01*
X193194Y215033D01*
X193058Y214004D01*
X193194Y212975D01*
X193591Y212015D01*
X194223Y211192D01*
X195047Y210560D01*
X196006Y210162D01*
X196118Y210147D01*
Y209965D01*
X196188Y209613D01*
X196387Y209316D01*
X198347Y207355D01*
X198645Y207156D01*
X198996Y207086D01*
X202746D01*
Y205891D01*
X209254D01*
Y210825D01*
X202746D01*
Y208922D01*
X199376D01*
X198433Y209865D01*
X198531Y210355D01*
X199024Y210560D01*
X199848Y211192D01*
X200480Y212015D01*
X200877Y212975D01*
X201013Y214004D01*
X200877Y215033D01*
X200480Y215993D01*
X199848Y216816D01*
X199024Y217448D01*
X198065Y217846D01*
X197035Y217981D01*
D02*
G37*
G36*
X329000Y206112D02*
X328383Y205989D01*
X328099Y205800D01*
X327732Y205681D01*
X327365Y205800D01*
X327081Y205989D01*
X326465Y206112D01*
X320756D01*
X320139Y205989D01*
X319616Y205640D01*
X319267Y205117D01*
X319144Y204500D01*
X319267Y203883D01*
X319616Y203360D01*
X320139Y203011D01*
X320756Y202888D01*
X326465D01*
X327081Y203011D01*
X327365Y203200D01*
X327732Y203319D01*
X328099Y203200D01*
X328383Y203011D01*
X329000Y202888D01*
X329617Y203011D01*
X330140Y203360D01*
X330489Y203883D01*
X330612Y204500D01*
X330489Y205117D01*
X330140Y205640D01*
X329617Y205989D01*
X329000Y206112D01*
D02*
G37*
G36*
X387500Y222112D02*
X386883Y221989D01*
X386360Y221640D01*
X386011Y221117D01*
X385888Y220500D01*
X386011Y219883D01*
X386360Y219360D01*
X386582Y219212D01*
Y217042D01*
X386309Y216929D01*
X385609Y216391D01*
X385071Y215691D01*
X384734Y214875D01*
X384618Y214000D01*
X384734Y213125D01*
X385071Y212309D01*
X385609Y211609D01*
X386309Y211071D01*
X387125Y210734D01*
X388000Y210618D01*
X388875Y210734D01*
X389691Y211071D01*
X390391Y211609D01*
X390929Y212309D01*
X391266Y213125D01*
X391382Y214000D01*
X391266Y214875D01*
X390929Y215691D01*
X390391Y216391D01*
X389691Y216929D01*
X388875Y217266D01*
X388418Y217327D01*
Y219212D01*
X388640Y219360D01*
X388989Y219883D01*
X389112Y220500D01*
X388989Y221117D01*
X388640Y221640D01*
X388117Y221989D01*
X387500Y222112D01*
D02*
G37*
G36*
X319000Y228112D02*
X318383Y227989D01*
X317860Y227640D01*
X317511Y227117D01*
X317388Y226500D01*
X317511Y225883D01*
X317860Y225360D01*
X318082Y225212D01*
Y224321D01*
X315943D01*
Y219309D01*
X315943Y219191D01*
Y219000D01*
Y218809D01*
X315943Y218690D01*
Y216968D01*
X314500D01*
Y220600D01*
X308200D01*
Y211500D01*
X309995D01*
X310202Y211000D01*
X309620Y210418D01*
X292788D01*
X292640Y210640D01*
X292117Y210989D01*
X291500Y211112D01*
X290883Y210989D01*
X290360Y210640D01*
X290011Y210117D01*
X289888Y209500D01*
X290011Y208883D01*
X290360Y208360D01*
X290883Y208011D01*
X291500Y207888D01*
X292117Y208011D01*
X292640Y208360D01*
X292788Y208582D01*
X310000D01*
X310351Y208652D01*
X310649Y208851D01*
X311999Y210201D01*
X312198Y210499D01*
X312268Y210850D01*
Y211500D01*
X314500D01*
Y215132D01*
X315943D01*
Y213679D01*
X322058D01*
Y218690D01*
X322058Y218809D01*
Y219000D01*
Y219191D01*
X322058Y219309D01*
Y224321D01*
X319918D01*
Y225212D01*
X320140Y225360D01*
X320489Y225883D01*
X320612Y226500D01*
X320489Y227117D01*
X320140Y227640D01*
X319617Y227989D01*
X319000Y228112D01*
D02*
G37*
G36*
X209254Y218109D02*
X202746D01*
Y213175D01*
X209254D01*
Y214724D01*
X225117D01*
X225360Y214360D01*
X225883Y214011D01*
X226500Y213888D01*
X227117Y214011D01*
X227640Y214360D01*
X227989Y214883D01*
X228112Y215500D01*
X227989Y216117D01*
X227640Y216640D01*
X227117Y216989D01*
X226500Y217112D01*
X225883Y216989D01*
X225360Y216640D01*
X225306Y216559D01*
X209254D01*
Y218109D01*
D02*
G37*
G36*
X294016Y290942D02*
X292998Y290808D01*
X292049Y290415D01*
X291234Y289789D01*
X290609Y288975D01*
X290216Y288026D01*
X290082Y287008D01*
X290216Y285990D01*
X290609Y285041D01*
X291234Y284226D01*
X292049Y283601D01*
X292998Y283208D01*
X294016Y283074D01*
X295034Y283208D01*
X295983Y283601D01*
X296797Y284226D01*
X297422Y285041D01*
X297815Y285990D01*
X297949Y287008D01*
X297815Y288026D01*
X297422Y288975D01*
X296797Y289789D01*
X295983Y290415D01*
X295034Y290808D01*
X294016Y290942D01*
D02*
G37*
G36*
X324016D02*
X322998Y290808D01*
X322049Y290415D01*
X321234Y289789D01*
X320609Y288975D01*
X320216Y288026D01*
X320082Y287008D01*
X320216Y285990D01*
X320609Y285041D01*
X321234Y284226D01*
X322049Y283601D01*
X322998Y283208D01*
X324016Y283074D01*
X325034Y283208D01*
X325983Y283601D01*
X326797Y284226D01*
X327422Y285041D01*
X327815Y285990D01*
X327949Y287008D01*
X327815Y288026D01*
X327422Y288975D01*
X326797Y289789D01*
X325983Y290415D01*
X325034Y290808D01*
X324016Y290942D01*
D02*
G37*
G36*
X284016D02*
X282998Y290808D01*
X282049Y290415D01*
X281234Y289789D01*
X280609Y288975D01*
X280216Y288026D01*
X280082Y287008D01*
X280216Y285990D01*
X280609Y285041D01*
X281234Y284226D01*
X282049Y283601D01*
X282998Y283208D01*
X284016Y283074D01*
X285034Y283208D01*
X285983Y283601D01*
X286797Y284226D01*
X287422Y285041D01*
X287815Y285990D01*
X287949Y287008D01*
X287815Y288026D01*
X287422Y288975D01*
X286797Y289789D01*
X285983Y290415D01*
X285034Y290808D01*
X284016Y290942D01*
D02*
G37*
G36*
X290244Y206112D02*
X284535D01*
X283918Y205989D01*
X283396Y205640D01*
X283046Y205117D01*
X282923Y204500D01*
X283046Y203883D01*
X283396Y203360D01*
X283918Y203011D01*
X284535Y202888D01*
X290244D01*
X290861Y203011D01*
X291384Y203360D01*
X291734Y203883D01*
X291856Y204500D01*
X291734Y205117D01*
X291384Y205640D01*
X290861Y205989D01*
X290244Y206112D01*
D02*
G37*
G36*
Y201112D02*
X284535D01*
X283918Y200989D01*
X283396Y200640D01*
X283046Y200117D01*
X282923Y199500D01*
X283046Y198883D01*
X283396Y198360D01*
X283918Y198011D01*
X284535Y197888D01*
X290244D01*
X290861Y198011D01*
X291384Y198360D01*
X291734Y198883D01*
X291856Y199500D01*
X291734Y200117D01*
X291384Y200640D01*
X290861Y200989D01*
X290244Y201112D01*
D02*
G37*
%LPD*%
G36*
X345071Y212309D02*
X345609Y211609D01*
X346309Y211071D01*
X347125Y210734D01*
X348000Y210618D01*
X348875Y210734D01*
X349691Y211071D01*
X349698Y211077D01*
X351133Y209641D01*
Y196245D01*
X350633Y196076D01*
X350391Y196391D01*
X349691Y196929D01*
X348918Y197249D01*
Y202000D01*
X348859Y202293D01*
X348848Y202351D01*
X348649Y202649D01*
X345560Y205738D01*
X345612Y206000D01*
X345489Y206617D01*
X345140Y207140D01*
X344617Y207489D01*
X344000Y207612D01*
X343383Y207489D01*
X342860Y207140D01*
X342511Y206617D01*
X342388Y206000D01*
X342511Y205383D01*
X342860Y204860D01*
X343383Y204511D01*
X344000Y204388D01*
X344262Y204440D01*
X347082Y201620D01*
Y197249D01*
X346309Y196929D01*
X345609Y196391D01*
X345071Y195691D01*
X344734Y194875D01*
X344618Y194000D01*
X344734Y193125D01*
X345071Y192309D01*
X345609Y191609D01*
X346309Y191071D01*
X347125Y190734D01*
X348000Y190618D01*
X348875Y190734D01*
X349691Y191071D01*
X350391Y191609D01*
X350633Y191924D01*
X351133Y191755D01*
Y184745D01*
X350633Y184576D01*
X350391Y184891D01*
X349691Y185429D01*
X348875Y185766D01*
X348000Y185882D01*
X347125Y185766D01*
X346309Y185429D01*
X345609Y184891D01*
X345071Y184191D01*
X344867Y183697D01*
X344367Y183796D01*
Y187500D01*
X344312Y187777D01*
X344301Y187832D01*
X344113Y188113D01*
X339867Y192359D01*
Y196177D01*
X340140Y196360D01*
X340489Y196883D01*
X340522Y197046D01*
X341064Y197210D01*
X341633Y196641D01*
Y194823D01*
X341360Y194640D01*
X341011Y194117D01*
X340888Y193500D01*
X341011Y192883D01*
X341360Y192360D01*
X341883Y192011D01*
X342500Y191888D01*
X343117Y192011D01*
X343640Y192360D01*
X343989Y192883D01*
X344112Y193500D01*
X343989Y194117D01*
X343640Y194640D01*
X343367Y194823D01*
Y197000D01*
X343301Y197332D01*
X343113Y197613D01*
X341772Y198954D01*
X341744Y198996D01*
X341037Y199703D01*
X341228Y200165D01*
X342657D01*
X342860Y199860D01*
X343383Y199511D01*
X344000Y199388D01*
X344617Y199511D01*
X345140Y199860D01*
X345489Y200383D01*
X345612Y201000D01*
X345489Y201617D01*
X345140Y202140D01*
X344617Y202489D01*
X344000Y202612D01*
X343383Y202489D01*
X342860Y202140D01*
X342698Y201898D01*
X336844D01*
X336637Y202398D01*
X344244Y210004D01*
X344432Y210286D01*
X344443Y210341D01*
X344498Y210617D01*
Y212387D01*
X344998Y212487D01*
X345071Y212309D01*
D02*
G37*
G36*
X355924Y216633D02*
X355609Y216391D01*
X355071Y215691D01*
X354734Y214875D01*
X354618Y214000D01*
X354734Y213125D01*
X355071Y212309D01*
X355609Y211609D01*
X356309Y211071D01*
X357125Y210734D01*
X358000Y210618D01*
X358875Y210734D01*
X359691Y211071D01*
X359698Y211077D01*
X361264Y209510D01*
Y207976D01*
X360887Y207599D01*
X360699Y207318D01*
X360633Y206986D01*
Y196836D01*
X360133Y196589D01*
X359691Y196929D01*
X358875Y197266D01*
X358000Y197382D01*
X357125Y197266D01*
X356309Y196929D01*
X355609Y196391D01*
X355071Y195691D01*
X354734Y194875D01*
X354618Y194000D01*
X354734Y193125D01*
X355071Y192309D01*
X355609Y191609D01*
X356309Y191071D01*
X357125Y190734D01*
X358000Y190618D01*
X358875Y190734D01*
X359691Y191071D01*
X360391Y191609D01*
X360536Y191798D01*
X361036Y191628D01*
Y189262D01*
X360887Y189113D01*
X360699Y188832D01*
X360633Y188500D01*
Y185336D01*
X360133Y185089D01*
X359691Y185429D01*
X358875Y185766D01*
X358000Y185882D01*
X357125Y185766D01*
X356309Y185429D01*
X355609Y184891D01*
X355071Y184191D01*
X354734Y183375D01*
X354618Y182500D01*
X354734Y181625D01*
X355071Y180809D01*
X355609Y180109D01*
X356309Y179571D01*
X357125Y179234D01*
X358000Y179118D01*
X358875Y179234D01*
X359691Y179571D01*
X360391Y180109D01*
X360929Y180809D01*
X361133Y181303D01*
X361633Y181204D01*
Y163796D01*
X361133Y163697D01*
X360929Y164191D01*
X360391Y164891D01*
X359691Y165429D01*
X358875Y165767D01*
X358000Y165882D01*
X357125Y165767D01*
X356309Y165429D01*
X355609Y164891D01*
X355071Y164191D01*
X354734Y163375D01*
X354618Y162500D01*
X354734Y161625D01*
X355071Y160809D01*
X355609Y160109D01*
X356309Y159571D01*
X357125Y159233D01*
X358000Y159118D01*
X358875Y159233D01*
X359691Y159571D01*
X360391Y160109D01*
X360929Y160809D01*
X361133Y161303D01*
X361633Y161204D01*
Y155859D01*
X359698Y153923D01*
X359691Y153929D01*
X358875Y154267D01*
X358000Y154382D01*
X357125Y154267D01*
X356309Y153929D01*
X355609Y153391D01*
X355071Y152691D01*
X354734Y151875D01*
X354618Y151000D01*
X354734Y150125D01*
X355071Y149309D01*
X355609Y148609D01*
X356309Y148071D01*
X356803Y147867D01*
X356704Y147367D01*
X355859D01*
X354113Y149113D01*
X353832Y149301D01*
X353500Y149367D01*
X351494D01*
X351160Y149867D01*
X351266Y150125D01*
X351382Y151000D01*
X351266Y151875D01*
X350929Y152691D01*
X350923Y152698D01*
X353613Y155387D01*
X353801Y155668D01*
X353867Y156000D01*
Y182500D01*
X353812Y182777D01*
X353801Y182832D01*
X353613Y183113D01*
X352867Y183859D01*
Y210000D01*
X352812Y210277D01*
X352801Y210332D01*
X352613Y210613D01*
X350923Y212302D01*
X350929Y212309D01*
X351266Y213125D01*
X351382Y214000D01*
X351266Y214875D01*
X350929Y215691D01*
X350391Y216391D01*
X350076Y216633D01*
X350245Y217133D01*
X355755D01*
X355924Y216633D01*
D02*
G37*
G36*
X365924D02*
X365609Y216391D01*
X365071Y215691D01*
X364734Y214875D01*
X364618Y214000D01*
X364734Y213125D01*
X365071Y212309D01*
X365609Y211609D01*
X366309Y211071D01*
X367125Y210734D01*
X367133Y210732D01*
Y210500D01*
X367199Y210168D01*
X367387Y209887D01*
X371633Y205641D01*
Y199359D01*
X370630Y198356D01*
X370442Y198075D01*
X370376Y197743D01*
Y197257D01*
X370429Y196992D01*
X370276Y196826D01*
X370021Y196675D01*
X369691Y196929D01*
X368875Y197266D01*
X368000Y197382D01*
X367125Y197266D01*
X366309Y196929D01*
X365609Y196391D01*
X365071Y195691D01*
X364734Y194875D01*
X364618Y194000D01*
X364734Y193125D01*
X365071Y192309D01*
X365609Y191609D01*
X366309Y191071D01*
X367125Y190734D01*
X368000Y190618D01*
X368875Y190734D01*
X369691Y191071D01*
X370391Y191609D01*
X370633Y191924D01*
X371133Y191755D01*
Y184745D01*
X370633Y184576D01*
X370391Y184891D01*
X369691Y185429D01*
X368875Y185766D01*
X368000Y185882D01*
X367125Y185766D01*
X366309Y185429D01*
X365609Y184891D01*
X365071Y184191D01*
X364734Y183375D01*
X364618Y182500D01*
X364734Y181625D01*
X365071Y180809D01*
X365609Y180109D01*
X366309Y179571D01*
X367125Y179234D01*
X368000Y179118D01*
X368875Y179234D01*
X369691Y179571D01*
X370391Y180109D01*
X370929Y180809D01*
X371133Y181303D01*
X371633Y181204D01*
Y163796D01*
X371133Y163697D01*
X370929Y164191D01*
X370391Y164891D01*
X369691Y165429D01*
X368875Y165767D01*
X368000Y165882D01*
X367125Y165767D01*
X366309Y165429D01*
X365609Y164891D01*
X365071Y164191D01*
X364734Y163375D01*
X364618Y162500D01*
X364734Y161625D01*
X365071Y160809D01*
X365609Y160109D01*
X366309Y159571D01*
X367125Y159233D01*
X368000Y159118D01*
X368875Y159233D01*
X369691Y159571D01*
X370391Y160109D01*
X370929Y160809D01*
X371133Y161303D01*
X371633Y161204D01*
Y155859D01*
X369698Y153923D01*
X369691Y153929D01*
X368875Y154267D01*
X368000Y154382D01*
X367125Y154267D01*
X366309Y153929D01*
X365609Y153391D01*
X365071Y152691D01*
X364734Y151875D01*
X364618Y151000D01*
X364734Y150125D01*
X365071Y149309D01*
X365609Y148609D01*
X366309Y148071D01*
X366803Y147867D01*
X366704Y147367D01*
X359296D01*
X359197Y147867D01*
X359691Y148071D01*
X360391Y148609D01*
X360929Y149309D01*
X361266Y150125D01*
X361382Y151000D01*
X361266Y151875D01*
X360929Y152691D01*
X360923Y152698D01*
X363113Y154887D01*
X363301Y155168D01*
X363312Y155223D01*
X363367Y155500D01*
Y182500D01*
X363312Y182777D01*
X363301Y182832D01*
X363113Y183113D01*
X362367Y183859D01*
Y188141D01*
X362516Y188290D01*
X362703Y188571D01*
X362769Y188903D01*
Y195617D01*
X362703Y195948D01*
X362516Y196229D01*
X362367Y196378D01*
Y206627D01*
X362744Y207004D01*
X362932Y207286D01*
X362998Y207617D01*
Y209869D01*
X362932Y210201D01*
X362744Y210482D01*
X360923Y212302D01*
X360929Y212309D01*
X361266Y213125D01*
X361382Y214000D01*
X361266Y214875D01*
X360929Y215691D01*
X360391Y216391D01*
X360076Y216633D01*
X360245Y217133D01*
X365755D01*
X365924Y216633D01*
D02*
G37*
G36*
X271905Y174797D02*
X271899Y174790D01*
X271542Y173927D01*
X271420Y173000D01*
X271542Y172073D01*
X271899Y171210D01*
X272468Y170468D01*
X273210Y169899D01*
X273258Y169879D01*
X273207Y169359D01*
X273207D01*
X273149Y169348D01*
X272851Y169149D01*
X268851Y165149D01*
X268652Y164851D01*
X268582Y164500D01*
Y161380D01*
X265937Y158735D01*
X265388Y158770D01*
X265047Y158998D01*
X265030Y159049D01*
Y159502D01*
X265047Y159553D01*
X265388Y159781D01*
X265716Y160272D01*
X265831Y160850D01*
X265716Y161429D01*
X265388Y161919D01*
X265047Y162147D01*
X265030Y162199D01*
Y162652D01*
X265047Y162703D01*
X265388Y162931D01*
X265716Y163421D01*
X265831Y164000D01*
X265716Y164578D01*
X265388Y165069D01*
X265047Y165297D01*
X265030Y165348D01*
Y165801D01*
X265047Y165853D01*
X265388Y166081D01*
X265716Y166571D01*
X265831Y167150D01*
X265716Y167728D01*
X265388Y168219D01*
X265047Y168447D01*
X265030Y168498D01*
Y168951D01*
X265047Y169002D01*
X265388Y169230D01*
X265716Y169721D01*
X265831Y170299D01*
X265716Y170878D01*
X265388Y171368D01*
X264897Y171696D01*
X264319Y171811D01*
X260776D01*
X260197Y171696D01*
X259707Y171368D01*
X259379Y170878D01*
X259264Y170299D01*
X259379Y169721D01*
X259707Y169230D01*
X260048Y169002D01*
X260065Y168951D01*
Y168498D01*
X260048Y168447D01*
X259707Y168219D01*
X259379Y167728D01*
X259264Y167150D01*
X259379Y166571D01*
X259707Y166081D01*
X260048Y165853D01*
X260065Y165801D01*
Y165348D01*
X260048Y165297D01*
X259707Y165069D01*
X259379Y164578D01*
X259264Y164000D01*
X259379Y163421D01*
X259707Y162931D01*
X260048Y162703D01*
X260065Y162652D01*
Y162199D01*
X260048Y162147D01*
X259707Y161919D01*
X259379Y161429D01*
X259264Y160850D01*
X259379Y160272D01*
X259707Y159781D01*
X260048Y159553D01*
X260065Y159502D01*
Y159049D01*
X260048Y158998D01*
X259707Y158770D01*
X259379Y158279D01*
X259264Y157701D01*
X259379Y157122D01*
X259707Y156632D01*
X260048Y156404D01*
X260065Y156352D01*
Y155900D01*
X260048Y155848D01*
X259707Y155620D01*
X259379Y155130D01*
X259264Y154551D01*
X259379Y153973D01*
X259707Y153482D01*
X260048Y153254D01*
X260065Y153203D01*
Y152750D01*
X260048Y152699D01*
X259707Y152471D01*
X259379Y151980D01*
X259264Y151402D01*
X259379Y150823D01*
X259707Y150333D01*
X260048Y150104D01*
X260065Y150053D01*
Y149601D01*
X260048Y149549D01*
X259707Y149321D01*
X259379Y148830D01*
X259264Y148252D01*
X259379Y147673D01*
X259707Y147183D01*
X260197Y146855D01*
X260776Y146740D01*
X264319D01*
X264897Y146855D01*
X265388Y147183D01*
X265489Y147334D01*
X267252D01*
X267603Y147404D01*
X267764Y147512D01*
X268169Y147181D01*
X268133Y147000D01*
Y141000D01*
X268199Y140668D01*
X268387Y140387D01*
X270887Y137887D01*
X271168Y137699D01*
X271223Y137688D01*
X271500Y137633D01*
X279500D01*
X279832Y137699D01*
X280113Y137887D01*
X280859Y138633D01*
X283213D01*
X283396Y138360D01*
X283918Y138011D01*
X284535Y137888D01*
X284580D01*
X284731Y137388D01*
X284360Y137140D01*
X284011Y136617D01*
X283888Y136000D01*
X284011Y135383D01*
X284360Y134860D01*
X284883Y134511D01*
X285500Y134388D01*
X286117Y134511D01*
X286640Y134860D01*
X286788Y135082D01*
X293122D01*
X293256Y134834D01*
X293322Y134582D01*
X293011Y134117D01*
X292888Y133500D01*
X292930Y133289D01*
X292598Y132918D01*
X230380D01*
X228819Y134478D01*
Y139011D01*
X228971Y139112D01*
X229199Y139453D01*
X229250Y139470D01*
X229703D01*
X229754Y139453D01*
X229982Y139112D01*
X230473Y138784D01*
X231051Y138669D01*
X231630Y138784D01*
X232120Y139112D01*
X232348Y139453D01*
X232400Y139470D01*
X232852D01*
X232904Y139453D01*
X233132Y139112D01*
X233622Y138784D01*
X234201Y138669D01*
X234779Y138784D01*
X235270Y139112D01*
X235498Y139453D01*
X235549Y139470D01*
X236002D01*
X236053Y139453D01*
X236281Y139112D01*
X236772Y138784D01*
X237350Y138669D01*
X237929Y138784D01*
X238419Y139112D01*
X238647Y139453D01*
X238699Y139470D01*
X239152D01*
X239203Y139453D01*
X239431Y139112D01*
X239921Y138784D01*
X240500Y138669D01*
X241078Y138784D01*
X241569Y139112D01*
X241797Y139453D01*
X241848Y139470D01*
X242301D01*
X242353Y139453D01*
X242581Y139112D01*
X243071Y138784D01*
X243650Y138669D01*
X244228Y138784D01*
X244719Y139112D01*
X244947Y139453D01*
X244998Y139470D01*
X245451D01*
X245502Y139453D01*
X245730Y139112D01*
X246221Y138784D01*
X246799Y138669D01*
X247378Y138784D01*
X247868Y139112D01*
X248096Y139453D01*
X248148Y139470D01*
X248600D01*
X248652Y139453D01*
X248880Y139112D01*
X249370Y138784D01*
X249949Y138669D01*
X250527Y138784D01*
X251018Y139112D01*
X251246Y139453D01*
X251297Y139470D01*
X251750D01*
X251801Y139453D01*
X252029Y139112D01*
X252520Y138784D01*
X253098Y138669D01*
X253677Y138784D01*
X254167Y139112D01*
X254495Y139603D01*
X254610Y140181D01*
Y143724D01*
X254495Y144303D01*
X254167Y144793D01*
X253677Y145121D01*
X253098Y145236D01*
X252520Y145121D01*
X252029Y144793D01*
X251801Y144452D01*
X251750Y144435D01*
X251297D01*
X251246Y144452D01*
X251018Y144793D01*
X250527Y145121D01*
X249949Y145236D01*
X249370Y145121D01*
X248880Y144793D01*
X248652Y144452D01*
X248600Y144435D01*
X248148D01*
X248096Y144452D01*
X247868Y144793D01*
X247378Y145121D01*
X246799Y145236D01*
X246221Y145121D01*
X245730Y144793D01*
X245502Y144452D01*
X245451Y144435D01*
X244998D01*
X244947Y144452D01*
X244719Y144793D01*
X244228Y145121D01*
X243650Y145236D01*
X243071Y145121D01*
X242581Y144793D01*
X242353Y144452D01*
X242301Y144435D01*
X241848D01*
X241797Y144452D01*
X241569Y144793D01*
X241078Y145121D01*
X240500Y145236D01*
X239921Y145121D01*
X239431Y144793D01*
X239203Y144452D01*
X239152Y144435D01*
X238699D01*
X238647Y144452D01*
X238419Y144793D01*
X237929Y145121D01*
X237350Y145236D01*
X236772Y145121D01*
X236281Y144793D01*
X236053Y144452D01*
X236002Y144435D01*
X235549D01*
X235498Y144452D01*
X235270Y144793D01*
X234779Y145121D01*
X234201Y145236D01*
X233622Y145121D01*
X233132Y144793D01*
X232904Y144452D01*
X232852Y144435D01*
X232400D01*
X232348Y144452D01*
X232120Y144793D01*
X231630Y145121D01*
X231051Y145236D01*
X230473Y145121D01*
X229982Y144793D01*
X229754Y144452D01*
X229703Y144435D01*
X229250D01*
X229199Y144452D01*
X228971Y144793D01*
X228480Y145121D01*
X227902Y145236D01*
X227323Y145121D01*
X226833Y144793D01*
X226605Y144452D01*
X226553Y144435D01*
X226100D01*
X226049Y144452D01*
X225821Y144793D01*
X225330Y145121D01*
X224752Y145236D01*
X224173Y145121D01*
X224030Y145025D01*
X223711Y145414D01*
X225149Y146851D01*
X225348Y147149D01*
X225359Y147207D01*
X225418Y147500D01*
Y158712D01*
X225640Y158860D01*
X225989Y159383D01*
X226099Y159933D01*
X230901D01*
X231011Y159383D01*
X231360Y158860D01*
X231883Y158511D01*
X232500Y158388D01*
X233117Y158511D01*
X233640Y158860D01*
X233989Y159383D01*
X234099Y159933D01*
X242350D01*
X242702Y160003D01*
X242999Y160202D01*
X247448Y164650D01*
X247647Y164948D01*
X247717Y165299D01*
Y170500D01*
Y175681D01*
X254786D01*
X255053Y175181D01*
X255011Y175117D01*
X254888Y174500D01*
X255011Y173883D01*
X255360Y173360D01*
X255883Y173011D01*
X256500Y172888D01*
X257117Y173011D01*
X257640Y173360D01*
X257989Y173883D01*
X258112Y174500D01*
X257989Y175117D01*
X257640Y175640D01*
X257418Y175788D01*
Y176598D01*
X257348Y176950D01*
X257149Y177247D01*
X257136Y177256D01*
Y177857D01*
X257140Y177860D01*
X257489Y178383D01*
X257529Y178582D01*
X259851D01*
X260048Y178451D01*
X260065Y178400D01*
Y177947D01*
X260048Y177895D01*
X259707Y177667D01*
X259379Y177177D01*
X259264Y176598D01*
X259379Y176020D01*
X259707Y175530D01*
X260197Y175202D01*
X260776Y175087D01*
X264319D01*
X264897Y175202D01*
X265388Y175530D01*
X265489Y175681D01*
X267522D01*
X267582Y175620D01*
Y174788D01*
X267360Y174640D01*
X267011Y174117D01*
X266888Y173500D01*
X267011Y172883D01*
X267360Y172360D01*
X267883Y172011D01*
X268500Y171888D01*
X269117Y172011D01*
X269640Y172360D01*
X269989Y172883D01*
X270112Y173500D01*
X269989Y174117D01*
X269640Y174640D01*
X269418Y174788D01*
Y176000D01*
X269359Y176293D01*
X269348Y176351D01*
X269149Y176649D01*
X268550Y177247D01*
X268253Y177446D01*
X267902Y177516D01*
X265489D01*
X265388Y177667D01*
X265047Y177895D01*
X265030Y177947D01*
Y178400D01*
X265047Y178451D01*
X265388Y178679D01*
X265716Y179169D01*
X265777Y179480D01*
X265991Y179693D01*
X267009D01*
X271905Y174797D01*
D02*
G37*
G36*
X245882Y165679D02*
X241970Y161768D01*
X221394D01*
X221293Y161919D01*
X220952Y162147D01*
X220935Y162199D01*
Y162652D01*
X220952Y162703D01*
X221293Y162931D01*
X221621Y163421D01*
X221736Y164000D01*
X221621Y164578D01*
X221293Y165069D01*
X220952Y165297D01*
X220935Y165348D01*
Y165801D01*
X220952Y165853D01*
X221293Y166081D01*
X221621Y166571D01*
X221736Y167150D01*
X221621Y167728D01*
X221293Y168219D01*
X220952Y168447D01*
X220935Y168498D01*
Y168951D01*
X220952Y169002D01*
X221293Y169230D01*
X221394Y169382D01*
X224712D01*
X224860Y169159D01*
X225383Y168810D01*
X226000Y168687D01*
X226617Y168810D01*
X227140Y169159D01*
X227288Y169382D01*
X245882D01*
Y165679D01*
D02*
G37*
G36*
X226984Y191718D02*
Y188989D01*
X226833Y188888D01*
X226605Y188547D01*
X226553Y188530D01*
X226100D01*
X226049Y188547D01*
X225821Y188888D01*
X225330Y189216D01*
X224752Y189331D01*
X224173Y189216D01*
X223683Y188888D01*
X223361Y188405D01*
X223299Y188418D01*
X219821D01*
Y190558D01*
X214690D01*
Y184442D01*
X219821D01*
Y186582D01*
X222919D01*
X223240Y186261D01*
Y184276D01*
X223355Y183697D01*
X223683Y183207D01*
X224173Y182879D01*
X224752Y182764D01*
X225330Y182879D01*
X225821Y183207D01*
X226049Y183548D01*
X226100Y183565D01*
X226553D01*
X226605Y183548D01*
X226833Y183207D01*
X227323Y182879D01*
X227902Y182764D01*
X228480Y182879D01*
X228971Y183207D01*
X229199Y183548D01*
X229250Y183565D01*
X229703D01*
X229754Y183548D01*
X229982Y183207D01*
X230473Y182879D01*
X231051Y182764D01*
X231630Y182879D01*
X232120Y183207D01*
X232348Y183548D01*
X232400Y183565D01*
X232852D01*
X232904Y183548D01*
X233132Y183207D01*
X233622Y182879D01*
X234201Y182764D01*
X234779Y182879D01*
X235270Y183207D01*
X235498Y183548D01*
X235549Y183565D01*
X236002D01*
X236053Y183548D01*
X236281Y183207D01*
X236772Y182879D01*
X237350Y182764D01*
X237929Y182879D01*
X238419Y183207D01*
X238647Y183548D01*
X238699Y183565D01*
X239152D01*
X239203Y183548D01*
X239431Y183207D01*
X239921Y182879D01*
X240500Y182764D01*
X241078Y182879D01*
X241569Y183207D01*
X241797Y183548D01*
X241848Y183565D01*
X242301D01*
X242353Y183548D01*
X242581Y183207D01*
X243071Y182879D01*
X243650Y182764D01*
X244228Y182879D01*
X244719Y183207D01*
X244947Y183548D01*
X244998Y183565D01*
X245451D01*
X245502Y183548D01*
X245730Y183207D01*
X245882Y183106D01*
Y181193D01*
X245402Y180731D01*
X245241Y180737D01*
X245140Y180888D01*
X244617Y181237D01*
X244000Y181360D01*
X243383Y181237D01*
X242860Y180888D01*
X242571Y180455D01*
X228497Y180578D01*
X228489Y180617D01*
X228140Y181140D01*
X227617Y181489D01*
X227000Y181612D01*
X226383Y181489D01*
X225860Y181140D01*
X225511Y180617D01*
X225508Y180604D01*
X221412Y180640D01*
X221293Y180817D01*
X220803Y181145D01*
X220224Y181260D01*
X216681D01*
X216103Y181145D01*
X215612Y180817D01*
X215284Y180326D01*
X215169Y179748D01*
X215284Y179169D01*
X215612Y178679D01*
X216103Y178351D01*
X216681Y178236D01*
X220224D01*
X220803Y178351D01*
X221293Y178679D01*
X221377Y178805D01*
X226003Y178764D01*
X226383Y178511D01*
X227000Y178388D01*
X227617Y178511D01*
X227971Y178747D01*
X242854Y178617D01*
X242860Y178608D01*
X243383Y178259D01*
X244000Y178136D01*
X244617Y178259D01*
X245123Y178597D01*
X245882Y178590D01*
Y176500D01*
Y171217D01*
X227288D01*
X227140Y171439D01*
X226617Y171789D01*
X226000Y171911D01*
X225383Y171789D01*
X224860Y171439D01*
X224712Y171217D01*
X221394D01*
X221293Y171368D01*
X220803Y171696D01*
X220224Y171811D01*
X216681D01*
X216103Y171696D01*
X215612Y171368D01*
X215284Y170878D01*
X215169Y170299D01*
X215284Y169721D01*
X215285Y169720D01*
X214897Y169401D01*
X210293Y174004D01*
X210546Y174383D01*
X210669Y175000D01*
X210546Y175617D01*
X210197Y176140D01*
X209674Y176489D01*
X209595Y176505D01*
X209351Y177028D01*
X209353Y177063D01*
X209418Y177386D01*
Y177712D01*
X209640Y177860D01*
X209989Y178383D01*
X210112Y179000D01*
X209989Y179617D01*
X209640Y180140D01*
X209117Y180489D01*
X208500Y180612D01*
X207883Y180489D01*
X207360Y180140D01*
X207011Y179617D01*
X206888Y179000D01*
X207011Y178383D01*
X207360Y177860D01*
X207388Y177572D01*
X206327Y176511D01*
X206128Y176213D01*
X206058Y175862D01*
Y174044D01*
X206128Y173693D01*
X206327Y173396D01*
X213082Y166640D01*
Y166462D01*
X212729Y166109D01*
X207152D01*
X207152Y166109D01*
X207131D01*
X206986D01*
X206903Y166109D01*
X206850D01*
X206850D01*
X206850Y166109D01*
X206850Y166109D01*
X206849Y166109D01*
X206849Y166109D01*
X206849Y166109D01*
X206844Y166113D01*
X206838Y166118D01*
X206827Y166127D01*
X206798Y166151D01*
X206715Y166220D01*
X206660Y166265D01*
X206659Y166266D01*
X206574Y166336D01*
X206482Y166413D01*
X206470Y166422D01*
X206416Y166467D01*
X206417Y166482D01*
X206418Y166500D01*
X206418Y166929D01*
Y166929D01*
Y171000D01*
X206348Y171351D01*
X206149Y171649D01*
X204918Y172880D01*
Y189120D01*
X208880Y193082D01*
X225620D01*
X226984Y191718D01*
D02*
G37*
G36*
X362582Y257979D02*
X363057Y257979D01*
X363082Y257489D01*
Y256380D01*
X354557Y247855D01*
X354058Y247983D01*
Y249314D01*
X347942D01*
Y248398D01*
X347900Y248375D01*
X347873Y248376D01*
X347400Y248670D01*
Y254450D01*
X347400Y254450D01*
X347516Y254902D01*
X357246D01*
X357383Y254811D01*
X358000Y254688D01*
X358617Y254811D01*
X359140Y255160D01*
X359489Y255683D01*
X359612Y256300D01*
X359560Y256562D01*
X360649Y257651D01*
X360848Y257949D01*
X360854Y257979D01*
X362582D01*
D02*
G37*
G36*
X342943Y264785D02*
Y263610D01*
X342943Y263491D01*
Y263300D01*
Y263109D01*
X342943Y262990D01*
Y258040D01*
X341620Y256718D01*
X339500D01*
X339149Y256648D01*
X338851Y256449D01*
X338101Y255699D01*
X337902Y255401D01*
X337832Y255050D01*
Y254450D01*
X337600D01*
Y248150D01*
X339600D01*
X339900Y248150D01*
X340332Y247987D01*
X340332D01*
Y247550D01*
X340402Y247199D01*
X340601Y246901D01*
X341170Y246332D01*
X341468Y246133D01*
X341494Y246128D01*
X341686Y246000D01*
X341744Y245988D01*
X342037Y245930D01*
X344463D01*
X344814Y246000D01*
X344910Y246063D01*
X347942D01*
Y244380D01*
X354058D01*
Y245930D01*
X354847D01*
X354891Y245938D01*
X355391Y245573D01*
Y244320D01*
X355191D01*
X354801Y244242D01*
X354470Y244021D01*
X352369Y241920D01*
X330822D01*
X329720Y243022D01*
Y244218D01*
X330220Y244370D01*
X330360Y244160D01*
X330883Y243811D01*
X331500Y243688D01*
X332117Y243811D01*
X332640Y244160D01*
X332989Y244683D01*
X333112Y245300D01*
X332989Y245917D01*
X332640Y246440D01*
X332118Y246789D01*
Y247987D01*
X332118Y247987D01*
X332550Y248150D01*
X332850Y248150D01*
X334850D01*
Y254450D01*
X334618D01*
Y258712D01*
X334840Y258860D01*
X335189Y259383D01*
X335304Y259961D01*
X335332Y260014D01*
X335442Y260091D01*
X335943Y259831D01*
Y257979D01*
X342057D01*
Y262990D01*
X342057Y263109D01*
Y263300D01*
Y263491D01*
X342057Y263610D01*
Y265138D01*
X342589D01*
X342943Y264785D01*
D02*
G37*
G36*
X308082Y275328D02*
Y275000D01*
X308152Y274649D01*
X308351Y274351D01*
X311694Y271009D01*
X311991Y270810D01*
X312343Y270740D01*
X313462D01*
X314582Y269620D01*
Y266880D01*
X310681Y262978D01*
X298940D01*
X298866Y263073D01*
X298719Y263478D01*
X298989Y263883D01*
X299112Y264500D01*
X298989Y265117D01*
X298640Y265640D01*
X298117Y265989D01*
X297500Y266112D01*
X296883Y265989D01*
X296360Y265640D01*
X296212Y265418D01*
X293029D01*
X292989Y265617D01*
X292640Y266140D01*
X292117Y266489D01*
X291500Y266612D01*
X290883Y266489D01*
X290360Y266140D01*
X290011Y265617D01*
X289888Y265000D01*
X290011Y264383D01*
X290360Y263860D01*
X290883Y263511D01*
X291046Y263478D01*
X290996Y262978D01*
X257025D01*
X256174Y263830D01*
X255876Y264029D01*
X255525Y264099D01*
X252060D01*
X251709Y264029D01*
X251411Y263830D01*
X250559Y262978D01*
X249939D01*
X249588Y262908D01*
X249290Y262709D01*
X249042Y262461D01*
X246922D01*
X246629Y262403D01*
X246571Y262391D01*
X246273Y262192D01*
X245602Y261521D01*
X244115D01*
X243823Y261462D01*
X243764Y261451D01*
X243467Y261252D01*
X241835Y259621D01*
X241795Y259560D01*
X241208Y259538D01*
X241140Y259640D01*
X240617Y259989D01*
X240000Y260112D01*
X239383Y259989D01*
X238860Y259640D01*
X238511Y259117D01*
X238388Y258500D01*
X238511Y257883D01*
X238860Y257360D01*
X239130Y257180D01*
Y256893D01*
X238971Y256459D01*
X238630Y256459D01*
X237502D01*
X237187Y256459D01*
X237094D01*
X237002D01*
X236687Y256459D01*
X235559D01*
X235218Y256459D01*
X235059Y256893D01*
Y262466D01*
X237038D01*
Y269740D01*
X238880Y271582D01*
X248364D01*
X250179Y269768D01*
Y265442D01*
X255190D01*
X255309Y265442D01*
X255500D01*
X255691D01*
X255809Y265442D01*
X260821D01*
Y267582D01*
X279613D01*
X279762Y267360D01*
X280285Y267011D01*
X280902Y266888D01*
X281519Y267011D01*
X282042Y267360D01*
X282190Y267582D01*
X299712D01*
X299860Y267360D01*
X300383Y267011D01*
X301000Y266888D01*
X301194Y266927D01*
X301580Y266609D01*
Y264943D01*
X306514D01*
Y271058D01*
X304965D01*
Y273199D01*
X305034Y273208D01*
X305983Y273601D01*
X306797Y274226D01*
X307422Y275041D01*
X307582Y275427D01*
X308082Y275328D01*
D02*
G37*
G36*
X263728Y236356D02*
X263811Y236067D01*
X263511Y235617D01*
X263388Y235000D01*
X263415Y234862D01*
X263067Y234465D01*
X260126D01*
X259998Y234439D01*
X257167D01*
Y232971D01*
X257167Y232655D01*
Y232563D01*
Y232471D01*
X257167Y232155D01*
Y231002D01*
X257167Y230687D01*
Y230594D01*
Y230502D01*
X257167Y230187D01*
Y229034D01*
X257167Y228718D01*
X257167Y228718D01*
Y228534D01*
X257167D01*
X257167Y228534D01*
Y227065D01*
X257167Y226750D01*
Y226658D01*
Y226565D01*
X257167Y226250D01*
Y224918D01*
X250922D01*
X250715Y225418D01*
X251646Y226348D01*
X251845Y226646D01*
X251856Y226704D01*
X251915Y226997D01*
Y233617D01*
X254864Y236567D01*
X263599D01*
X263728Y236356D01*
D02*
G37*
G36*
X280256Y259334D02*
X280322Y259082D01*
X280011Y258617D01*
X279888Y258000D01*
X280011Y257383D01*
X280360Y256860D01*
X280582Y256712D01*
Y236880D01*
X279371Y235669D01*
X279187Y235393D01*
X279054Y235260D01*
X275342D01*
X274991Y235190D01*
X274694Y234991D01*
X271851Y232149D01*
X271652Y231851D01*
X271582Y231500D01*
Y226380D01*
X265260Y220058D01*
X263080D01*
Y217918D01*
X262380D01*
X261044Y219254D01*
Y224781D01*
X263085D01*
Y226250D01*
X263085Y226565D01*
Y226658D01*
Y226750D01*
X263585Y226772D01*
X263860Y226360D01*
X264383Y226011D01*
X265000Y225888D01*
X265617Y226011D01*
X266140Y226360D01*
X266489Y226883D01*
X266612Y227500D01*
X266489Y228117D01*
X266286Y228421D01*
X266397Y228663D01*
X266567Y228901D01*
X267117Y229011D01*
X267640Y229360D01*
X267989Y229883D01*
X268112Y230500D01*
X267989Y231117D01*
X267640Y231640D01*
X267117Y231989D01*
X266500Y232112D01*
X266238Y232060D01*
X266070Y232228D01*
X265772Y232427D01*
X265421Y232496D01*
X264483D01*
X264401Y232612D01*
X264294Y232996D01*
X264738Y233440D01*
X265000Y233388D01*
X265617Y233511D01*
X266140Y233860D01*
X266489Y234383D01*
X266612Y235000D01*
X266489Y235617D01*
X266189Y236067D01*
X266272Y236356D01*
X266401Y236567D01*
X268531D01*
X268580Y236526D01*
Y234943D01*
X273514D01*
Y241057D01*
X268790D01*
X268626Y241197D01*
X268583Y241785D01*
X268738Y241940D01*
X269000Y241888D01*
X269617Y242011D01*
X270140Y242360D01*
X270489Y242883D01*
X270612Y243500D01*
X270489Y244117D01*
X270140Y244640D01*
X269617Y244989D01*
X269000Y245112D01*
X268383Y244989D01*
X267860Y244640D01*
X267511Y244117D01*
X267070Y244289D01*
X267112Y244500D01*
X266989Y245117D01*
X266640Y245640D01*
X266117Y245989D01*
X265500Y246112D01*
X265272Y246577D01*
X265277Y246618D01*
X265640Y246860D01*
X265989Y247383D01*
X266112Y248000D01*
X265989Y248617D01*
X265640Y249140D01*
X265117Y249489D01*
X264500Y249612D01*
X263883Y249489D01*
X263360Y249140D01*
X263011Y248617D01*
X262936Y248244D01*
X260126D01*
X259998Y248219D01*
X257167D01*
Y246750D01*
X257167Y246435D01*
Y246342D01*
Y246250D01*
X257167Y245935D01*
Y244782D01*
X257167Y244466D01*
Y244374D01*
Y244282D01*
X257167Y243966D01*
Y242813D01*
X257167Y242498D01*
Y242406D01*
Y242313D01*
X257167Y241998D01*
Y240529D01*
X257167D01*
X257167Y240529D01*
Y240345D01*
X257167D01*
X257167Y240345D01*
Y238561D01*
X256733Y238402D01*
X254484D01*
X254133Y238332D01*
X253835Y238133D01*
X250348Y234646D01*
X250149Y234348D01*
X250079Y233997D01*
Y227377D01*
X249269Y226567D01*
X242026D01*
X230351Y238242D01*
Y238391D01*
X230335Y238469D01*
X230351Y238546D01*
Y240359D01*
X230281Y240710D01*
X230082Y241008D01*
X229020Y242070D01*
X228833Y242195D01*
Y242313D01*
X228499D01*
X228371Y242339D01*
X226810D01*
X226704Y242487D01*
X226588Y242839D01*
X226722Y243039D01*
X226792Y243390D01*
Y245358D01*
Y247327D01*
X226722Y247678D01*
X226523Y247976D01*
X226225Y248175D01*
X225874Y248244D01*
X225523Y248175D01*
X225225Y247976D01*
X225026Y247678D01*
X224956Y247327D01*
Y245358D01*
Y243390D01*
X225026Y243039D01*
X225160Y242839D01*
X225044Y242487D01*
X224938Y242339D01*
X222978D01*
X222937Y242380D01*
Y243091D01*
X222918Y243190D01*
Y245500D01*
X222848Y245851D01*
X222649Y246149D01*
X221420Y247378D01*
Y248740D01*
X228462D01*
X230351Y246851D01*
X230649Y246652D01*
X231000Y246582D01*
X241500D01*
X241851Y246652D01*
X242149Y246851D01*
X244535Y249237D01*
X244920Y249131D01*
X245035Y249048D01*
Y247654D01*
X245011Y247617D01*
X244888Y247000D01*
X245011Y246383D01*
X245092Y246261D01*
X245105Y246196D01*
X245304Y245898D01*
X245359Y245861D01*
X245360Y245860D01*
X245883Y245511D01*
X246500Y245388D01*
X247117Y245511D01*
X247640Y245860D01*
X247989Y246383D01*
X248112Y247000D01*
X247989Y247617D01*
X247640Y248140D01*
X247117Y248489D01*
X246870Y248538D01*
Y249143D01*
X246986Y249225D01*
X247370Y249332D01*
X248851Y247851D01*
X249149Y247652D01*
X249500Y247582D01*
X253712D01*
X253860Y247360D01*
X254383Y247011D01*
X255000Y246888D01*
X255617Y247011D01*
X256140Y247360D01*
X256489Y247883D01*
X256612Y248500D01*
X256489Y249117D01*
X256140Y249640D01*
X255617Y249989D01*
X255000Y250112D01*
X254383Y249989D01*
X253860Y249640D01*
X253712Y249418D01*
X249880D01*
X249257Y250041D01*
X249464Y250541D01*
X250782D01*
Y250541D01*
X250966D01*
Y250541D01*
X252750D01*
Y253094D01*
X252983Y253327D01*
X253182Y253625D01*
X253252Y253976D01*
Y256370D01*
X255149Y258267D01*
X255348Y258564D01*
X255378Y258717D01*
X255489Y258883D01*
X255556Y259215D01*
X256053Y259577D01*
X256062Y259578D01*
X256100Y259582D01*
X280122D01*
X280256Y259334D01*
D02*
G37*
G36*
X233224Y256893D02*
X233065Y256459D01*
X231281D01*
Y251291D01*
X230819Y251100D01*
X229380Y252539D01*
X229083Y252737D01*
X228732Y252807D01*
X221069D01*
Y257368D01*
X219618D01*
Y260132D01*
X221069D01*
Y261582D01*
X229594D01*
X229946Y261652D01*
X230243Y261851D01*
X230858Y262466D01*
X233224D01*
Y256893D01*
D02*
G37*
D10*
X217256Y187500D02*
D03*
X211744D02*
D03*
X258256Y268500D02*
D03*
X252744D02*
D03*
X224256Y135500D02*
D03*
X218744D02*
D03*
D11*
X365142Y243300D02*
D03*
X357858D02*
D03*
X365142Y236300D02*
D03*
X357858D02*
D03*
D12*
X366571Y263000D02*
D03*
X375429D02*
D03*
X383071D02*
D03*
X391929D02*
D03*
D13*
X351000Y246847D02*
D03*
Y252753D02*
D03*
X337000Y221753D02*
D03*
Y215847D02*
D03*
X329500Y221753D02*
D03*
Y215847D02*
D03*
D14*
X369000Y229056D02*
D03*
Y223544D02*
D03*
Y250044D02*
D03*
Y255556D02*
D03*
X360000Y266056D02*
D03*
Y260544D02*
D03*
X353000Y266056D02*
D03*
Y260544D02*
D03*
X346000Y266056D02*
D03*
Y260544D02*
D03*
X339000Y266056D02*
D03*
Y260544D02*
D03*
X238000Y208756D02*
D03*
Y203244D02*
D03*
X319000Y216244D02*
D03*
Y221756D02*
D03*
D15*
X376193Y235182D02*
D03*
Y245418D02*
D03*
Y237741D02*
D03*
Y242859D02*
D03*
Y240300D02*
D03*
D16*
Y252406D02*
D03*
Y228194D02*
D03*
D17*
X383870Y232131D02*
D03*
Y248469D02*
D03*
D18*
X351000Y229442D02*
D03*
Y222158D02*
D03*
X358000Y229442D02*
D03*
Y222158D02*
D03*
X206000Y208358D02*
D03*
Y215642D02*
D03*
Y239858D02*
D03*
Y247142D02*
D03*
X210000Y149642D02*
D03*
Y142358D02*
D03*
Y163642D02*
D03*
Y156358D02*
D03*
D19*
X346250Y251300D02*
D03*
X343750D02*
D03*
X341250D02*
D03*
X338750D02*
D03*
X336200D02*
D03*
X333700D02*
D03*
X331200D02*
D03*
X328700D02*
D03*
Y230300D02*
D03*
X331200D02*
D03*
X333700D02*
D03*
X336200D02*
D03*
X338750D02*
D03*
X341250D02*
D03*
X343750D02*
D03*
X346250D02*
D03*
D20*
X304047Y268000D02*
D03*
X309953D02*
D03*
X271047Y238000D02*
D03*
X276953D02*
D03*
X265547Y217000D02*
D03*
X271453D02*
D03*
X303953Y125000D02*
D03*
X298047D02*
D03*
X214547D02*
D03*
X220453D02*
D03*
X218953Y239000D02*
D03*
X213047D02*
D03*
X218953Y246000D02*
D03*
X213047D02*
D03*
X220547Y268500D02*
D03*
X226453D02*
D03*
D21*
X311350Y216050D02*
D03*
Y251950D02*
D03*
X293650D02*
D03*
Y216050D02*
D03*
D22*
X233095Y267000D02*
D03*
X244905D02*
D03*
D23*
X225874Y229610D02*
D03*
Y231579D02*
D03*
X260126Y247327D02*
D03*
Y245358D02*
D03*
Y243390D02*
D03*
Y241421D02*
D03*
Y239453D02*
D03*
Y237484D02*
D03*
Y235516D02*
D03*
Y233547D02*
D03*
Y231579D02*
D03*
Y229610D02*
D03*
Y227642D02*
D03*
Y225673D02*
D03*
X225874D02*
D03*
Y227642D02*
D03*
Y233547D02*
D03*
Y235516D02*
D03*
Y237484D02*
D03*
Y239453D02*
D03*
Y241421D02*
D03*
Y243390D02*
D03*
Y245358D02*
D03*
Y247327D02*
D03*
D24*
X253827Y253500D02*
D03*
X232173D02*
D03*
X234142D02*
D03*
X236110D02*
D03*
X238079D02*
D03*
X240047D02*
D03*
X242016D02*
D03*
X243984D02*
D03*
X245953D02*
D03*
X247921D02*
D03*
X249890D02*
D03*
X251858D02*
D03*
X253827Y219374D02*
D03*
X251858D02*
D03*
X249890D02*
D03*
X247921D02*
D03*
X245953D02*
D03*
X243984D02*
D03*
X242016D02*
D03*
X240047D02*
D03*
X238079D02*
D03*
X236110D02*
D03*
X234142D02*
D03*
X232173D02*
D03*
D25*
X323610Y139500D02*
D03*
Y144500D02*
D03*
Y149500D02*
D03*
Y154500D02*
D03*
Y159500D02*
D03*
Y164500D02*
D03*
Y169500D02*
D03*
Y174500D02*
D03*
Y179500D02*
D03*
Y184500D02*
D03*
Y189500D02*
D03*
Y194500D02*
D03*
Y199500D02*
D03*
Y204500D02*
D03*
X287390Y139500D02*
D03*
Y144500D02*
D03*
Y149500D02*
D03*
Y154500D02*
D03*
Y159500D02*
D03*
Y164500D02*
D03*
Y169500D02*
D03*
Y174500D02*
D03*
Y179500D02*
D03*
Y184500D02*
D03*
Y189500D02*
D03*
Y194500D02*
D03*
Y199500D02*
D03*
Y204500D02*
D03*
D26*
X218453Y164000D02*
D03*
Y167150D02*
D03*
Y151402D02*
D03*
Y154551D02*
D03*
X262547Y179748D02*
D03*
Y176598D02*
D03*
Y173449D02*
D03*
Y170299D02*
D03*
Y167150D02*
D03*
Y164000D02*
D03*
Y160850D02*
D03*
Y157701D02*
D03*
Y154551D02*
D03*
Y151402D02*
D03*
Y148252D02*
D03*
X218453D02*
D03*
Y157701D02*
D03*
Y160850D02*
D03*
Y170299D02*
D03*
Y173449D02*
D03*
Y176598D02*
D03*
Y179748D02*
D03*
D27*
X256248Y141953D02*
D03*
X253098D02*
D03*
X249949D02*
D03*
X246799D02*
D03*
X243650D02*
D03*
X240500D02*
D03*
X237350D02*
D03*
X234201D02*
D03*
X231051D02*
D03*
X227902D02*
D03*
X224752D02*
D03*
Y186047D02*
D03*
X227902D02*
D03*
X231051D02*
D03*
X234201D02*
D03*
X237350D02*
D03*
X240500D02*
D03*
X243650D02*
D03*
X246799D02*
D03*
X249949D02*
D03*
X253098D02*
D03*
X256248D02*
D03*
D28*
X218701Y262500D02*
D03*
X206299D02*
D03*
X218701Y255000D02*
D03*
X206299D02*
D03*
D29*
X223299Y187500D02*
X224752Y186047D01*
X217256Y187500D02*
X223299D01*
X197035Y147004D02*
X198996D01*
X204000Y189500D02*
X208500Y194000D01*
X204000Y172500D02*
Y189500D01*
Y172500D02*
X205500Y171000D01*
X207879Y195500D02*
X226621D01*
X202500Y190121D02*
X207879Y195500D01*
X226000Y194000D02*
X227902Y192098D01*
X208500Y194000D02*
X226000D01*
X229402Y192598D02*
X231051Y190949D01*
X229402Y192598D02*
Y192720D01*
X226621Y195500D02*
X229402Y192720D01*
X202500Y169000D02*
Y190121D01*
X228371Y241421D02*
X229433Y240359D01*
X225874Y241421D02*
X228371D01*
X351000Y229442D02*
Y234800D01*
X329500Y221753D02*
X337000D01*
X300500Y258000D02*
X301000Y257500D01*
X294000Y258000D02*
X300500D01*
X321500Y253000D02*
Y259000D01*
X324016Y261516D01*
X387500Y215500D02*
Y220500D01*
X387000Y215000D02*
X387500Y215500D01*
X369000Y220000D02*
Y223544D01*
Y220000D02*
X369550Y219450D01*
X373550D01*
X374000Y219000D01*
X282500Y225000D02*
X288500D01*
X301500Y133500D02*
X303953Y131047D01*
X198996Y208004D02*
X205646D01*
X197035Y209965D02*
X198996Y208004D01*
X197035Y209965D02*
Y214004D01*
X218953Y238547D02*
Y239000D01*
Y234953D02*
Y238547D01*
X218000Y234000D02*
X218953Y234953D01*
X246799Y179500D02*
X262299D01*
X279434Y207434D02*
Y234343D01*
X269000Y197000D02*
X279434Y207434D01*
X269000Y184000D02*
Y197000D01*
X262547Y179748D02*
X264748D01*
X364000Y256000D02*
Y268500D01*
X354847Y246847D02*
X364000Y256000D01*
X351000Y246847D02*
X354847D01*
X371000Y234500D02*
X371682Y235182D01*
X376193D01*
X319000Y222642D02*
Y226500D01*
X291500Y265000D02*
X292000Y264500D01*
X297500D01*
X256645Y262061D02*
X311061D01*
X256084Y260500D02*
X312000D01*
X255525Y263181D02*
X256645Y262061D01*
X311061D02*
X315500Y266500D01*
X252060Y263181D02*
X255525D01*
X250939Y262061D02*
X252060Y263181D01*
X249939Y262061D02*
X250939D01*
X312000Y260500D02*
X317000Y265500D01*
X254903Y261681D02*
X256084Y260500D01*
X251302Y260302D02*
X252681Y261681D01*
X254903D01*
X335244Y261544D02*
X339000D01*
X338944Y266000D02*
X339000Y266056D01*
X334000Y266000D02*
X338944D01*
X280902Y268500D02*
X303547D01*
X391929Y259929D02*
Y263000D01*
X390000Y258000D02*
X391929Y259929D01*
X382000Y258000D02*
X390000D01*
X380000Y260000D02*
X382000Y258000D01*
X380000Y260000D02*
Y262000D01*
X379000Y263000D02*
X380000Y262000D01*
X375429Y263000D02*
X379000D01*
X369929Y268500D02*
X375429Y263000D01*
X364000Y268500D02*
X369929D01*
X361556Y266056D02*
X364000Y268500D01*
X360000Y266056D02*
X361556D01*
X353000D02*
X360000D01*
X346000D02*
X353000D01*
X339000D02*
X346000D01*
X341500Y218500D02*
X344000Y221000D01*
X341500Y211500D02*
Y218500D01*
X344000Y206000D02*
X348000Y202000D01*
Y194000D02*
Y202000D01*
X382500Y145500D02*
X388000Y151000D01*
X382500Y128000D02*
Y145500D01*
X381000Y126500D02*
X382500Y128000D01*
X374500Y126500D02*
X381000D01*
X373000Y128000D02*
X374500Y126500D01*
X373000Y128000D02*
Y135000D01*
X371000Y137000D02*
X373000Y135000D01*
X351000Y137000D02*
X371000D01*
X348000Y134000D02*
X351000Y137000D01*
X348000Y131000D02*
Y134000D01*
X264000Y187500D02*
Y191000D01*
X262500Y192500D02*
X264000Y191000D01*
X256500Y192500D02*
X262500D01*
X253098Y189098D02*
X256500Y192500D01*
X253098Y186047D02*
Y189098D01*
X205500Y166500D02*
Y171000D01*
X204500Y165500D02*
X205500Y166500D01*
X231051Y186047D02*
Y190949D01*
X227902Y186047D02*
Y192098D01*
X249949Y189949D02*
X254000Y194000D01*
X249949Y186047D02*
Y189949D01*
X287390Y164500D02*
X293500D01*
X293000Y132000D02*
X294500Y133500D01*
X285500Y136000D02*
X320110D01*
X230000Y132000D02*
X293000D01*
X227902Y134098D02*
X230000Y132000D01*
X275000Y173000D02*
X281500Y179500D01*
X287390D01*
X243998Y179525D02*
X246799Y179500D01*
X218453Y179748D02*
X243998Y179525D01*
X311350Y210850D02*
Y216050D01*
X310000Y209500D02*
X311350Y210850D01*
X291500Y209500D02*
X310000D01*
X282000Y149500D02*
X287390D01*
X318308Y216050D02*
X319000Y215358D01*
X311350Y216050D02*
X318308D01*
X323610Y204500D02*
X329000D01*
X295000Y179500D02*
X296500Y178000D01*
X287390Y179500D02*
X295000D01*
X320110Y136000D02*
X323610Y139500D01*
X303953Y125000D02*
Y131047D01*
X281500Y174500D02*
X287390D01*
X270000Y151000D02*
Y155500D01*
X267252Y148252D02*
X270000Y151000D01*
X262547Y148252D02*
X267252D01*
X266902Y151402D02*
X267500Y152000D01*
X262547Y151402D02*
X266902D01*
X281500Y169500D02*
X287390D01*
X280500Y168500D02*
X281500Y169500D01*
X273500Y168500D02*
X280500D01*
X269500Y164500D02*
X273500Y168500D01*
X269500Y161000D02*
Y164500D01*
X266201Y157701D02*
X269500Y161000D01*
X262547Y157701D02*
X266201D01*
X281500Y159500D02*
X287390D01*
X280650Y158650D02*
X281500Y159500D01*
X271028Y158650D02*
X280650D01*
X266930Y154551D02*
X271028Y158650D01*
X262547Y154551D02*
X266930D01*
X280500Y154500D02*
X287390D01*
X277850Y157150D02*
X280500Y154500D01*
X271650Y157150D02*
X277850D01*
X270000Y155500D02*
X271650Y157150D01*
X292500Y189500D02*
X293500Y190500D01*
X287390Y189500D02*
X292500D01*
X287390Y194500D02*
X296000D01*
X246898Y176598D02*
X256500D01*
Y174500D02*
Y176598D01*
X246799Y176500D02*
Y179500D01*
Y170500D02*
Y176500D01*
Y165299D02*
Y170500D01*
X246598Y170299D02*
X246799Y170500D01*
X218453Y170299D02*
X246598D01*
X246799Y179500D02*
Y186047D01*
Y176500D02*
X246898Y176598D01*
X262299Y179500D02*
X262547Y179748D01*
X242350Y160850D02*
X246799Y165299D01*
X224500Y147500D02*
Y160850D01*
X214547Y117028D02*
Y125000D01*
X197035Y256996D02*
X202004D01*
X204000Y255000D01*
X206299D01*
X203095Y251890D02*
X228732D01*
X338500Y225800D02*
X338750Y226050D01*
Y230300D01*
X258256Y268500D02*
X280902D01*
X281500Y236500D02*
Y258000D01*
X280020Y235020D02*
X281500Y236500D01*
X280020Y234928D02*
Y235020D01*
X279434Y234343D02*
X280020Y234928D01*
X275342Y234343D02*
X279434D01*
X272500Y231500D02*
X275342Y234343D01*
X272500Y226000D02*
Y231500D01*
X265547Y219047D02*
X272500Y226000D01*
X265547Y217000D02*
Y219047D01*
X309000Y281000D02*
X314016Y286016D01*
X309000Y275000D02*
Y281000D01*
Y275000D02*
X312343Y271657D01*
X317000Y265500D02*
Y270621D01*
X316000Y271621D02*
Y275024D01*
Y271621D02*
X317000Y270621D01*
X315500Y266500D02*
Y270000D01*
X313843Y271657D02*
X315500Y270000D01*
X312343Y271657D02*
X313843D01*
X314016Y277008D02*
X316000Y275024D01*
X246922Y261543D02*
X249422D01*
X245982Y260603D02*
X246922Y261543D01*
X244115Y260603D02*
X245982D01*
X247543Y260043D02*
X250043D01*
X246500Y259000D02*
X247543Y260043D01*
X244634Y259000D02*
X246500D01*
X249422Y261543D02*
X249939Y262061D01*
X250302Y260302D02*
X251302D01*
X250043Y260043D02*
X250302Y260302D01*
X248744Y272500D02*
X252744Y268500D01*
X229594Y262500D02*
X233594Y266500D01*
X238500Y272500D02*
X248744D01*
X233095Y267094D02*
X238500Y272500D01*
X233095Y267000D02*
Y267094D01*
X206299Y262500D02*
X208516Y264717D01*
Y278872D01*
X208500Y278888D02*
X208516Y278872D01*
X208500Y278888D02*
Y280500D01*
X210000Y282000D01*
X269008D01*
X274016Y287008D01*
X304016Y277008D02*
X304047Y276976D01*
Y268000D02*
Y276976D01*
X314016Y286016D02*
Y287008D01*
X249862Y253528D02*
Y257862D01*
X251858Y253500D02*
X252335Y253976D01*
Y256750D02*
X254500Y258915D01*
X252335Y253976D02*
Y256750D01*
X242484Y258972D02*
X244115Y260603D01*
X242484Y253969D02*
Y258972D01*
X242016Y253500D02*
X242484Y253969D01*
X254000Y259416D02*
Y259500D01*
Y259416D02*
X254500Y258915D01*
X243984Y258350D02*
X244634Y259000D01*
X243984Y253500D02*
Y258350D01*
X249862Y253528D02*
X249890Y253500D01*
X260126Y218874D02*
Y225673D01*
Y218874D02*
X262000Y217000D01*
X265547D01*
X304016Y116496D02*
Y124937D01*
X303547Y268500D02*
X304047Y268000D01*
X331200Y227886D02*
Y230300D01*
X329864Y226550D02*
X331200Y227886D01*
X329500Y226300D02*
X329750Y226550D01*
X329864D01*
X329500Y221753D02*
Y226300D01*
X241646Y225649D02*
X249649D01*
X229433Y237862D02*
X241646Y225649D01*
X249649D02*
X250997Y226997D01*
X241000Y224000D02*
X258453D01*
X229484Y235516D02*
X241000Y224000D01*
X258453D02*
X260126Y225673D01*
X250997Y226997D02*
Y233997D01*
X246406Y247000D02*
X246500D01*
X245953Y246547D02*
X246406Y247000D01*
X250997Y233997D02*
X254484Y237484D01*
X260126D01*
X229433Y237862D02*
Y238391D01*
X229355Y238469D02*
X229433Y238391D01*
X229355Y238469D02*
Y238469D01*
X229433Y238546D01*
Y240359D01*
X225874Y243390D02*
Y245358D01*
Y247327D01*
X267681Y242181D02*
X269000Y243500D01*
X266097Y242181D02*
X267681D01*
X265337Y241421D02*
X266097Y242181D01*
X260126Y241421D02*
X265337D01*
X260126Y239453D02*
X265953D01*
X266500Y240000D01*
X267000D01*
X263827Y247327D02*
X264500Y248000D01*
X260126Y247327D02*
X263827D01*
X264642Y245358D02*
X265500Y244500D01*
X260126Y245358D02*
X264642D01*
X263547Y233547D02*
X265000Y235000D01*
X260126Y233547D02*
X263547D01*
X265421Y231579D02*
X266500Y230500D01*
X260126Y231579D02*
X265421D01*
X262890Y229610D02*
X265000Y227500D01*
X324016Y261516D02*
Y277008D01*
X214016Y271484D02*
Y277008D01*
Y271484D02*
X217000Y268500D01*
X220547D01*
X226358Y215642D02*
X226500Y215500D01*
X206000Y215642D02*
X226358D01*
X228732Y251890D02*
X231311Y249311D01*
X228842Y249658D02*
X231000Y247500D01*
X216472Y249658D02*
X228842D01*
X216314Y249500D02*
X216472Y249658D01*
X215686Y249500D02*
X216314D01*
X215528Y249658D02*
X215686Y249500D01*
X207516Y249658D02*
X215528D01*
X206000Y248142D02*
X207516Y249658D01*
X240000Y258500D02*
X240047Y258453D01*
Y253500D02*
Y258453D01*
X241189Y249311D02*
X242016Y250137D01*
X231311Y249311D02*
X241189D01*
X231000Y247500D02*
X241500D01*
X243984Y249984D01*
X242016Y250137D02*
Y253500D01*
X243984Y249984D02*
Y253500D01*
X245953Y246547D02*
Y253500D01*
X247921Y250079D02*
Y253500D01*
Y250079D02*
X249500Y248500D01*
X255000D01*
X268531Y237484D02*
X269047Y238000D01*
X260126Y237484D02*
X268531D01*
X251858Y216642D02*
X254500Y214000D01*
Y213000D02*
Y214000D01*
X251858Y216642D02*
Y219374D01*
X249890Y215110D02*
X250500Y214500D01*
X249890Y215110D02*
Y219374D01*
X248000Y211000D02*
X248181Y211181D01*
Y215319D01*
X247921Y215579D02*
X248181Y215319D01*
X247921Y215579D02*
Y219374D01*
X245953Y213547D02*
X246000Y213500D01*
X245953Y213547D02*
Y219374D01*
X243000Y211500D02*
Y214000D01*
X243984Y214984D01*
Y219374D01*
X240500Y214500D02*
X242016Y216016D01*
Y219374D01*
X205646Y208004D02*
X206000Y208358D01*
X205862Y240996D02*
X206000Y240858D01*
X218701Y262500D02*
X229594D01*
X234095Y267000D02*
X234142Y266953D01*
Y253500D02*
Y266953D01*
X218701Y255000D02*
Y262500D01*
X225874Y235516D02*
X229484D01*
X218953Y247000D02*
X220500D01*
X222000Y245500D01*
Y243111D02*
Y245500D01*
Y243111D02*
X222020Y243091D01*
Y242000D02*
Y243091D01*
Y242000D02*
X222598Y241421D01*
X225874D01*
X218953Y238547D02*
X221984Y235516D01*
X225874D01*
X333000Y225800D02*
X333700Y226500D01*
Y230300D01*
X344597Y246981D02*
X350866D01*
X341250Y247550D02*
X341819Y246981D01*
X341903D01*
X342037Y246847D01*
X344463D01*
X344597Y246981D01*
X357520Y255820D02*
X358000Y256300D01*
X360000Y258300D01*
X333700Y260000D02*
X335244Y261544D01*
X333700Y251300D02*
Y260000D01*
X339500Y255800D02*
X342000D01*
X338750Y255050D02*
X339500Y255800D01*
X338750Y251300D02*
Y255050D01*
X342000Y255800D02*
X346000Y259800D01*
X351500Y257320D02*
X353000Y258820D01*
X346398Y257320D02*
X351500D01*
X343750Y254671D02*
X346398Y257320D01*
X343750Y251300D02*
Y254671D01*
X346250Y251300D02*
Y255050D01*
X347020Y255820D01*
X357520D01*
X360000Y258300D02*
Y261544D01*
X331200Y245600D02*
Y251300D01*
X214016Y116496D02*
X214547Y117028D01*
X336200Y222553D02*
X337000Y221753D01*
X336200Y222553D02*
Y230300D01*
X341250Y226550D02*
Y230300D01*
Y226550D02*
X342000Y225800D01*
X356000D01*
X358000Y227800D01*
Y229442D01*
X344000Y261544D02*
X344250Y261294D01*
X341250Y247550D02*
Y251300D01*
X236110Y216110D02*
Y219374D01*
X233500Y213500D02*
X236110Y216110D01*
X233000Y213500D02*
X233500D01*
X240047Y219374D02*
Y222251D01*
X238298Y224000D02*
X240047Y222251D01*
X233500Y224000D02*
X238298D01*
X232173Y222673D02*
X233500Y224000D01*
X232173Y219374D02*
Y222673D01*
X238079Y208835D02*
Y219374D01*
X238000Y208756D02*
X238079Y208835D01*
X198996Y147004D02*
X204000Y142000D01*
X214500D01*
X214547Y142047D01*
Y142000D02*
X219000D01*
X224500Y147500D01*
X209057Y173943D02*
Y175000D01*
Y173943D02*
X215850Y167150D01*
X218453D01*
X215500Y164000D02*
X218453D01*
X214000Y165500D02*
X215500Y164000D01*
X214000Y165500D02*
Y167020D01*
X206976Y174044D02*
X214000Y167020D01*
X206976Y174044D02*
Y175862D01*
X208500Y177386D01*
Y179000D01*
X212791Y160850D02*
X218453D01*
X210000Y163642D02*
X212791Y160850D01*
X218453D02*
X224500D01*
X242350D01*
X265611Y180611D02*
X269000Y184000D01*
X265611Y180611D02*
X267389D01*
X275000Y173000D01*
X264748Y179748D02*
X265611Y180611D01*
X262547Y176598D02*
X267902D01*
X268500Y176000D01*
Y173500D02*
Y176000D01*
X214547Y135500D02*
X218744D01*
X214547Y125000D02*
Y135500D01*
Y142000D01*
Y142047D01*
X224256Y135500D02*
X227902D01*
Y134098D02*
Y135500D01*
Y141953D01*
D30*
X372000Y183000D02*
X372500Y182500D01*
X372000Y183000D02*
Y196500D01*
X371243Y197257D02*
X372000Y196500D01*
X371243Y197257D02*
Y197743D01*
X372500Y199000D02*
Y206000D01*
X371243Y197743D02*
X372500Y199000D01*
X368000Y210500D02*
X372500Y206000D01*
X361903Y188903D02*
Y195617D01*
X361500Y188500D02*
X361903Y188903D01*
X361500Y183500D02*
Y188500D01*
X358000Y214000D02*
X362131Y209869D01*
Y207617D02*
Y209869D01*
X361500Y206986D02*
X362131Y207617D01*
X361500Y196019D02*
Y206986D01*
Y196019D02*
X361903Y195617D01*
X361500Y183500D02*
X362500Y182500D01*
X348000Y214000D02*
X352000Y210000D01*
Y183500D02*
Y210000D01*
X375500Y201500D02*
Y205500D01*
X372000Y209000D02*
X375500Y205500D01*
X372000Y209000D02*
Y216000D01*
X368000Y210500D02*
Y214000D01*
X370000Y218000D02*
X372000Y216000D01*
X345000Y218000D02*
X370000D01*
X352000Y183500D02*
X353000Y182500D01*
X216844Y229969D02*
X217203Y229610D01*
X216330Y229969D02*
X216844D01*
X213969Y232330D02*
X216330Y229969D01*
X213969Y232330D02*
Y232500D01*
X202813D02*
X213969D01*
X217631Y231869D02*
X217921Y231579D01*
X217117Y231869D02*
X217631D01*
X215869Y233117D02*
X217117Y231869D01*
X215869Y233117D02*
Y233631D01*
X215100Y234400D02*
X215869Y233631D01*
X217921Y231579D02*
X225874D01*
X203600Y234400D02*
X215100D01*
X351500Y144000D02*
X377500D01*
X351000Y144500D02*
X351500Y144000D01*
X378000Y131000D02*
Y137000D01*
X373500Y141500D02*
X378000Y137000D01*
X349500Y141500D02*
X373500D01*
X353500Y148500D02*
X355500Y146500D01*
X351019Y148500D02*
X353500D01*
X349617Y147097D02*
X351019Y148500D01*
X355500Y146500D02*
X373500D01*
X346000Y143514D02*
X349583Y147097D01*
X346000Y137500D02*
Y143514D01*
X349583Y147097D02*
X349617D01*
X373500Y146500D02*
X378000Y151000D01*
X377500Y144000D02*
X382500Y149000D01*
Y152500D01*
X386500Y156500D01*
X390500D01*
X393000Y159000D01*
Y166500D01*
X388000Y171500D02*
X393000Y166500D01*
X388000Y171500D02*
Y182500D01*
X343631Y216631D02*
X345000Y218000D01*
X343631Y210617D02*
Y216631D01*
X323610Y199500D02*
X332514D01*
X343631Y210617D01*
X331500Y131000D02*
X341000D01*
X331500Y136000D02*
Y139500D01*
X269000Y147000D02*
X275000Y153000D01*
X269000Y141000D02*
Y147000D01*
Y141000D02*
X271500Y138500D01*
X279500D01*
X280500Y139500D01*
X287390D01*
X275000Y143000D02*
X276500Y144500D01*
X287390D01*
X168020Y146000D02*
X172000Y142020D01*
Y141687D02*
Y142020D01*
X169600Y139287D02*
X172000Y141687D01*
X169600Y135213D02*
Y139287D01*
Y135213D02*
X173370Y131444D01*
X174000Y141000D02*
X178020D01*
X171500Y138500D02*
X174000Y141000D01*
X171500Y136000D02*
Y138500D01*
X173370Y131444D02*
X186443D01*
X171500Y136000D02*
X174156Y133344D01*
X185656D01*
X186100Y133787D01*
Y150787D01*
X186443Y131444D02*
X188000Y133000D01*
Y150000D01*
X186100Y150787D02*
X189239Y153926D01*
X214524D01*
X188000Y150000D02*
X190026Y152026D01*
X214524D01*
X214524Y153926D02*
X215148Y154551D01*
X218453D01*
X214524Y152026D02*
X215148Y151402D01*
X218453D01*
X341500Y133000D02*
X346000Y137500D01*
X342500Y139000D02*
Y149500D01*
X344000Y151000D01*
X338000Y133000D02*
X341500D01*
X336500Y134500D02*
X338000Y133000D01*
X336500Y134500D02*
Y138500D01*
X338500Y140500D01*
Y184000D01*
X326500Y179500D02*
X331000Y184000D01*
X323610Y179500D02*
X326500D01*
X326000Y184500D02*
X331500Y190000D01*
X323610Y184500D02*
X326000D01*
X326980Y189500D02*
X337111Y199631D01*
X323610Y189500D02*
X326980D01*
X330000Y194500D02*
X336531Y201031D01*
X341131Y198369D02*
X342500Y197000D01*
X337111Y199631D02*
X339883D01*
X341131Y198369D02*
Y198383D01*
X336531Y201031D02*
X343969D01*
X344000Y201000D01*
X339883Y199631D02*
X341131Y198383D01*
X339000Y192000D02*
Y197500D01*
Y192000D02*
X343500Y187500D01*
X342500Y193500D02*
Y197000D01*
X343500Y179000D02*
Y187500D01*
X326500Y144500D02*
X331500Y139500D01*
X323610Y144500D02*
X326500D01*
X344000Y151000D02*
X348000D01*
X339500Y136000D02*
X342500Y139000D01*
X343000Y128500D02*
Y129000D01*
X341000Y131000D02*
X343000Y129000D01*
X348000Y162500D02*
Y174500D01*
X343500Y179000D02*
X348000Y174500D01*
X323610Y194500D02*
X330000D01*
X331500Y143000D02*
Y144000D01*
X326000Y149500D02*
X331500Y144000D01*
X323610Y149500D02*
X326000D01*
X328000Y154500D02*
X331000Y151500D01*
X323610Y154500D02*
X328000D01*
X323610Y159500D02*
X330500D01*
X328000Y164500D02*
X331000Y167500D01*
X323610Y164500D02*
X328000D01*
X330000Y172000D02*
Y176000D01*
X327500Y169500D02*
X330000Y172000D01*
X323610Y169500D02*
X327500D01*
X203035Y240996D02*
X205862D01*
X197035Y246996D02*
X203035Y240996D01*
X216358Y227642D02*
X225874D01*
X214000Y230000D02*
X216358Y227642D01*
X225801Y225600D02*
X225874Y225673D01*
X215713Y225600D02*
X225801D01*
X178020Y218000D02*
X180000D01*
X168020Y223000D02*
X182313D01*
X189710Y230397D01*
X199684D01*
X200081Y230000D01*
X180000Y218000D02*
X190497Y228497D01*
X198897D01*
X199294Y228100D01*
X213213D01*
X215713Y225600D01*
X200081Y230000D02*
X214000D01*
X168020Y253000D02*
X169176Y251844D01*
X172657D01*
X174000Y250500D02*
X175000Y249500D01*
X176039D01*
X178020Y247520D01*
X174000Y250500D02*
X179000Y255500D01*
X172657Y251844D02*
X178213Y257400D01*
X217203Y229610D02*
X225874D01*
X178213Y257400D02*
X187100D01*
X191000Y253500D01*
X179000Y255500D02*
X186313D01*
X189100Y252713D01*
Y242713D02*
Y252713D01*
X191000Y243500D02*
Y253500D01*
X189100Y242713D02*
X191813Y240000D01*
X191000Y243500D02*
X192600Y241900D01*
X196100D01*
X191813Y240000D02*
X195313D01*
X202813Y232500D01*
X196100Y241900D02*
X203600Y234400D01*
X358000Y182500D02*
X362500D01*
X368000Y151000D02*
X372500Y155500D01*
X368000Y182500D02*
X372500D01*
Y155500D02*
Y182500D01*
X378000Y214000D02*
X382500Y209500D01*
X378000Y151000D02*
X382500Y155500D01*
X378000Y182500D02*
X382500D01*
Y155500D02*
Y182500D01*
Y209500D01*
X358000Y151000D02*
X362500Y155500D01*
Y182500D01*
X348000D02*
X353000D01*
X348000Y151000D02*
X353000Y156000D01*
Y182500D01*
D31*
X178020Y247520D02*
X179000Y248500D01*
X181299D01*
X365142Y243300D02*
Y249442D01*
X365744Y250044D02*
X369000D01*
X365142Y249442D02*
X365744Y250044D01*
X365142Y232914D02*
X369000Y229056D01*
X365142Y232914D02*
Y236300D01*
X328700Y242600D02*
Y251300D01*
Y242600D02*
X330400Y240900D01*
X352791D01*
X328700Y230300D02*
Y237000D01*
X330400Y238700D01*
X352791D01*
X355191Y236300D01*
X357858D01*
X352791Y240900D02*
X355191Y243300D01*
X357858D01*
X365142D02*
X368321Y240121D01*
X365142Y236300D02*
X367809D01*
X369429Y237920D01*
X372854D01*
X373033Y237741D01*
X376193D01*
X368321Y240121D02*
X372854D01*
X373033Y240300D01*
X376193D01*
D32*
X127000Y116223D02*
X130149D01*
X128574D01*
Y111500D01*
X134084Y116223D02*
X132510D01*
X131723Y115436D01*
Y112287D01*
X132510Y111500D01*
X134084D01*
X134871Y112287D01*
Y115436D01*
X134084Y116223D01*
X136446Y111500D02*
Y116223D01*
X138807D01*
X139594Y115436D01*
Y113861D01*
X138807Y113074D01*
X136446D01*
D33*
X275000Y143000D02*
D03*
Y153000D02*
D03*
Y163000D02*
D03*
Y173000D02*
D03*
D34*
Y183000D02*
D03*
D35*
X155028Y266189D02*
D03*
Y204811D02*
D03*
Y127811D02*
D03*
Y189189D02*
D03*
D36*
X168020Y253000D02*
D03*
X178020Y248000D02*
D03*
X168020Y243000D02*
D03*
X178020Y238000D02*
D03*
X168020Y233000D02*
D03*
X178020Y228000D02*
D03*
X168020Y223000D02*
D03*
X178020Y218000D02*
D03*
X197035Y256996D02*
D03*
Y246996D02*
D03*
Y224004D02*
D03*
Y214004D02*
D03*
Y137004D02*
D03*
Y147004D02*
D03*
Y169996D02*
D03*
Y179996D02*
D03*
X178020Y141000D02*
D03*
X168020Y146000D02*
D03*
X178020Y151000D02*
D03*
X168020Y156000D02*
D03*
X178020Y161000D02*
D03*
X168020Y166000D02*
D03*
X178020Y171000D02*
D03*
X168020Y176000D02*
D03*
D37*
X348000Y194000D02*
D03*
X358000D02*
D03*
X368000D02*
D03*
X378000D02*
D03*
X388000D02*
D03*
Y214000D02*
D03*
X378000D02*
D03*
X368000D02*
D03*
X358000D02*
D03*
X348000D02*
D03*
Y162500D02*
D03*
X358000D02*
D03*
X368000D02*
D03*
X378000D02*
D03*
X388000D02*
D03*
Y182500D02*
D03*
X378000D02*
D03*
X368000D02*
D03*
X358000D02*
D03*
X348000D02*
D03*
Y131000D02*
D03*
X358000D02*
D03*
X368000D02*
D03*
X378000D02*
D03*
X388000D02*
D03*
Y151000D02*
D03*
X378000D02*
D03*
X368000D02*
D03*
X358000D02*
D03*
X348000D02*
D03*
D38*
X224016Y116496D02*
D03*
Y106496D02*
D03*
X214016Y116496D02*
D03*
Y106496D02*
D03*
X204016Y116496D02*
D03*
Y106496D02*
D03*
X164016D02*
D03*
Y116496D02*
D03*
X174016Y106496D02*
D03*
Y116496D02*
D03*
X184016Y106496D02*
D03*
Y116496D02*
D03*
X194016Y106496D02*
D03*
Y116496D02*
D03*
X264016D02*
D03*
Y106496D02*
D03*
X254016Y116496D02*
D03*
Y106496D02*
D03*
X244016Y116496D02*
D03*
Y106496D02*
D03*
X234016Y116496D02*
D03*
Y106496D02*
D03*
X304016Y116496D02*
D03*
Y106496D02*
D03*
X294016Y116496D02*
D03*
Y106496D02*
D03*
X284016Y116496D02*
D03*
Y106496D02*
D03*
X274016Y116496D02*
D03*
Y106496D02*
D03*
X314016D02*
D03*
Y116496D02*
D03*
X324016Y106496D02*
D03*
Y116496D02*
D03*
X334016Y106496D02*
D03*
Y116496D02*
D03*
X344016Y106496D02*
D03*
Y116496D02*
D03*
X354016Y106496D02*
D03*
X294016Y277008D02*
D03*
Y287008D02*
D03*
X304016Y277008D02*
D03*
Y287008D02*
D03*
X314016Y277008D02*
D03*
Y287008D02*
D03*
X354016D02*
D03*
Y277008D02*
D03*
X344016Y287008D02*
D03*
Y277008D02*
D03*
X334016Y287008D02*
D03*
Y277008D02*
D03*
X324016Y287008D02*
D03*
Y277008D02*
D03*
X254016D02*
D03*
Y287008D02*
D03*
X264016Y277008D02*
D03*
Y287008D02*
D03*
X274016Y277008D02*
D03*
Y287008D02*
D03*
X284016Y277008D02*
D03*
Y287008D02*
D03*
X214016Y277008D02*
D03*
Y287008D02*
D03*
X224016Y277008D02*
D03*
Y287008D02*
D03*
X234016Y277008D02*
D03*
Y287008D02*
D03*
X244016Y277008D02*
D03*
Y287008D02*
D03*
X204016D02*
D03*
Y277008D02*
D03*
X194016Y287008D02*
D03*
Y277008D02*
D03*
X184016Y287008D02*
D03*
Y277008D02*
D03*
X174016Y287008D02*
D03*
Y277008D02*
D03*
X164016Y287008D02*
D03*
D39*
X354016Y116496D02*
D03*
X164016Y277008D02*
D03*
D40*
X112008Y112992D02*
D03*
Y280000D02*
D03*
X382992Y112992D02*
D03*
Y280000D02*
D03*
D41*
X202500Y169000D02*
D03*
X207500Y225500D02*
D03*
X350500Y246500D02*
D03*
X351000Y234800D02*
D03*
X301000Y257500D02*
D03*
X320000Y269500D02*
D03*
X321500Y253000D02*
D03*
X294000Y258000D02*
D03*
X211000Y237000D02*
D03*
X378000Y188000D02*
D03*
X369500Y200000D02*
D03*
X374500Y197500D02*
D03*
X369500Y188000D02*
D03*
X380000Y200000D02*
D03*
X367000Y207000D02*
D03*
X354500Y208000D02*
D03*
X390000Y201000D02*
D03*
Y205500D02*
D03*
X332000Y211000D02*
D03*
X206500Y185000D02*
D03*
X288000Y212000D02*
D03*
X282500Y215500D02*
D03*
X280500Y203000D02*
D03*
X281000Y188500D02*
D03*
X109500Y177500D02*
D03*
X130000D02*
D03*
X109500Y137500D02*
D03*
X130000D02*
D03*
Y158000D02*
D03*
X109500D02*
D03*
X109000Y235000D02*
D03*
X129500D02*
D03*
Y214500D02*
D03*
X109000D02*
D03*
X129500Y254500D02*
D03*
X109000D02*
D03*
X312500Y126500D02*
D03*
X324000D02*
D03*
X325000Y251000D02*
D03*
X318000Y237000D02*
D03*
Y247000D02*
D03*
Y256500D02*
D03*
X287500Y251000D02*
D03*
Y256500D02*
D03*
X277000Y243000D02*
D03*
X218000Y221000D02*
D03*
X252000Y153000D02*
D03*
X240000D02*
D03*
X275500Y127500D02*
D03*
X257000D02*
D03*
X237000D02*
D03*
X256500Y136000D02*
D03*
X206000Y202000D02*
D03*
X219000D02*
D03*
X230000D02*
D03*
X239500Y191500D02*
D03*
X262000Y184000D02*
D03*
X250000Y171000D02*
D03*
X268000Y167000D02*
D03*
X222500Y191500D02*
D03*
X213000Y182500D02*
D03*
X238500Y175000D02*
D03*
X242000Y166000D02*
D03*
X235000Y164500D02*
D03*
X225000D02*
D03*
X216500Y145000D02*
D03*
X229000Y147500D02*
D03*
X246000Y159500D02*
D03*
Y147000D02*
D03*
X257500D02*
D03*
Y159500D02*
D03*
X315500Y202000D02*
D03*
Y191000D02*
D03*
Y178500D02*
D03*
Y166000D02*
D03*
Y152500D02*
D03*
Y140000D02*
D03*
X304000D02*
D03*
Y152500D02*
D03*
Y166000D02*
D03*
X294000Y184500D02*
D03*
X304000Y178500D02*
D03*
Y191000D02*
D03*
Y202000D02*
D03*
X309500Y223000D02*
D03*
Y231500D02*
D03*
Y241000D02*
D03*
X302000Y223000D02*
D03*
Y231500D02*
D03*
Y241000D02*
D03*
Y250000D02*
D03*
X293500Y245000D02*
D03*
Y237500D02*
D03*
Y230000D02*
D03*
X301000Y216000D02*
D03*
X293500Y223000D02*
D03*
X383000Y262500D02*
D03*
X367000Y263000D02*
D03*
X387500Y220500D02*
D03*
X374000Y219000D02*
D03*
X358500Y222000D02*
D03*
X351000Y223000D02*
D03*
X282500Y225000D02*
D03*
X288500D02*
D03*
X301500Y133500D02*
D03*
X218000Y234000D02*
D03*
X371000Y234500D02*
D03*
X319000Y226500D02*
D03*
X340500Y222000D02*
D03*
X291500Y265000D02*
D03*
X301000Y268500D02*
D03*
X297500Y264500D02*
D03*
X334000Y266000D02*
D03*
X351000Y144500D02*
D03*
X349500Y141500D02*
D03*
X344000Y221000D02*
D03*
X341500Y211500D02*
D03*
X344000Y206000D02*
D03*
X264000Y187500D02*
D03*
X204500Y165500D02*
D03*
X254000Y194000D02*
D03*
X293500Y164500D02*
D03*
X294500Y133500D02*
D03*
X256000Y179000D02*
D03*
X232500Y160000D02*
D03*
X224500D02*
D03*
X227000Y180000D02*
D03*
X291500Y209500D02*
D03*
X282000Y149500D02*
D03*
X329000Y204500D02*
D03*
X296500Y178000D02*
D03*
X285500Y136000D02*
D03*
X331500Y131000D02*
D03*
Y136000D02*
D03*
X281500Y174500D02*
D03*
X267500Y152000D02*
D03*
X296000Y194500D02*
D03*
X293500Y190500D02*
D03*
X226000Y170299D02*
D03*
X256500Y174500D02*
D03*
X244000Y179748D02*
D03*
X338500Y184000D02*
D03*
X331000D02*
D03*
X331500Y190000D02*
D03*
X339000Y197500D02*
D03*
X339500Y136000D02*
D03*
X343000Y128500D02*
D03*
X378000Y208500D02*
D03*
X360000D02*
D03*
X347500D02*
D03*
X375500Y201500D02*
D03*
X342500Y193500D02*
D03*
X344000Y201000D02*
D03*
X331500Y143000D02*
D03*
X331000Y151500D02*
D03*
X330500Y159500D02*
D03*
X331000Y167500D02*
D03*
Y176000D02*
D03*
X229500Y223000D02*
D03*
X203095Y251890D02*
D03*
X338500Y225800D02*
D03*
X280902Y268500D02*
D03*
X281500Y258000D02*
D03*
X312000Y268000D02*
D03*
X249862Y257862D02*
D03*
X254000Y259500D02*
D03*
X244500Y228000D02*
D03*
X246500Y247000D02*
D03*
X235000Y245000D02*
D03*
X238000Y242000D02*
D03*
X241000Y239000D02*
D03*
X269000Y243500D02*
D03*
X267000Y240000D02*
D03*
X264500Y248000D02*
D03*
X265000Y235000D02*
D03*
X266500Y230500D02*
D03*
X265000Y227500D02*
D03*
X265500Y244500D02*
D03*
X242500Y262500D02*
D03*
X226500Y215500D02*
D03*
X255000Y248500D02*
D03*
X240000Y258500D02*
D03*
X254500Y213000D02*
D03*
X243000Y211500D02*
D03*
X246000Y213500D02*
D03*
X248000Y211000D02*
D03*
X250500Y214500D02*
D03*
X240500D02*
D03*
X295500Y125000D02*
D03*
X223000D02*
D03*
X257000Y219500D02*
D03*
X229500Y219000D02*
D03*
X226500Y265000D02*
D03*
X224000Y258500D02*
D03*
X256000Y255000D02*
D03*
X249500Y237000D02*
D03*
X245500D02*
D03*
X228500Y254500D02*
D03*
X253500Y226500D02*
D03*
X362500Y249800D02*
D03*
X333000Y225800D02*
D03*
X370500Y244300D02*
D03*
X326000Y238300D02*
D03*
Y233300D02*
D03*
Y228800D02*
D03*
X341500Y244300D02*
D03*
X345500D02*
D03*
X332500Y236300D02*
D03*
X337500D02*
D03*
X342000D02*
D03*
X347000D02*
D03*
X369000Y258800D02*
D03*
X380500Y226800D02*
D03*
X384000D02*
D03*
X387500D02*
D03*
X381000Y253800D02*
D03*
X384000D02*
D03*
X387000D02*
D03*
X356000Y252800D02*
D03*
X337000Y244300D02*
D03*
X333700Y260000D02*
D03*
X346000Y259800D02*
D03*
X353000Y258820D02*
D03*
X358000Y256300D02*
D03*
X331500Y245300D02*
D03*
X271500Y210500D02*
D03*
X233000Y213500D02*
D03*
X260000Y210500D02*
D03*
X264500Y255000D02*
D03*
X170500Y205000D02*
D03*
X185500D02*
D03*
X168000Y191000D02*
D03*
X187000Y164500D02*
D03*
X295500Y152500D02*
D03*
X298000Y143500D02*
D03*
X209057Y175000D02*
D03*
X208500Y179000D02*
D03*
X181000Y176500D02*
D03*
X190000Y261000D02*
D03*
X175500Y261500D02*
D03*
X195000Y234500D02*
D03*
X187000Y214500D02*
D03*
X165000Y214000D02*
D03*
X157000Y227500D02*
D03*
X159000Y250500D02*
D03*
X158500Y177000D02*
D03*
Y168500D02*
D03*
X160000Y150500D02*
D03*
X163000Y139500D02*
D03*
X169000Y127500D02*
D03*
X182500Y126000D02*
D03*
X268500Y173500D02*
D03*
D42*
X382984Y288500D02*
D03*
X374492Y279992D02*
D03*
X383000Y271500D02*
D03*
X391492Y280008D02*
D03*
X389484Y286008D02*
D03*
X376984Y286492D02*
D03*
X376500Y273992D02*
D03*
X389000Y273508D02*
D03*
X382984Y121492D02*
D03*
X374492Y112984D02*
D03*
X383000Y104492D02*
D03*
X391492Y113000D02*
D03*
X389484Y119000D02*
D03*
X376984Y119484D02*
D03*
X376500Y106984D02*
D03*
X389000Y106500D02*
D03*
X112000Y121492D02*
D03*
X103508Y112984D02*
D03*
X112016Y104492D02*
D03*
X120508Y113000D02*
D03*
X118500Y119000D02*
D03*
X106000Y119484D02*
D03*
X105516Y106984D02*
D03*
X118016Y106500D02*
D03*
Y273508D02*
D03*
X105516Y273992D02*
D03*
X106000Y286492D02*
D03*
X118500Y286008D02*
D03*
X120508Y280008D02*
D03*
X112016Y271500D02*
D03*
X103508Y279992D02*
D03*
X112000Y288500D02*
D03*
M02*
