M48
;Layer_Color=6321
;FILE_FORMAT=2:5
INCH,LZ
;TYPE=PLATED
T1F00S00C0.01181
T2F00S00C0.02800
T3F00S00C0.03150
T4F00S00C0.03500
T5F00S00C0.03504
T6F00S00C0.04016
T7F00S00C0.06220
T8F00S00C0.12598
;TYPE=NON_PLATED
T9F00S00C0.12835
%
T01
X01095Y01375
X013
X0163Y01395
X016Y01505
X0169Y01275
X01825Y0126
X0223Y0125
X0237Y01275
X0257
X02565Y0136
X02575Y0147
X0252Y0153
X024
X0246Y0147
X0229Y01475
X02165Y0145
X02675Y0152
X0282Y01495
X02955Y01525
X0304
Y014
X03015Y01335
X02945
X02955Y0125
X02855Y0136
X02755Y01275
X0298Y01435
X03155Y014
Y01525
X0331Y01515
X03315Y0143
Y0136
Y0131
X0324Y01265
X03125
X0343Y01285
X03395Y0136
X03495Y01415
X0351Y01445
X03305Y01595
X0331Y01675
Y0176
Y0184
X03315Y019
X03385Y0184
X03425Y01935
X0339Y01975
X0344Y0201
Y0206
X03475Y02085
X03545Y0208
X036Y02085
X0367Y0207
X03695Y02
X03745Y01975
X03755Y02015
X038Y02
X0378Y02085
X0374Y0219
X03805Y02268
X0384
X03875
Y02205
X039Y02055
Y0201
X0378Y0188
X03695
X03585Y0222
X0351Y0223
X0344Y0221
X03405Y0222
X03385Y02258
X0333
X0326Y02288
Y02333
Y02383
X03325Y02363
X03375
X0342
X0347
X0351Y02348
X03505Y02465
X03455Y02443
X03415
X0337
X03315Y02453
X0325Y0251
X03215Y0253
X0318Y02565
Y0247
Y0237
X0319Y02265
X03155Y0202
Y0191
Y01785
Y0166
X0329Y02045
X0332Y0211
X03415Y02115
X0371Y02345
X03705Y02443
X03625Y02498
X0356Y02528
X0358Y02563
X0353Y025882
X0346Y02598
X03337Y026
X0334Y0266
X032Y02695
X0367Y0263
X0369Y02588
X0381Y02538
X0384
X0387
X0383Y02625
X0312Y0268
X0301Y02685
X02975Y02645
X02915Y0265
X0294Y0258
X0301Y02575
X0302Y025
Y0241
X03095
Y02315
X0302
Y0223
X03095
X0301Y0216
X02935Y0223
Y023
Y02375
Y0245
X02875Y0251
Y02565
X02815Y0258
X0280902Y02685
X0277Y0243
X0269Y02435
X02655Y02445
X02645Y0248
Y0255
X0256
X0254Y02595
X0249862Y0257862
X024Y02585
X02425Y02625
X02265Y0265
X0224Y02585
X02285Y02545
X0235Y0245
X0238Y0242
X0241Y0239
X02455Y0237
X02495
X02465Y0247
X0255Y02485
X0267Y024
X0265Y0235
X02665Y02305
X0265Y02275
X02535Y02265
X02445Y0228
X0246Y02135
X0248Y0211
X0243Y02115
X02405Y02145
X0233Y02135
X02265Y02155
X02295Y0219
Y0223
X0218Y0221
Y0234
X0211Y0237
X02075Y02255
X0195Y02345
X0203095Y025189
X019Y0261
X01755Y02615
X0159Y02505
X0157Y02275
X0165Y0214
X01705Y0205
X01855
X0187Y02145
X0206Y0202
X0219
X023
X02225Y01915
X0227Y018
X0226Y0170299
X0225Y01645
X02245Y016
X02325
X0235Y01645
X0242Y0166
X0246Y01595
X02575
X02565Y01745
X0256Y0179
X0262Y0184
X0264Y01875
X0254Y0194
X02395Y01915
X0244Y0179748
X02385Y0175
X025Y0171
X02685Y01735
X0268Y0167
X02815Y01745
X0281Y01885
X02935Y01905
X0294Y01845
X02965Y0178
X0304Y01785
Y0166
X02935Y01645
X0296Y01945
X0304Y0191
Y0202
X02915Y02095
X0288Y0212
X02825Y02155
Y0225
X02885
X02805Y0203
X02715Y02105
X026
X02545Y0213
X02505Y02145
X0257Y02195
X0213Y01825
X02085Y0179
X0209057Y0175
X02025Y0169
X02045Y01655
X0187Y01645
X0181Y01765
X01585Y0177
Y01685
X0168Y0191
X02065Y0185
X013Y01775
Y0158
X01095
Y01775
X0109Y02145
Y0235
Y02545
X01295
Y0235
Y02145
T02
X0105516Y0106984
X0103508Y0112984
X0106Y0119484
X0112Y0121492
X01185Y0119
X0120508Y0113
X0118016Y01065
X0112016Y0104492
X03765Y0106984
X0374492Y0112984
X0376984Y0119484
X0382984Y0121492
X0389484Y0119
X0391492Y0113
X0389Y01065
X0383Y0104492
Y02715
X0389Y0273508
X0391492Y0280008
X0389484Y0286008
X0382984Y02885
X0376984Y0286492
X0374492Y0279992
X03765Y0273992
X0118016Y0273508
X0112016Y02715
X0105516Y0273992
X0103508Y0279992
X0106Y0286492
X0112Y02885
X01185Y0286008
X0120508Y0280008
T03
X0348Y0131
X0358
X0368
X0378
X0388
Y0151
X0378
X0368
X0358
X0348
Y01625
X0358
X0368
X0378
X0388
Y01825
X0378
X0368
X0358
X0348
Y0194
X0358
X0368
X0378
X0388
Y0214
X0378
X0368
X0358
X0348
T04
X0164016Y0106496
Y0116496
X0174016
Y0106496
X0184016
Y0116496
X0194016
X0204016
X0214016
X0224016
Y0106496
X0214016
X0204016
X0194016
X0234016
X0244016
X0254016
X0264016
Y0116496
X0254016
X0244016
X0234016
X0274016
X0284016
X0294016
X0304016
Y0106496
X0294016
X0284016
X0274016
X0314016
Y0116496
X0324016
Y0106496
X0334016
Y0116496
X0344016
Y0106496
X0354016
Y0116496
Y0277008
Y0287008
X0344016
Y0277008
X0334016
Y0287008
X0324016
X0314016
Y0277008
X0324016
X0304016
X0294016
Y0287008
X0304016
X0284016
X0274016
X0264016
X0254016
Y0277008
X0264016
X0274016
X0284016
X0244016
X0234016
X0224016
X0214016
Y0287008
X0224016
X0234016
X0244016
X0204016
Y0277008
X0194016
Y0287008
X0184016
Y0277008
X0174016
Y0287008
X0164016
Y0277008
T05
X016802Y0146
Y0156
X017802Y0151
Y0141
Y0161
Y0171
X016802Y0166
Y0176
Y0223
Y0233
Y0243
Y0253
X017802Y0248
Y0238
Y0228
Y0218
T06
X0197035Y0137004
Y0147004
X0275Y0143
Y0153
Y0163
Y0173
Y0183
X0197035Y0179996
Y0169996
Y0214004
Y0224004
Y0246996
Y0256996
T07
X0155028Y0127811
Y0189189
Y0204811
Y0266189
T08
X0112008Y0112992
X0382992
Y028
X0112008
T09
X014302Y0136
Y0181
Y0213
Y0258
M30
