<?xml version="1.0" encoding="UTF-8" standalone="no"?>
<!-- Created with Inkscape (http://www.inkscape.org/) -->

<svg
   xmlns:dc="http://purl.org/dc/elements/1.1/"
   xmlns:cc="http://creativecommons.org/ns#"
   xmlns:rdf="http://www.w3.org/1999/02/22-rdf-syntax-ns#"
   xmlns:svg="http://www.w3.org/2000/svg"
   xmlns="http://www.w3.org/2000/svg"
   xmlns:sodipodi="http://sodipodi.sourceforge.net/DTD/sodipodi-0.dtd"
   xmlns:inkscape="http://www.inkscape.org/namespaces/inkscape"
   width="149.35411mm"
   height="199.24286mm"
   viewBox="0 0 149.35411 199.24286"
   version="1.1"
   id="svg8"
   inkscape:version="0.92.3 (2405546, 2018-03-11)"
   sodipodi:docname="basic_overview.svg">
  <defs
     id="defs2">
    <clipPath
       id="clipEmfPath1"
       clipPathUnits="userSpaceOnUse">
      <path
         id="path815"
         d="M 1.599456,1.4395104 H 567.32705 V 760.22144 H 1.599456 Z"
         inkscape:connector-curvature="0" />
    </clipPath>
    <pattern
       y="0"
       x="0"
       height="6"
       width="6"
       patternUnits="userSpaceOnUse"
       id="EMFhbasepattern" />
  </defs>
  <sodipodi:namedview
     id="base"
     pagecolor="#ffffff"
     bordercolor="#666666"
     borderopacity="1.0"
     inkscape:pageopacity="0.0"
     inkscape:pageshadow="2"
     inkscape:zoom="0.98994949"
     inkscape:cx="100.01947"
     inkscape:cy="353.47816"
     inkscape:document-units="mm"
     inkscape:current-layer="layer1"
     showgrid="false"
     fit-margin-top="0"
     fit-margin-left="0"
     fit-margin-right="0"
     fit-margin-bottom="0"
     inkscape:window-width="3440"
     inkscape:window-height="1377"
     inkscape:window-x="-8"
     inkscape:window-y="-8"
     inkscape:window-maximized="1" />
  <metadata
     id="metadata5">
    <rdf:RDF>
      <cc:Work
         rdf:about="">
        <dc:format>image/svg+xml</dc:format>
        <dc:type
           rdf:resource="http://purl.org/dc/dcmitype/StillImage" />
        <dc:title></dc:title>
      </cc:Work>
    </rdf:RDF>
  </metadata>
  <g
     inkscape:label="Ebene 1"
     inkscape:groupmode="layer"
     id="layer1"
     transform="translate(0,-97.757143)">
    <g
       id="g1073"
       transform="matrix(0.26458333,0,0,0.26458333,-0.56601582,97.191127)">
      <path
         id="path821"
         d="m 2.1592656,332.76682 v -2.55913 H 2.799048 v 2.55913 z m 0,-4.47847 v -2.55913 H 2.799048 v 2.55913 z m 0,-4.47848 v -2.55913 H 2.799048 v 2.55913 z m 0,-4.47848 v -2.55913 H 2.799048 v 2.55913 z m 0,-4.47847 v -2.55913 H 2.799048 v 2.55913 z m 0,-4.47848 v -2.55913 H 2.799048 v 2.55913 z m 0,-4.47848 v -2.55913 H 2.799048 v 2.55913 z m 0,-4.47847 v -2.55913 H 2.799048 v 2.55913 z m 0,-4.47848 v -2.55913 H 2.799048 v 2.55913 z m 0,-4.47848 V 289.9014 H 2.799048 v 2.55913 z m 0,-4.47848 v -2.55912 H 2.799048 v 2.55912 z m 0,-4.47847 v -2.55913 H 2.799048 v 2.55913 z m 0,-4.47848 v -2.55913 H 2.799048 v 2.55913 z m 0,-4.47848 v -2.55913 H 2.799048 v 2.55913 z m 0,-4.47847 v -2.55913 H 2.799048 v 2.55913 z m 0,-4.47848 v -2.55913 H 2.799048 v 2.55913 z m 0,-4.47848 v -2.55913 H 2.799048 v 2.55913 z m 0,-4.47847 v -2.55913 H 2.799048 v 2.55913 z m 0,-4.47848 v -2.55913 H 2.799048 v 2.55913 z m 0,-4.47848 v -2.55913 H 2.799048 v 2.55913 z m 0,-4.47847 v -2.55913 H 2.799048 v 2.55913 z m 0,-4.47848 v -2.55913 H 2.799048 v 2.55913 z m 0,-4.47848 V 231.6812 H 2.799048 v 2.55913 z m 0,-4.47847 v -2.55913 H 2.799048 v 2.55913 z m 0,-4.47848 v -2.55913 H 2.799048 v 2.55913 z m 0,-4.47848 v -2.55913 H 2.799048 v 2.55913 z m 0,-4.47847 V 213.7673 H 2.799048 v 2.55913 z m 0,-4.47848 v -2.55913 H 2.799048 v 2.55913 z m 0,-4.47848 v -2.55913 H 2.799048 v 2.55913 z m 0,-4.47847 v -2.55913 H 2.799048 v 2.55913 z m 0,-4.47848 v -2.55913 H 2.799048 v 2.55913 z m 0,-4.47848 v -2.55913 H 2.799048 v 2.55913 z m 0,-4.47848 v -2.55913 H 2.799048 v 2.55913 z m 0,-4.47847 v -2.55913 H 2.799048 v 2.55913 z m 0,-4.47848 v -2.55913 H 2.799048 v 2.55913 z m 0,-4.47848 V 173.461 H 2.799048 v 2.55913 z m 0,-4.47847 v -2.55913 H 2.799048 v 2.55913 z m 0,-4.47848 v -2.55913 H 2.799048 v 2.55913 z m 0,-4.47848 v -2.55913 H 2.799048 v 2.55913 z m 0,-4.47847 V 155.5471 H 2.799048 v 2.55913 z m 0,-4.47848 v -2.55913 H 2.799048 v 2.55913 z m 0,-4.47848 v -2.55913 H 2.799048 v 2.55913 z m 0,-4.47847 v -2.55913 H 2.799048 v 2.55913 z m 0,-4.47848 v -2.55913 H 2.799048 v 2.55913 z m 0,-4.47848 v -2.55913 H 2.799048 v 2.55913 z m 0,-4.47847 v -2.55913 H 2.799048 v 2.55913 z m 0,-4.47848 v -2.55913 H 2.799048 v 2.55913 z m 0,-4.47848 v -2.55913 H 2.799048 v 2.55913 z m 0,-4.47847 v -2.55913 H 2.799048 v 2.55913 z m 0,-4.47848 v -2.55913 H 2.799048 v 2.55913 z m 0,-4.47848 v -2.55913 H 2.799048 v 2.55913 z m 0,-4.47848 v -2.55912 H 2.799048 v 2.55912 z m 0,-4.478472 v -2.55913 H 2.799048 v 2.55913 z m 0,-4.478477 v -2.55913 H 2.799048 v 2.55913 z m 0,-4.478477 V 88.369945 H 2.799048 v 2.559129 z m 0,-4.478477 V 83.891468 H 2.799048 v 2.559129 z m 0,-4.478476 v -2.55913 H 2.799048 v 2.55913 z m 0,-4.478477 v -2.55913 H 2.799048 v 2.55913 z m 0,-4.478477 v -2.55913 H 2.799048 v 2.55913 z m 0,-4.478477 V 65.97756 H 2.799048 v 2.55913 z m 0,-4.478477 V 61.499084 H 2.799048 v 2.559129 z m 0,-4.478477 V 57.020607 H 2.799048 v 2.559129 z m 0,-4.478476 V 52.54213 H 2.799048 v 2.55913 z m 0,-4.478477 v -2.55913 H 2.799048 v 2.55913 z m 0,-4.478477 v -2.55913 H 2.799048 v 2.55913 z m 0,-4.478477 v -2.55913 H 2.799048 v 2.55913 z m 0,-4.478477 V 34.628223 H 2.799048 v 2.559129 z m 0,-4.478477 V 30.149746 H 2.799048 v 2.559129 z m 0,-4.478476 v -2.55913 H 2.799048 v 2.55913 z m 0,-4.478477 v -2.55913 H 2.799048 v 2.55913 z m 0,-4.478477 v -2.55913 H 2.799048 v 2.55913 z m 0,-4.478477 v -2.55913 H 2.799048 v 2.55913 z m 0,-4.478477 V 7.7573617 H 2.799048 v 2.5591293 z m 0,-4.4784766 V 3.2788848 H 2.799048 V 5.8380144 Z M 3.598776,2.1592656 H 6.1579056 V 2.799048 H 3.598776 Z m 4.4784769,0 H 10.636382 V 2.799048 H 8.0772529 Z m 4.4784771,0 h 2.559129 V 2.799048 H 12.55573 Z m 4.478477,0 h 2.559129 V 2.799048 h -2.559129 z m 4.478476,0 h 2.55913 V 2.799048 h -2.55913 z m 4.478477,0 h 2.55913 V 2.799048 h -2.55913 z m 4.478477,0 h 2.55913 V 2.799048 h -2.55913 z m 4.478477,0 h 2.559129 V 2.799048 h -2.559129 z m 4.478477,0 H 41.98572 V 2.799048 h -2.559129 z m 4.478477,0 h 2.559129 V 2.799048 h -2.559129 z m 4.478476,0 h 2.55913 V 2.799048 h -2.55913 z m 4.478477,0 h 2.55913 V 2.799048 h -2.55913 z m 4.478477,0 h 2.55913 V 2.799048 h -2.55913 z m 4.478477,0 h 2.559129 V 2.799048 h -2.559129 z m 4.478477,0 h 2.559129 V 2.799048 h -2.559129 z m 4.478477,0 h 2.559129 V 2.799048 h -2.559129 z m 4.478476,0 h 2.55913 V 2.799048 h -2.55913 z m 4.478477,0 h 2.55913 V 2.799048 h -2.55913 z m 4.478477,0 h 2.55913 V 2.799048 h -2.55913 z m 4.478477,0 h 2.559129 V 2.799048 h -2.559129 z m 4.478477,0 h 2.559129 V 2.799048 h -2.559129 z m 4.478477,0 h 2.55913 V 2.799048 h -2.55913 z m 4.47848,0 h 2.55913 V 2.799048 h -2.55913 z m 4.47847,0 h 2.55913 V 2.799048 h -2.55913 z m 4.47848,0 h 2.55913 V 2.799048 h -2.55913 z m 4.47848,0 h 2.55913 V 2.799048 h -2.55913 z m 4.47847,0 h 2.55913 V 2.799048 h -2.55913 z m 4.47848,0 h 2.55913 V 2.799048 h -2.55913 z m 4.47848,0 h 2.55913 V 2.799048 h -2.55913 z m 4.47847,0 h 2.55913 V 2.799048 h -2.55913 z m 4.47848,0 h 2.55913 V 2.799048 h -2.55913 z m 4.47848,0 h 2.55913 V 2.799048 h -2.55913 z m 4.47847,0 h 2.55913 V 2.799048 h -2.55913 z m 4.47848,0 h 2.55913 V 2.799048 h -2.55913 z m 4.47848,0 h 2.55913 V 2.799048 h -2.55913 z m 4.47848,0 h 2.55912 V 2.799048 h -2.55912 z m 4.47847,0 h 2.55913 V 2.799048 h -2.55913 z m 4.47848,0 h 2.55913 V 2.799048 h -2.55913 z m 4.47848,0 h 2.55913 V 2.799048 h -2.55913 z m 4.47847,0 h 2.55913 V 2.799048 h -2.55913 z m 4.47848,0 h 2.55913 V 2.799048 h -2.55913 z m 4.47848,0 h 2.55913 V 2.799048 h -2.55913 z m 4.47847,0 h 2.55913 V 2.799048 h -2.55913 z m 4.47848,0 h 2.55913 V 2.799048 h -2.55913 z m 4.47848,0 h 2.55913 V 2.799048 h -2.55913 z m 4.47847,0 h 2.55913 V 2.799048 h -2.55913 z m 4.47848,0 h 2.55913 V 2.799048 h -2.55913 z m 4.47848,0 h 2.55913 V 2.799048 h -2.55913 z m 4.47847,0 h 2.55913 V 2.799048 h -2.55913 z m 4.47848,0 h 2.55913 V 2.799048 h -2.55913 z m 4.47848,0 h 2.55913 V 2.799048 h -2.55913 z m 4.47847,0 h 2.55913 V 2.799048 h -2.55913 z m 4.47848,0 h 2.55913 V 2.799048 h -2.55913 z m 4.47848,0 h 2.55913 V 2.799048 h -2.55913 z m 4.47847,0 h 2.55913 V 2.799048 h -2.55913 z m 4.47848,0 h 2.55913 V 2.799048 H 249.915 Z m 4.47848,0 h 2.55913 V 2.799048 h -2.55913 z m 4.47848,0 h 2.55913 V 2.799048 h -2.55913 z m 4.47847,0 h 2.55913 V 2.799048 h -2.55913 z m 4.47848,0 h 2.55913 V 2.799048 h -2.55913 z m 4.47848,0 h 2.55913 V 2.799048 h -2.55913 z m 4.47847,0 h 2.55913 V 2.799048 h -2.55913 z m 4.47848,0 h 2.55913 V 2.799048 h -2.55913 z m 4.47848,0 h 2.55913 V 2.799048 h -2.55913 z m 4.47847,0 h 2.55913 V 2.799048 h -2.55913 z m 4.47848,0 h 2.55913 V 2.799048 h -2.55913 z m 4.47848,0 h 2.55913 V 2.799048 h -2.55913 z m 4.47847,0 h 2.55913 V 2.799048 h -2.55913 z m 4.47848,0 h 2.55913 V 2.799048 h -2.55913 z m 4.47848,0 h 2.55913 V 2.799048 h -2.55913 z m 4.47847,0 h 2.55913 V 2.799048 h -2.55913 z m 4.47848,0 h 2.55913 V 2.799048 h -2.55913 z m 4.47848,0 h 2.55913 V 2.799048 h -2.55913 z m 4.47847,0 h 2.55913 V 2.799048 h -2.55913 z m 4.47848,0 h 2.55913 V 2.799048 h -2.55913 z m 4.47848,0 h 2.55913 V 2.799048 h -2.55913 z m 4.47848,0 h 2.55912 V 2.799048 h -2.55912 z m 4.47847,0 h 2.55913 V 2.799048 h -2.55913 z m 4.47848,0 h 2.55913 V 2.799048 h -2.55913 z m 4.47848,0 h 2.55913 V 2.799048 h -2.55913 z m 4.47847,0 h 2.55913 V 2.799048 h -2.55913 z m 4.47848,0 h 2.55913 V 2.799048 h -2.55913 z m 4.47848,0 h 2.55913 V 2.799048 h -2.55913 z m 4.47847,0 h 2.55913 V 2.799048 h -2.55913 z m 4.47848,0 h 2.55913 V 2.799048 h -2.55913 z m 4.47848,0 h 2.55913 V 2.799048 h -2.55913 z m 4.47847,0 h 2.55913 V 2.799048 h -2.55913 z m 4.47848,0 h 2.55913 V 2.799048 h -2.55913 z m 4.47848,0 h 2.55913 V 2.799048 h -2.55913 z m 4.47847,0 h 2.55913 V 2.799048 h -2.55913 z m 4.47848,0 h 2.55913 V 2.799048 h -2.55913 z m 4.47848,0 h 2.55913 V 2.799048 h -2.55913 z m 4.47847,0 h 2.55913 V 2.799048 h -2.55913 z m 4.47848,0 h 2.55913 V 2.799048 h -2.55913 z m 4.47848,0 h 2.55913 V 2.799048 h -2.55913 z m 4.47848,0 h 2.55912 V 2.799048 h -2.55912 z m 4.47847,0 h 2.55913 V 2.799048 h -2.55913 z m 4.47848,0 h 2.55913 V 2.799048 h -2.55913 z m 4.47848,0 h 2.55913 V 2.799048 h -2.55913 z m 4.47847,0 h 2.55913 V 2.799048 h -2.55913 z m 4.47848,0 h 2.55913 V 2.799048 h -2.55913 z m 4.47848,0 h 2.55913 V 2.799048 h -2.55913 z m 4.47847,0 h 2.55913 V 2.799048 h -2.55913 z m 4.47848,0 h 2.55913 V 2.799048 h -2.55913 z m 4.47848,0 h 2.55913 V 2.799048 h -2.55913 z m 4.47847,0 h 2.55913 V 2.799048 h -2.55913 z m 4.47848,0 h 2.55913 V 2.799048 h -2.55913 z m 4.47848,0 h 2.55913 V 2.799048 h -2.55913 z m 4.47847,0 h 2.55913 V 2.799048 h -2.55913 z m 4.47848,0 h 2.55913 V 2.799048 h -2.55913 z m 4.47848,0 h 2.55913 V 2.799048 h -2.55913 z m 4.47847,0 h 2.55913 V 2.799048 h -2.55913 z m 4.47848,0 h 2.55913 V 2.799048 h -2.55913 z m 4.47848,0 h 2.55913 V 2.799048 h -2.55913 z m 4.47847,0 h 2.55913 V 2.799048 h -2.55913 z m 4.47848,0 h 2.55913 V 2.799048 h -2.55913 z m 4.47848,0 h 2.55913 V 2.799048 h -2.55913 z m 4.47848,0 h 2.55913 V 2.799048 h -2.55913 z m 4.47847,0 h 2.55913 V 2.799048 h -2.55913 z m 4.47848,0 h 2.55913 V 2.799048 h -2.55913 z m 4.47848,0 h 2.55913 V 2.799048 H 541.016 Z m 4.47847,0 h 2.55913 V 2.799048 h -2.55913 z m 4.47848,0 h 2.55913 V 2.799048 h -2.55913 z m 4.47848,0 h 2.55913 V 2.799048 h -2.55913 z m 4.47847,0 h 2.55913 V 2.799048 h -2.55913 z m 4.47848,0 h 2.55913 V 2.799048 h -2.55913 z m 3.19891,1.9193472 v 2.5591296 h -0.63978 V 4.0786128 Z m 0,4.4784769 v 2.5591293 h -0.63978 V 8.5570897 Z m 0,4.4784763 v 2.55913 h -0.63978 v -2.55913 z m 0,4.478477 v 2.55913 h -0.63978 v -2.55913 z m 0,4.478477 v 2.55913 h -0.63978 v -2.55913 z m 0,4.478477 v 2.55913 h -0.63978 v -2.55913 z m 0,4.478477 v 2.559129 h -0.63978 v -2.559129 z m 0,4.478477 v 2.559129 h -0.63978 v -2.559129 z m 0,4.478476 v 2.55913 h -0.63978 v -2.55913 z m 0,4.478477 v 2.55913 h -0.63978 v -2.55913 z m 0,4.478477 v 2.55913 h -0.63978 v -2.55913 z m 0,4.478477 v 2.55913 h -0.63978 v -2.55913 z m 0,4.478477 v 2.559129 h -0.63978 v -2.559129 z m 0,4.478477 v 2.559129 h -0.63978 v -2.559129 z m 0,4.478476 v 2.55913 h -0.63978 v -2.55913 z m 0,4.478477 v 2.55913 h -0.63978 v -2.55913 z m 0,4.478477 v 2.55913 h -0.63978 v -2.55913 z m 0,4.478477 v 2.55913 h -0.63978 v -2.55913 z m 0,4.478477 v 2.559129 h -0.63978 v -2.559129 z m 0,4.478477 v 2.559129 h -0.63978 v -2.559129 z m 0,4.478476 v 2.55913 h -0.63978 v -2.55913 z m 0,4.478477 v 2.559134 h -0.63978 v -2.559134 z m 0,4.478474 v 2.55913 h -0.63978 v -2.55913 z m 0,4.47848 v 2.55913 h -0.63978 v -2.55913 z m 0,4.47848 v 2.55913 h -0.63978 v -2.55913 z m 0,4.47847 v 2.55913 h -0.63978 v -2.55913 z m 0,4.47848 v 2.55913 h -0.63978 v -2.55913 z m 0,4.47848 v 2.55913 h -0.63978 v -2.55913 z m 0,4.47847 v 2.55913 h -0.63978 v -2.55913 z m 0,4.47848 v 2.55913 h -0.63978 v -2.55913 z m 0,4.47848 v 2.55913 h -0.63978 v -2.55913 z m 0,4.47847 v 2.55913 h -0.63978 v -2.55913 z m 0,4.47848 v 2.55913 h -0.63978 v -2.55913 z m 0,4.47848 v 2.55913 h -0.63978 v -2.55913 z m 0,4.47848 v 2.55912 h -0.63978 v -2.55912 z m 0,4.47847 v 2.55913 h -0.63978 v -2.55913 z m 0,4.47848 v 2.55913 h -0.63978 v -2.55913 z m 0,4.47848 v 2.55913 h -0.63978 v -2.55913 z m 0,4.47847 v 2.55913 h -0.63978 v -2.55913 z m 0,4.47848 v 2.55913 h -0.63978 v -2.55913 z m 0,4.47848 v 2.55913 h -0.63978 v -2.55913 z m 0,4.47847 v 2.55913 h -0.63978 v -2.55913 z m 0,4.47848 v 2.55913 h -0.63978 v -2.55913 z m 0,4.47848 v 2.55913 h -0.63978 v -2.55913 z m 0,4.47847 v 2.55913 h -0.63978 v -2.55913 z m 0,4.47848 v 2.55913 h -0.63978 v -2.55913 z m 0,4.47848 v 2.55913 h -0.63978 v -2.55913 z m 0,4.47847 v 2.55913 h -0.63978 v -2.55913 z m 0,4.47848 v 2.55913 h -0.63978 v -2.55913 z m 0,4.47848 v 2.55913 h -0.63978 v -2.55913 z m 0,4.47847 v 2.55913 h -0.63978 v -2.55913 z m 0,4.47848 v 2.55913 h -0.63978 v -2.55913 z m 0,4.47848 v 2.55913 h -0.63978 v -2.55913 z m 0,4.47847 v 2.55913 h -0.63978 v -2.55913 z m 0,4.47848 v 2.55913 h -0.63978 v -2.55913 z m 0,4.47848 v 2.55913 h -0.63978 v -2.55913 z m 0,4.47848 v 2.55913 h -0.63978 v -2.55913 z m 0,4.47847 v 2.55913 h -0.63978 v -2.55913 z m 0,4.47848 v 2.55913 h -0.63978 v -2.55913 z m 0,4.47848 v 2.55913 h -0.63978 v -2.55913 z m 0,4.47847 v 2.55913 h -0.63978 v -2.55913 z m 0,4.47848 v 2.55913 h -0.63978 v -2.55913 z m 0,4.47848 v 2.55913 h -0.63978 v -2.55913 z m 0,4.47847 v 2.55913 h -0.63978 v -2.55913 z m 0,4.47848 v 2.55913 h -0.63978 v -2.55913 z m 0,4.47848 v 2.55913 h -0.63978 v -2.55913 z m 0,4.47847 v 2.55913 h -0.63978 v -2.55913 z m 0,4.47848 v 2.55913 h -0.63978 v -2.55913 z m 0,4.47848 v 2.55913 h -0.63978 v -2.55913 z m 0,4.47847 v 2.55913 h -0.63978 v -2.55913 z m 0,4.47848 v 2.55913 h -0.63978 v -2.55913 z m 0,4.47848 v 2.55913 h -0.63978 v -2.55913 z m 0,4.47847 v 2.55913 h -0.63978 v -2.55913 z m 0,4.47848 v 2.07929 h -1.11962 v -0.63978 h 0.79973 l -0.31989,0.31989 v -1.7594 z m -3.03896,2.07929 h -2.55913 v -0.63978 h 2.55913 z m -4.47848,0 h -2.55913 v -0.63978 h 2.55913 z m -4.47848,0 h -2.55913 v -0.63978 h 2.55913 z m -4.47847,0 h -2.55913 v -0.63978 h 2.55913 z m -4.47848,0 h -2.55913 v -0.63978 h 2.55913 z m -4.47848,0 h -2.55913 v -0.63978 h 2.55913 z m -4.47848,0 h -2.55912 v -0.63978 h 2.55912 z m -4.47847,0 h -2.55913 v -0.63978 h 2.55913 z m -4.47848,0 h -2.55913 v -0.63978 h 2.55913 z m -4.47848,0 h -2.55913 v -0.63978 h 2.55913 z m -4.47847,0 h -2.55913 v -0.63978 h 2.55913 z m -4.47848,0 h -2.55913 v -0.63978 h 2.55913 z m -4.47848,0 h -2.55913 v -0.63978 h 2.55913 z m -4.47847,0 H 502.789 v -0.63978 h 2.55913 z m -4.47848,0 h -2.55913 v -0.63978 h 2.55913 z m -4.47848,0 h -2.55913 v -0.63978 h 2.55913 z m -4.47847,0 h -2.55913 v -0.63978 h 2.55913 z m -4.47848,0 h -2.55913 v -0.63978 h 2.55913 z m -4.47848,0 h -2.55913 v -0.63978 h 2.55913 z m -4.47847,0 h -2.55913 v -0.63978 h 2.55913 z m -4.47848,0 h -2.55913 v -0.63978 h 2.55913 z m -4.47848,0 h -2.55913 v -0.63978 h 2.55913 z m -4.47847,0 h -2.55913 v -0.63978 h 2.55913 z m -4.47848,0 h -2.55913 v -0.63978 h 2.55913 z m -4.47848,0 h -2.55913 v -0.63978 h 2.55913 z m -4.47848,0 h -2.55912 v -0.63978 h 2.55912 z m -4.47847,0 h -2.55913 v -0.63978 h 2.55913 z m -4.47848,0 h -2.55913 v -0.63978 h 2.55913 z m -4.47848,0 h -2.55913 v -0.63978 h 2.55913 z m -4.47847,0 h -2.55913 v -0.63978 h 2.55913 z m -4.47848,0 h -2.55913 v -0.63978 h 2.55913 z m -4.47848,0 h -2.55913 v -0.63978 h 2.55913 z m -4.47847,0 h -2.55913 v -0.63978 h 2.55913 z m -4.47848,0 h -2.55913 v -0.63978 h 2.55913 z m -4.47848,0 h -2.55913 v -0.63978 h 2.55913 z m -4.47847,0 h -2.55913 v -0.63978 h 2.55913 z m -4.47848,0 h -2.55913 v -0.63978 h 2.55913 z m -4.47848,0 h -2.55913 v -0.63978 h 2.55913 z m -4.47847,0 h -2.55913 v -0.63978 h 2.55913 z m -4.47848,0 h -2.55913 v -0.63978 h 2.55913 z m -4.47848,0 h -2.55913 v -0.63978 h 2.55913 z m -4.47847,0 h -2.55913 v -0.63978 h 2.55913 z m -4.47848,0 h -2.55913 v -0.63978 h 2.55913 z m -4.47848,0 h -2.55913 v -0.63978 h 2.55913 z m -4.47847,0 h -2.55913 v -0.63978 h 2.55913 z m -4.47848,0 h -2.55913 v -0.63978 h 2.55913 z m -4.47848,0 h -2.55913 v -0.63978 h 2.55913 z m -4.47848,0 h -2.55913 v -0.63978 h 2.55913 z m -4.47847,0 h -2.55913 v -0.63978 h 2.55913 z m -4.47848,0 h -2.55913 v -0.63978 h 2.55913 z m -4.47848,0 h -2.55913 v -0.63978 h 2.55913 z m -4.47847,0 h -2.55913 v -0.63978 h 2.55913 z m -4.47848,0 h -2.55913 v -0.63978 h 2.55913 z m -4.47848,0 h -2.55913 v -0.63978 h 2.55913 z m -4.47847,0 h -2.55913 v -0.63978 h 2.55913 z m -4.47848,0 h -2.55913 v -0.63978 h 2.55913 z m -4.47848,0 h -2.55913 v -0.63978 h 2.55913 z m -4.47847,0 h -2.55913 v -0.63978 h 2.55913 z m -4.47848,0 h -2.55913 v -0.63978 h 2.55913 z m -4.47848,0 h -2.55913 v -0.63978 h 2.55913 z m -4.47847,0 h -2.55913 v -0.63978 h 2.55913 z m -4.47848,0 h -2.55913 v -0.63978 h 2.55913 z m -4.47848,0 h -2.55913 v -0.63978 h 2.55913 z m -4.47847,0 h -2.55913 v -0.63978 h 2.55913 z m -4.47848,0 h -2.55913 v -0.63978 h 2.55913 z m -4.47848,0 h -2.55913 v -0.63978 h 2.55913 z m -4.47848,0 h -2.55912 v -0.63978 h 2.55912 z m -4.47847,0 h -2.55913 v -0.63978 h 2.55913 z m -4.47848,0 h -2.55913 v -0.63978 h 2.55913 z m -4.47848,0 h -2.55913 v -0.63978 h 2.55913 z m -4.47847,0 h -2.55913 v -0.63978 h 2.55913 z m -4.47848,0 h -2.55913 v -0.63978 h 2.55913 z m -4.47848,0 h -2.55913 v -0.63978 h 2.55913 z m -4.47847,0 h -2.55913 v -0.63978 h 2.55913 z m -4.47848,0 h -2.55913 v -0.63978 h 2.55913 z m -4.47848,0 h -2.55913 v -0.63978 h 2.55913 z m -4.47847,0 h -2.55913 v -0.63978 h 2.55913 z m -4.47848,0 h -2.55913 v -0.63978 h 2.55913 z m -4.47848,0 H 211.688 v -0.63978 h 2.55913 z m -4.47847,0 h -2.55913 v -0.63978 h 2.55913 z m -4.47848,0 h -2.55913 v -0.63978 h 2.55913 z m -4.47848,0 h -2.55913 v -0.63978 h 2.55913 z m -4.47847,0 h -2.55913 v -0.63978 h 2.55913 z m -4.47848,0 h -2.55913 v -0.63978 h 2.55913 z m -4.47848,0 h -2.55913 v -0.63978 h 2.55913 z m -4.47848,0 h -2.55912 v -0.63978 h 2.55912 z m -4.47847,0 h -2.55913 v -0.63978 h 2.55913 z m -4.47848,0 h -2.55913 v -0.63978 h 2.55913 z m -4.47848,0 h -2.55913 v -0.63978 h 2.55913 z m -4.47847,0 h -2.55913 v -0.63978 h 2.55913 z m -4.47848,0 h -2.55913 v -0.63978 h 2.55913 z m -4.47848,0 h -2.55913 v -0.63978 h 2.55913 z m -4.47847,0 h -2.55913 v -0.63978 h 2.55913 z m -4.47848,0 h -2.55913 v -0.63978 h 2.55913 z m -4.47848,0 h -2.55913 v -0.63978 h 2.55913 z m -4.47847,0 h -2.55913 v -0.63978 h 2.55913 z m -4.47848,0 h -2.55913 v -0.63978 h 2.55913 z m -4.47848,0 h -2.55913 v -0.63978 h 2.55913 z m -4.47847,0 h -2.55913 v -0.63978 h 2.55913 z m -4.47848,0 h -2.55913 v -0.63978 h 2.55913 z m -4.47848,0 h -2.55913 v -0.63978 h 2.55913 z m -4.47847,0 h -2.55913 v -0.63978 h 2.55913 z m -4.47848,0 h -2.55913 v -0.63978 h 2.55913 z m -4.47848,0 h -2.559128 v -0.63978 h 2.559128 z m -4.478475,0 h -2.55913 v -0.63978 h 2.55913 z m -4.478477,0 h -2.559129 v -0.63978 h 2.559129 z m -4.478477,0 h -2.559129 v -0.63978 h 2.559129 z m -4.478476,0 h -2.55913 v -0.63978 h 2.55913 z m -4.478477,0 h -2.55913 v -0.63978 h 2.55913 z m -4.478477,0 h -2.55913 v -0.63978 h 2.55913 z m -4.478477,0 h -2.55913 v -0.63978 h 2.55913 z m -4.478477,0 h -2.559129 v -0.63978 h 2.559129 z m -4.478477,0 h -2.559129 v -0.63978 h 2.559129 z m -4.478476,0 h -2.55913 v -0.63978 h 2.55913 z m -4.478477,0 h -2.55913 v -0.63978 h 2.55913 z m -4.478477,0 h -2.55913 v -0.63978 h 2.55913 z m -4.478477,0 h -2.559129 v -0.63978 h 2.559129 z m -4.478477,0 h -2.559129 v -0.63978 h 2.559129 z m -4.478477,0 H 32.54893 v -0.63978 h 2.559129 z m -4.478476,0 h -2.55913 v -0.63978 h 2.55913 z m -4.478477,0 h -2.55913 v -0.63978 h 2.55913 z m -4.478477,0 h -2.55913 v -0.63978 h 2.55913 z m -4.478477,0 h -2.559129 v -0.63978 h 2.559129 z m -4.478477,0 h -2.559129 v -0.63978 h 2.559129 z m -4.4784765,0 H 5.6780688 v -0.63978 h 2.5591297 z m -4.4784769,0 H 2.4791568 v -0.63978 h 1.2795648 z"
         clip-path="url(#clipEmfPath1)"
         style="fill:#000000;fill-opacity:1;fill-rule:nonzero;stroke:#000000;stroke-width:0.0399864px;stroke-linecap:butt;stroke-linejoin:round;stroke-miterlimit:4;stroke-dasharray:none;stroke-opacity:1"
         inkscape:connector-curvature="0" />
      <path
         id="path823"
         d="M 2.1592656,699.68203 V 697.1229 H 2.799048 v 2.55913 z m 0,-4.47847 v -2.55913 H 2.799048 v 2.55913 z m 0,-4.47848 v -2.55913 H 2.799048 v 2.55913 z m 0,-4.47848 v -2.55913 H 2.799048 v 2.55913 z m 0,-4.47848 V 679.209 H 2.799048 v 2.55912 z m 0,-4.47847 v -2.55913 H 2.799048 v 2.55913 z m 0,-4.47848 v -2.55913 H 2.799048 v 2.55913 z m 0,-4.47848 v -2.55913 H 2.799048 v 2.55913 z m 0,-4.47847 v -2.55913 H 2.799048 v 2.55913 z m 0,-4.47848 v -2.55913 H 2.799048 v 2.55913 z m 0,-4.47848 v -2.55913 H 2.799048 v 2.55913 z m 0,-4.47847 v -2.55913 H 2.799048 v 2.55913 z m 0,-4.47848 v -2.55913 H 2.799048 v 2.55913 z m 0,-4.47848 V 638.9027 H 2.799048 v 2.55913 z m 0,-4.47847 v -2.55913 H 2.799048 v 2.55913 z m 0,-4.47848 v -2.55913 H 2.799048 v 2.55913 z m 0,-4.47848 v -2.55913 H 2.799048 v 2.55913 z m 0,-4.47847 V 620.9888 H 2.799048 v 2.55913 z m 0,-4.47848 v -2.55913 H 2.799048 v 2.55913 z m 0,-4.47848 v -2.55913 H 2.799048 v 2.55913 z m 0,-4.47847 v -2.55913 H 2.799048 v 2.55913 z m 0,-4.47848 v -2.55913 H 2.799048 v 2.55913 z m 0,-4.47848 v -2.55913 H 2.799048 v 2.55913 z m 0,-4.47847 v -2.55913 H 2.799048 v 2.55913 z m 0,-4.47848 v -2.55913 H 2.799048 v 2.55913 z m 0,-4.47848 v -2.55913 H 2.799048 v 2.55913 z m 0,-4.47848 v -2.55912 H 2.799048 v 2.55912 z m 0,-4.47847 v -2.55913 H 2.799048 v 2.55913 z m 0,-4.47848 v -2.55913 H 2.799048 v 2.55913 z m 0,-4.47848 v -2.55913 H 2.799048 v 2.55913 z m 0,-4.47847 V 562.7686 H 2.799048 v 2.55913 z m 0,-4.47848 v -2.55913 H 2.799048 v 2.55913 z m 0,-4.47848 v -2.55913 H 2.799048 v 2.55913 z m 0,-4.47847 v -2.55913 H 2.799048 v 2.55913 z m 0,-4.47848 v -2.55913 H 2.799048 v 2.55913 z m 0,-4.47848 v -2.55913 H 2.799048 v 2.55913 z m 0,-4.47847 v -2.55913 H 2.799048 v 2.55913 z m 0,-4.47848 v -2.55913 H 2.799048 v 2.55913 z m 0,-4.47848 v -2.55913 H 2.799048 v 2.55913 z m 0,-4.47847 v -2.55913 H 2.799048 v 2.55913 z m 0,-4.47848 v -2.55913 H 2.799048 v 2.55913 z m 0,-4.47848 v -2.55913 H 2.799048 v 2.55913 z m 0,-4.47847 v -2.55913 H 2.799048 v 2.55913 z m 0,-4.47848 V 504.5484 H 2.799048 v 2.55913 z m 0,-4.47848 v -2.55913 H 2.799048 v 2.55913 z m 0,-4.47848 v -2.55912 H 2.799048 v 2.55912 z m 0,-4.47847 v -2.55913 H 2.799048 v 2.55913 z m 0,-4.47848 v -2.55913 H 2.799048 v 2.55913 z m 0,-4.47848 v -2.55913 H 2.799048 v 2.55913 z m 0,-4.47847 v -2.55913 H 2.799048 v 2.55913 z m 0,-4.47848 v -2.55913 H 2.799048 v 2.55913 z m 0,-4.47848 v -2.55913 H 2.799048 v 2.55913 z m 0,-4.47847 v -2.55913 H 2.799048 v 2.55913 z m 0,-4.47848 v -2.55913 H 2.799048 v 2.55913 z m 0,-4.47848 v -2.55913 H 2.799048 v 2.55913 z m 0,-4.47847 v -2.55913 H 2.799048 v 2.55913 z m 0,-4.47848 V 446.3282 H 2.799048 v 2.55913 z m 0,-4.47848 v -2.55913 H 2.799048 v 2.55913 z m 0,-4.47847 v -2.55913 H 2.799048 v 2.55913 z m 0,-4.47848 v -2.55913 H 2.799048 v 2.55913 z m 0,-4.47848 v -2.55913 H 2.799048 v 2.55913 z m 0,-4.47847 v -2.55913 H 2.799048 v 2.55913 z m 0,-4.47848 v -2.55913 H 2.799048 v 2.55913 z m 0,-4.47848 v -2.55913 H 2.799048 v 2.55913 z m 0,-4.47848 v -2.55912 H 2.799048 v 2.55912 z m 0,-4.47847 v -2.55913 H 2.799048 v 2.55913 z m 0,-4.47848 v -2.55913 H 2.799048 v 2.55913 z m 0,-4.47848 v -2.55913 H 2.799048 v 2.55913 z m 0,-4.47847 v -2.55913 H 2.799048 v 2.55913 z m 0,-4.47848 V 388.108 H 2.799048 v 2.55913 z m 0,-4.47848 v -2.55913 H 2.799048 v 2.55913 z m 0,-4.47847 v -2.55913 H 2.799048 v 2.55913 z m 0,-4.47848 v -2.55913 H 2.799048 v 2.55913 z m 0,-4.47848 v -2.55913 H 2.799048 v 2.55913 z m 0,-4.47847 v -2.55913 H 2.799048 v 2.55913 z m 0,-4.47848 v -2.55913 H 2.799048 v 2.55913 z m 0,-4.47848 v -2.55913 H 2.799048 v 2.55913 z m 0,-4.47847 v -1.91935 h 1.2795648 v 0.63978 H 2.4791568 l 0.3198912,-0.31989 v 1.59946 z m 3.198912,-1.91935 h 2.5591297 v 0.63978 H 5.3581776 Z m 4.4784769,0 h 2.5591295 v 0.63978 H 9.8366545 Z m 4.4784765,0 h 2.55913 v 0.63978 h -2.55913 z m 4.478477,0 h 2.55913 v 0.63978 h -2.55913 z m 4.478477,0 h 2.55913 v 0.63978 h -2.55913 z m 4.478477,0 h 2.559129 v 0.63978 h -2.559129 z m 4.478477,0 h 2.559129 v 0.63978 h -2.559129 z m 4.478476,0 h 2.55913 v 0.63978 h -2.55913 z m 4.478477,0 h 2.55913 v 0.63978 h -2.55913 z m 4.478477,0 h 2.55913 v 0.63978 h -2.55913 z m 4.478477,0 h 2.55913 v 0.63978 h -2.55913 z m 4.478477,0 h 2.559129 v 0.63978 h -2.559129 z m 4.478477,0 h 2.559129 v 0.63978 H 59.0999 Z m 4.478476,0 h 2.55913 v 0.63978 h -2.55913 z m 4.478477,0 h 2.55913 v 0.63978 h -2.55913 z m 4.478477,0 h 2.55913 v 0.63978 h -2.55913 z m 4.478477,0 h 2.55913 v 0.63978 h -2.55913 z m 4.478477,0 h 2.559129 v 0.63978 h -2.559129 z m 4.478477,0 h 2.559129 v 0.63978 h -2.559129 z m 4.478476,0 h 2.55913 v 0.63978 h -2.55913 z m 4.478477,0 h 2.55913 v 0.63978 h -2.55913 z m 4.478477,0 h 2.559129 v 0.63978 h -2.559129 z m 4.478479,0 h 2.55913 v 0.63978 h -2.55913 z m 4.47847,0 h 2.55913 v 0.63978 h -2.55913 z m 4.47848,0 h 2.55913 v 0.63978 h -2.55913 z m 4.47848,0 h 2.55913 v 0.63978 h -2.55913 z m 4.47848,0 h 2.55912 v 0.63978 h -2.55912 z m 4.47847,0 h 2.55913 v 0.63978 h -2.55913 z m 4.47848,0 h 2.55913 v 0.63978 h -2.55913 z m 4.47848,0 h 2.55913 v 0.63978 h -2.55913 z m 4.47847,0 h 2.55913 v 0.63978 h -2.55913 z m 4.47848,0 h 2.55913 v 0.63978 h -2.55913 z m 4.47848,0 h 2.55913 v 0.63978 h -2.55913 z m 4.47847,0 h 2.55913 v 0.63978 h -2.55913 z m 4.47848,0 h 2.55913 v 0.63978 h -2.55913 z m 4.47848,0 h 2.55913 v 0.63978 h -2.55913 z m 4.47847,0 h 2.55913 v 0.63978 h -2.55913 z m 4.47848,0 h 2.55913 v 0.63978 h -2.55913 z m 4.47848,0 h 2.55913 v 0.63978 h -2.55913 z m 4.47847,0 h 2.55913 v 0.63978 h -2.55913 z m 4.47848,0 h 2.55913 v 0.63978 h -2.55913 z m 4.47848,0 h 2.55913 v 0.63978 h -2.55913 z m 4.47847,0 h 2.55913 v 0.63978 h -2.55913 z m 4.47848,0 h 2.55913 v 0.63978 h -2.55913 z m 4.47848,0 h 2.55913 v 0.63978 h -2.55913 z m 4.47848,0 h 2.55912 v 0.63978 h -2.55912 z m 4.47847,0 h 2.55913 v 0.63978 h -2.55913 z m 4.47848,0 h 2.55913 v 0.63978 h -2.55913 z m 4.47848,0 h 2.55913 v 0.63978 h -2.55913 z m 4.47847,0 h 2.55913 v 0.63978 h -2.55913 z m 4.47848,0 h 2.55913 v 0.63978 h -2.55913 z m 4.47848,0 h 2.55913 v 0.63978 h -2.55913 z m 4.47847,0 h 2.55913 v 0.63978 h -2.55913 z m 4.47848,0 h 2.55913 v 0.63978 h -2.55913 z m 4.47848,0 h 2.55913 v 0.63978 h -2.55913 z m 4.47847,0 h 2.55913 v 0.63978 h -2.55913 z m 4.47848,0 h 2.55913 v 0.63978 h -2.55913 z m 4.47848,0 h 2.55913 v 0.63978 h -2.55913 z m 4.47847,0 h 2.55913 v 0.63978 h -2.55913 z m 4.47848,0 h 2.55913 v 0.63978 h -2.55913 z m 4.47848,0 h 2.55913 v 0.63978 h -2.55913 z m 4.47847,0 h 2.55913 v 0.63978 h -2.55913 z m 4.47848,0 h 2.55913 v 0.63978 h -2.55913 z m 4.47848,0 h 2.55913 v 0.63978 h -2.55913 z m 4.47847,0 h 2.55913 v 0.63978 h -2.55913 z m 4.47848,0 h 2.55913 v 0.63978 h -2.55913 z m 4.47848,0 h 2.55913 v 0.63978 h -2.55913 z m 4.47848,0 h 2.55913 v 0.63978 h -2.55913 z m 4.47847,0 h 2.55913 v 0.63978 h -2.55913 z m 4.47848,0 h 2.55913 v 0.63978 h -2.55913 z m 4.47848,0 h 2.55913 v 0.63978 h -2.55913 z m 4.47847,0 h 2.55913 v 0.63978 h -2.55913 z m 4.47848,0 h 2.55913 v 0.63978 h -2.55913 z m 4.47848,0 h 2.55913 v 0.63978 h -2.55913 z m 4.47847,0 h 2.55913 v 0.63978 h -2.55913 z m 4.47848,0 h 2.55913 v 0.63978 h -2.55913 z m 4.47848,0 h 2.55913 v 0.63978 h -2.55913 z m 4.47847,0 h 2.55913 v 0.63978 h -2.55913 z m 4.47848,0 h 2.55913 v 0.63978 h -2.55913 z m 4.47848,0 h 2.55913 v 0.63978 h -2.55913 z m 4.47847,0 h 2.55913 v 0.63978 h -2.55913 z m 4.47848,0 h 2.55913 v 0.63978 h -2.55913 z m 4.47848,0 h 2.55913 v 0.63978 h -2.55913 z m 4.47847,0 h 2.55913 v 0.63978 h -2.55913 z m 4.47848,0 h 2.55913 v 0.63978 h -2.55913 z m 4.47848,0 h 2.55913 v 0.63978 h -2.55913 z m 4.47848,0 h 2.55912 v 0.63978 h -2.55912 z m 4.47847,0 h 2.55913 v 0.63978 h -2.55913 z m 4.47848,0 h 2.55913 v 0.63978 h -2.55913 z m 4.47848,0 h 2.55913 v 0.63978 h -2.55913 z m 4.47847,0 h 2.55913 v 0.63978 h -2.55913 z m 4.47848,0 h 2.55913 v 0.63978 h -2.55913 z m 4.47848,0 h 2.55913 v 0.63978 h -2.55913 z m 4.47847,0 h 2.55913 v 0.63978 h -2.55913 z m 4.47848,0 h 2.55913 v 0.63978 H 426.335 Z m 4.47848,0 h 2.55913 v 0.63978 h -2.55913 z m 4.47847,0 h 2.55913 v 0.63978 h -2.55913 z m 4.47848,0 h 2.55913 v 0.63978 h -2.55913 z m 4.47848,0 h 2.55913 v 0.63978 h -2.55913 z m 4.47847,0 h 2.55913 v 0.63978 h -2.55913 z m 4.47848,0 h 2.55913 v 0.63978 h -2.55913 z m 4.47848,0 h 2.55913 v 0.63978 h -2.55913 z m 4.47847,0 h 2.55913 v 0.63978 h -2.55913 z m 4.47848,0 h 2.55913 v 0.63978 h -2.55913 z m 4.47848,0 h 2.55913 v 0.63978 h -2.55913 z m 4.47848,0 h 2.55912 v 0.63978 h -2.55912 z m 4.47847,0 h 2.55913 v 0.63978 h -2.55913 z m 4.47848,0 h 2.55913 v 0.63978 h -2.55913 z m 4.47848,0 h 2.55913 v 0.63978 h -2.55913 z m 4.47847,0 h 2.55913 v 0.63978 h -2.55913 z m 4.47848,0 h 2.55913 v 0.63978 h -2.55913 z m 4.47848,0 h 2.55913 v 0.63978 h -2.55913 z m 4.47847,0 h 2.55913 v 0.63978 h -2.55913 z m 4.47848,0 h 2.55913 v 0.63978 h -2.55913 z m 4.47848,0 h 2.55913 v 0.63978 h -2.55913 z m 4.47847,0 h 2.55913 v 0.63978 h -2.55913 z m 4.47848,0 h 2.55913 v 0.63978 h -2.55913 z m 4.47848,0 h 2.55913 v 0.63978 h -2.55913 z m 4.47847,0 h 2.55913 v 0.63978 h -2.55913 z m 4.47848,0 h 2.55913 v 0.63978 h -2.55913 z m 4.47848,0 h 2.55913 v 0.63978 h -2.55913 z m 4.47847,0 h 2.55913 v 0.63978 h -2.55913 z m 4.47848,0 h 2.55913 v 0.63978 h -2.55913 z m 4.47848,0 h 2.55913 v 0.63978 h -2.55913 z m 4.47847,0 h 2.55913 v 0.63978 h -2.55913 z m 4.47848,0 h 1.43951 v 1.7594 h -0.63978 v -1.43951 l 0.31989,0.31989 h -1.11962 z m 1.43951,3.67875 v 2.55913 h -0.63978 v -2.55913 z m 0,4.47847 v 2.55913 h -0.63978 v -2.55913 z m 0,4.47848 v 2.55913 h -0.63978 v -2.55913 z m 0,4.47848 v 2.55913 h -0.63978 v -2.55913 z m 0,4.47848 v 2.55912 h -0.63978 v -2.55912 z m 0,4.47847 v 2.55913 h -0.63978 v -2.55913 z m 0,4.47848 v 2.55913 h -0.63978 v -2.55913 z m 0,4.47848 v 2.55913 h -0.63978 v -2.55913 z m 0,4.47847 v 2.55913 h -0.63978 v -2.55913 z m 0,4.47848 v 2.55913 h -0.63978 v -2.55913 z m 0,4.47848 v 2.55913 h -0.63978 v -2.55913 z m 0,4.47847 v 2.55913 h -0.63978 v -2.55913 z m 0,4.47848 v 2.55913 h -0.63978 v -2.55913 z m 0,4.47848 v 2.55913 h -0.63978 v -2.55913 z m 0,4.47847 v 2.55913 h -0.63978 v -2.55913 z m 0,4.47848 v 2.55913 h -0.63978 v -2.55913 z m 0,4.47848 v 2.55913 h -0.63978 v -2.55913 z m 0,4.47847 v 2.55913 h -0.63978 v -2.55913 z m 0,4.47848 v 2.55913 h -0.63978 v -2.55913 z m 0,4.47848 v 2.55913 h -0.63978 v -2.55913 z m 0,4.47847 v 2.55913 h -0.63978 v -2.55913 z m 0,4.47848 v 2.55913 h -0.63978 v -2.55913 z m 0,4.47848 v 2.55913 h -0.63978 v -2.55913 z m 0,4.47847 v 2.55913 h -0.63978 v -2.55913 z m 0,4.47848 v 2.55913 h -0.63978 v -2.55913 z m 0,4.47848 v 2.55913 h -0.63978 v -2.55913 z m 0,4.47848 v 2.55913 h -0.63978 v -2.55913 z m 0,4.47847 v 2.55913 h -0.63978 v -2.55913 z m 0,4.47848 v 2.55913 h -0.63978 v -2.55913 z m 0,4.47848 v 2.55913 h -0.63978 v -2.55913 z m 0,4.47847 v 2.55913 h -0.63978 v -2.55913 z m 0,4.47848 v 2.55913 h -0.63978 v -2.55913 z m 0,4.47848 v 2.55913 h -0.63978 v -2.55913 z m 0,4.47847 v 2.55913 h -0.63978 v -2.55913 z m 0,4.47848 v 2.55913 h -0.63978 v -2.55913 z m 0,4.47848 v 2.55913 h -0.63978 v -2.55913 z m 0,4.47847 v 2.55913 h -0.63978 v -2.55913 z m 0,4.47848 v 2.55913 h -0.63978 v -2.55913 z m 0,4.47848 v 2.55913 h -0.63978 v -2.55913 z m 0,4.47847 v 2.55913 h -0.63978 v -2.55913 z m 0,4.47848 v 2.55913 h -0.63978 v -2.55913 z m 0,4.47848 v 2.55913 h -0.63978 v -2.55913 z m 0,4.47847 v 2.55913 h -0.63978 v -2.55913 z m 0,4.47848 v 2.55913 h -0.63978 v -2.55913 z m 0,4.47848 v 2.55913 h -0.63978 v -2.55913 z m 0,4.47848 v 2.55912 h -0.63978 v -2.55912 z m 0,4.47847 v 2.55913 h -0.63978 v -2.55913 z m 0,4.47848 v 2.55913 h -0.63978 v -2.55913 z m 0,4.47848 v 2.55913 h -0.63978 v -2.55913 z m 0,4.47847 v 2.55913 h -0.63978 v -2.55913 z m 0,4.47848 v 2.55913 h -0.63978 v -2.55913 z m 0,4.47848 v 2.55913 h -0.63978 v -2.55913 z m 0,4.47847 v 2.55913 h -0.63978 v -2.55913 z m 0,4.47848 v 2.55913 h -0.63978 v -2.55913 z m 0,4.47848 v 2.55913 h -0.63978 v -2.55913 z m 0,4.47847 v 2.55913 h -0.63978 v -2.55913 z m 0,4.47848 v 2.55913 h -0.63978 v -2.55913 z m 0,4.47848 v 2.55913 h -0.63978 v -2.55913 z m 0,4.47847 v 2.55913 h -0.63978 v -2.55913 z m 0,4.47848 v 2.55913 h -0.63978 v -2.55913 z m 0,4.47848 v 2.55913 h -0.63978 v -2.55913 z m 0,4.47847 v 2.55913 h -0.63978 v -2.55913 z m 0,4.47848 v 2.55913 h -0.63978 v -2.55913 z m 0,4.47848 v 2.55913 h -0.63978 v -2.55913 z m 0,4.47848 v 2.55912 h -0.63978 v -2.55912 z m 0,4.47847 v 2.55913 h -0.63978 v -2.55913 z m 0,4.47848 v 2.55913 h -0.63978 v -2.55913 z m 0,4.47848 v 2.55913 h -0.63978 v -2.55913 z m 0,4.47847 v 2.55913 h -0.63978 v -2.55913 z m 0,4.47848 v 2.55913 h -0.63978 v -2.55913 z m 0,4.47848 v 2.55913 h -0.63978 v -2.55913 z m 0,4.47847 v 2.55913 h -0.63978 v -2.55913 z m 0,4.47848 v 2.55913 h -0.63978 v -2.55913 z m 0,4.47848 v 2.55913 h -0.63978 v -2.55913 z m 0,4.47847 v 2.55913 h -0.63978 V 688.006 Z m 0,4.47848 v 2.55913 h -0.63978 v -2.55913 z m 0,4.47848 v 2.55913 h -0.63978 v -2.55913 z m -2.07929,3.03896 h -2.55913 v -0.63978 h 2.55913 z m -4.47848,0 h -2.55913 v -0.63978 h 2.55913 z m -4.47847,0 h -2.55913 v -0.63978 h 2.55913 z m -4.47848,0 h -2.55913 v -0.63978 h 2.55913 z m -4.47848,0 h -2.55913 v -0.63978 h 2.55913 z m -4.47847,0 h -2.55913 v -0.63978 h 2.55913 z m -4.47848,0 h -2.55913 v -0.63978 h 2.55913 z m -4.47848,0 h -2.55913 v -0.63978 h 2.55913 z m -4.47848,0 h -2.55912 v -0.63978 h 2.55912 z m -4.47847,0 h -2.55913 v -0.63978 h 2.55913 z m -4.47848,0 h -2.55913 v -0.63978 h 2.55913 z m -4.47848,0 h -2.55913 v -0.63978 h 2.55913 z m -4.47847,0 h -2.55913 v -0.63978 h 2.55913 z m -4.47848,0 h -2.55913 v -0.63978 h 2.55913 z m -4.47848,0 h -2.55913 v -0.63978 h 2.55913 z m -4.47847,0 h -2.55913 v -0.63978 h 2.55913 z m -4.47848,0 h -2.55913 v -0.63978 h 2.55913 z m -4.47848,0 h -2.55913 v -0.63978 h 2.55913 z m -4.47847,0 h -2.55913 v -0.63978 h 2.55913 z m -4.47848,0 h -2.55913 v -0.63978 h 2.55913 z m -4.47848,0 h -2.55913 v -0.63978 h 2.55913 z m -4.47847,0 h -2.55913 v -0.63978 h 2.55913 z m -4.47848,0 h -2.55913 v -0.63978 h 2.55913 z m -4.47848,0 h -2.55913 v -0.63978 h 2.55913 z m -4.47847,0 h -2.55913 v -0.63978 h 2.55913 z m -4.47848,0 h -2.55913 v -0.63978 h 2.55913 z m -4.47848,0 h -2.55913 v -0.63978 h 2.55913 z m -4.47848,0 H 441.05 v -0.63978 h 2.55912 z m -4.47847,0 h -2.55913 v -0.63978 h 2.55913 z m -4.47848,0 h -2.55913 v -0.63978 h 2.55913 z m -4.47848,0 h -2.55913 v -0.63978 h 2.55913 z m -4.47847,0 h -2.55913 v -0.63978 h 2.55913 z m -4.47848,0 h -2.55913 v -0.63978 h 2.55913 z m -4.47848,0 h -2.55913 v -0.63978 h 2.55913 z m -4.47847,0 h -2.55913 v -0.63978 h 2.55913 z m -4.47848,0 h -2.55913 v -0.63978 h 2.55913 z m -4.47848,0 h -2.55913 v -0.63978 h 2.55913 z m -4.47847,0 h -2.55913 v -0.63978 h 2.55913 z m -4.47848,0 h -2.55913 v -0.63978 h 2.55913 z m -4.47848,0 h -2.55913 v -0.63978 h 2.55913 z m -4.47847,0 h -2.55913 v -0.63978 h 2.55913 z m -4.47848,0 h -2.55913 v -0.63978 h 2.55913 z m -4.47848,0 h -2.55913 v -0.63978 h 2.55913 z m -4.47847,0 h -2.55913 v -0.63978 h 2.55913 z m -4.47848,0 h -2.55913 v -0.63978 h 2.55913 z m -4.47848,0 h -2.55913 v -0.63978 h 2.55913 z m -4.47848,0 h -2.55912 v -0.63978 h 2.55912 z m -4.47847,0 h -2.55913 v -0.63978 h 2.55913 z m -4.47848,0 h -2.55913 v -0.63978 h 2.55913 z m -4.47848,0 h -2.55913 v -0.63978 h 2.55913 z m -4.47847,0 h -2.55913 v -0.63978 h 2.55913 z m -4.47848,0 h -2.55913 v -0.63978 h 2.55913 z m -4.47848,0 h -2.55913 v -0.63978 h 2.55913 z m -4.47847,0 h -2.55913 v -0.63978 h 2.55913 z m -4.47848,0 h -2.55913 v -0.63978 h 2.55913 z m -4.47848,0 h -2.55913 v -0.63978 h 2.55913 z m -4.47847,0 h -2.55913 v -0.63978 h 2.55913 z m -4.47848,0 h -2.55913 v -0.63978 h 2.55913 z m -4.47848,0 h -2.55913 v -0.63978 h 2.55913 z m -4.47847,0 h -2.55913 v -0.63978 h 2.55913 z m -4.47848,0 h -2.55913 v -0.63978 h 2.55913 z m -4.47848,0 h -2.55913 v -0.63978 h 2.55913 z m -4.47847,0 h -2.55913 v -0.63978 h 2.55913 z m -4.47848,0 h -2.55913 v -0.63978 h 2.55913 z m -4.47848,0 h -2.55913 v -0.63978 h 2.55913 z m -4.47847,0 h -2.55913 v -0.63978 h 2.55913 z m -4.47848,0 h -2.55913 v -0.63978 h 2.55913 z m -4.47848,0 h -2.55913 v -0.63978 h 2.55913 z m -4.47848,0 h -2.55912 v -0.63978 h 2.55912 z m -4.47847,0 h -2.55913 v -0.63978 h 2.55913 z m -4.47848,0 h -2.55913 v -0.63978 h 2.55913 z m -4.47848,0 h -2.55913 v -0.63978 h 2.55913 z m -4.47847,0 h -2.55913 v -0.63978 h 2.55913 z m -4.47848,0 h -2.55913 v -0.63978 h 2.55913 z m -4.47848,0 h -2.55913 v -0.63978 h 2.55913 z m -4.47847,0 h -2.55913 v -0.63978 h 2.55913 z m -4.47848,0 h -2.55913 v -0.63978 h 2.55913 z m -4.47848,0 h -2.55913 v -0.63978 h 2.55913 z m -4.47847,0 h -2.55913 v -0.63978 h 2.55913 z m -4.47848,0 h -2.55913 v -0.63978 h 2.55913 z m -4.47848,0 h -2.55913 v -0.63978 h 2.55913 z m -4.47847,0 h -2.55913 v -0.63978 h 2.55913 z m -4.47848,0 h -2.55913 v -0.63978 h 2.55913 z m -4.47848,0 h -2.55913 v -0.63978 h 2.55913 z m -4.47847,0 h -2.55913 v -0.63978 h 2.55913 z m -4.47848,0 h -2.55913 v -0.63978 h 2.55913 z m -4.47848,0 h -2.55913 v -0.63978 h 2.55913 z m -4.47848,0 h -2.55912 v -0.63978 h 2.55912 z m -4.47847,0 h -2.55913 v -0.63978 h 2.55913 z m -4.47848,0 h -2.55913 v -0.63978 h 2.55913 z m -4.47848,0 h -2.55913 v -0.63978 h 2.55913 z m -4.47847,0 h -2.55913 v -0.63978 h 2.55913 z m -4.47848,0 H 149.949 v -0.63978 h 2.55913 z m -4.47848,0 h -2.55913 v -0.63978 h 2.55913 z m -4.47847,0 h -2.55913 v -0.63978 h 2.55913 z m -4.47848,0 h -2.55913 v -0.63978 h 2.55913 z m -4.47848,0 h -2.55913 v -0.63978 h 2.55913 z m -4.47847,0 h -2.55913 v -0.63978 h 2.55913 z m -4.47848,0 h -2.55913 v -0.63978 h 2.55913 z m -4.47848,0 h -2.55913 v -0.63978 h 2.55913 z m -4.47847,0 h -2.55913 v -0.63978 h 2.55913 z m -4.47848,0 h -2.55913 v -0.63978 h 2.55913 z m -4.47848,0 h -2.55913 v -0.63978 h 2.55913 z m -4.47847,0 h -2.55913 v -0.63978 h 2.55913 z m -4.478481,0 h -2.55913 v -0.63978 h 2.55913 z m -4.478477,0 h -2.55913 v -0.63978 h 2.55913 z m -4.478477,0 h -2.55913 v -0.63978 h 2.55913 z m -4.478477,0 h -2.559129 v -0.63978 h 2.559129 z m -4.478477,0 h -2.559129 v -0.63978 h 2.559129 z m -4.478476,0 h -2.55913 v -0.63978 h 2.55913 z m -4.478477,0 h -2.55913 v -0.63978 h 2.55913 z m -4.478477,0 h -2.55913 v -0.63978 h 2.55913 z m -4.478477,0 h -2.55913 v -0.63978 h 2.55913 z m -4.478477,0 h -2.559129 v -0.63978 h 2.559129 z m -4.478477,0 h -2.559129 v -0.63978 h 2.559129 z m -4.478476,0 h -2.55913 v -0.63978 h 2.55913 z m -4.478477,0 h -2.55913 v -0.63978 h 2.55913 z m -4.478477,0 h -2.55913 v -0.63978 h 2.55913 z m -4.478477,0 h -2.55913 v -0.63978 h 2.55913 z m -4.478477,0 h -2.559129 v -0.63978 h 2.559129 z m -4.478477,0 H 24.55165 v -0.63978 h 2.559129 z m -4.478476,0 h -2.55913 v -0.63978 h 2.55913 z m -4.478477,0 h -2.55913 v -0.63978 h 2.55913 z m -4.478477,0 h -2.55913 v -0.63978 h 2.55913 z m -4.4784769,0 H 6.6377424 v -0.63978 h 2.5591297 z m -4.4784769,0 H 2.4791568 v -0.63978 h 2.2392384 z"
         clip-path="url(#clipEmfPath1)"
         style="fill:#000000;fill-opacity:1;fill-rule:nonzero;stroke:#000000;stroke-width:0.0399864px;stroke-linecap:butt;stroke-linejoin:round;stroke-miterlimit:4;stroke-dasharray:none;stroke-opacity:1"
         inkscape:connector-curvature="0" />
      <text
         id="text829"
         y="0"
         x="0"
         transform="translate(12.136031,21.956517)"
         style="font-style:normal;font-variant:normal;font-weight:400;font-size:16px;line-height:125%;font-family:'CMU Serif';text-align:start;letter-spacing:0px;word-spacing:0px;text-anchor:start;fill:#000000;fill-opacity:1;stroke:none"
         xml:space="preserve"><tspan
           id="tspan827"
           y="0"
           x="0"
           sodipodi:role="line"><tspan
             id="tspan825"
             style="font-style:normal;font-variant:normal;font-weight:400;font-size:16px;font-family:'CMU Serif';fill:#000000"
             dy="0"
             dx="0">Microcontroller</tspan></tspan></text>
      <text
         id="text835"
         y="0"
         x="0"
         transform="translate(12.136031,371.8155)"
         style="font-style:normal;font-variant:normal;font-weight:400;font-size:16px;line-height:125%;font-family:'CMU Serif';text-align:start;letter-spacing:0px;word-spacing:0px;text-anchor:start;fill:#000000;fill-opacity:1;stroke:none"
         xml:space="preserve"><tspan
           id="tspan833"
           y="0"
           x="0"
           sodipodi:role="line"><tspan
             id="tspan831"
             style="font-style:normal;font-variant:normal;font-weight:400;font-size:16px;font-family:'CMU Serif';fill:#000000"
             dy="0"
             dx="0">Ethernet </tspan></tspan></text>
      <text
         id="text841"
         y="0"
         x="0"
         transform="translate(12.136031,391.00897)"
         style="font-style:normal;font-variant:normal;font-weight:400;font-size:16px;line-height:125%;font-family:'CMU Serif';text-align:start;letter-spacing:0px;word-spacing:0px;text-anchor:start;fill:#000000;fill-opacity:1;stroke:none"
         xml:space="preserve"><tspan
           id="tspan839"
           y="0"
           x="0"
           sodipodi:role="line"><tspan
             id="tspan837"
             style="font-style:normal;font-variant:normal;font-weight:400;font-size:16px;font-family:'CMU Serif';fill:#000000"
             dy="0"
             dx="0">Controller</tspan></tspan></text>
      <path
         id="path843"
         d="M 17.034207,632.02504 H 554.45143 v 40.62619 H 17.034207 Z"
         style="fill:none;stroke:#000000;stroke-width:0.63978243px;stroke-linecap:butt;stroke-linejoin:miter;stroke-miterlimit:8;stroke-dasharray:none;stroke-opacity:1"
         inkscape:connector-curvature="0" />
      <text
         id="text849"
         y="0"
         x="0"
         transform="translate(268.28975,656.56279)"
         style="font-style:normal;font-variant:normal;font-weight:400;font-size:16px;line-height:125%;font-family:'CMU Serif';text-align:start;letter-spacing:0px;word-spacing:0px;text-anchor:start;fill:#000000;fill-opacity:1;stroke:none"
         xml:space="preserve"><tspan
           id="tspan847"
           y="0"
           x="0"
           sodipodi:role="line"><tspan
             id="tspan845"
             style="font-style:normal;font-variant:normal;font-weight:400;font-size:16px;font-family:'CMU Serif';fill:#000000"
             dy="0"
             dx="0">PHY</tspan></tspan></text>
      <path
         id="path851"
         d="m 252.95397,725.75317 h 65.57769 v 29.11009 h -65.57769 z"
         style="fill:none;stroke:#000000;stroke-width:0.63978243px;stroke-linecap:butt;stroke-linejoin:round;stroke-miterlimit:4;stroke-dasharray:none;stroke-opacity:1"
         inkscape:connector-curvature="0" />
      <text
         id="text857"
         y="0"
         x="0"
         transform="translate(262.60254,744.43353)"
         style="font-style:normal;font-variant:normal;font-weight:400;font-size:16px;line-height:125%;font-family:'CMU Serif';text-align:start;letter-spacing:0px;word-spacing:0px;text-anchor:start;fill:#000000;fill-opacity:1;stroke:none"
         xml:space="preserve"><tspan
           id="tspan855"
           y="0"
           x="0"
           sodipodi:role="line"><tspan
             id="tspan853"
             style="font-style:normal;font-variant:normal;font-weight:400;font-size:16px;font-family:'CMU Serif';fill:#000000"
             dy="0"
             dx="0">RJ45</tspan></tspan></text>
      <path
         id="path859"
         d="M 17.034207,568.0468 H 554.45143 v 40.46624 H 17.034207 Z"
         style="fill:none;stroke:#000000;stroke-width:0.63978243px;stroke-linecap:butt;stroke-linejoin:miter;stroke-miterlimit:8;stroke-dasharray:none;stroke-opacity:1"
         inkscape:connector-curvature="0" />
      <text
         id="text865"
         y="0"
         x="0"
         transform="translate(266.69029,592.50911)"
         style="font-style:normal;font-variant:normal;font-weight:400;font-size:16px;line-height:125%;font-family:'CMU Serif';text-align:start;letter-spacing:0px;word-spacing:0px;text-anchor:start;fill:#000000;fill-opacity:1;stroke:none"
         xml:space="preserve"><tspan
           id="tspan863"
           y="0"
           x="0"
           sodipodi:role="line"><tspan
             id="tspan861"
             style="font-style:normal;font-variant:normal;font-weight:400;font-size:16px;font-family:'CMU Serif';fill:#000000"
             dy="0"
             dx="0">MAC</tspan></tspan></text>
      <path
         id="path867"
         d="m 285.74282,484.5552 h 269.34839 v 59.9796 H 285.74282 Z"
         style="fill:none;stroke:#000000;stroke-width:0.63978243px;stroke-linecap:butt;stroke-linejoin:miter;stroke-miterlimit:8;stroke-dasharray:none;stroke-opacity:1"
         inkscape:connector-curvature="0" />
      <text
         id="text873"
         y="0"
         x="0"
         transform="translate(307.04073,509.17604)"
         style="font-style:normal;font-variant:normal;font-weight:400;font-size:16px;line-height:125%;font-family:'CMU Serif';text-align:start;letter-spacing:0px;word-spacing:0px;text-anchor:start;fill:#000000;fill-opacity:1;stroke:none"
         xml:space="preserve"><tspan
           id="tspan871"
           y="0"
           x="0"
           sodipodi:role="line"><tspan
             id="tspan869"
             style="font-style:normal;font-variant:normal;font-weight:400;font-size:16px;font-family:'CMU Serif';fill:#000000"
             dy="0"
             dx="0">SRAM </tspan></tspan></text>
      <text
         id="text879"
         y="0"
         x="0"
         transform="translate(359.66283,509.17604)"
         style="font-style:normal;font-variant:normal;font-weight:400;font-size:16px;line-height:125%;font-family:'CMU Serif';text-align:start;letter-spacing:0px;word-spacing:0px;text-anchor:start;fill:#000000;fill-opacity:1;stroke:none"
         xml:space="preserve"><tspan
           id="tspan877"
           y="0"
           x="0"
           sodipodi:role="line"><tspan
             id="tspan875"
             style="font-style:normal;font-variant:normal;font-weight:400;font-size:16px;font-family:'CMU Serif';fill:#000000"
             dy="0"
             dx="0">Transmit</tspan></tspan></text>
      <text
         id="text885"
         y="0"
         x="0"
         transform="translate(424.4408,509.17604)"
         style="font-style:normal;font-variant:normal;font-weight:400;font-size:16px;line-height:125%;font-family:'CMU Serif';text-align:start;letter-spacing:0px;word-spacing:0px;text-anchor:start;fill:#000000;fill-opacity:1;stroke:none"
         xml:space="preserve"><tspan
           id="tspan883"
           y="0"
           x="0"
           sodipodi:role="line"><tspan
             id="tspan881"
             style="font-style:normal;font-variant:normal;font-weight:400;font-size:16px;font-family:'CMU Serif';fill:#000000"
             dy="0"
             dx="0">/</tspan></tspan></text>
      <text
         id="text891"
         y="0"
         x="0"
         transform="translate(432.43808,509.17604)"
         style="font-style:normal;font-variant:normal;font-weight:400;font-size:16px;line-height:125%;font-family:'CMU Serif';text-align:start;letter-spacing:0px;word-spacing:0px;text-anchor:start;fill:#000000;fill-opacity:1;stroke:none"
         xml:space="preserve"><tspan
           id="tspan889"
           y="0"
           x="0"
           sodipodi:role="line"><tspan
             id="tspan887"
             style="font-style:normal;font-variant:normal;font-weight:400;font-size:16px;font-family:'CMU Serif';fill:#000000"
             dy="0"
             dx="0">Receive</tspan></tspan></text>
      <text
         id="text897"
         y="0"
         x="0"
         transform="translate(490.97817,509.17604)"
         style="font-style:normal;font-variant:normal;font-weight:400;font-size:16px;line-height:125%;font-family:'CMU Serif';text-align:start;letter-spacing:0px;word-spacing:0px;text-anchor:start;fill:#000000;fill-opacity:1;stroke:none"
         xml:space="preserve"><tspan
           id="tspan895"
           y="0"
           x="0"
           sodipodi:role="line"><tspan
             id="tspan893"
             style="font-style:normal;font-variant:normal;font-weight:400;font-size:16px;font-family:'CMU Serif';fill:#000000"
             dy="0"
             dx="0">Buffer </tspan></tspan></text>
      <text
         id="text903"
         y="0"
         x="0"
         transform="translate(389.09282,528.36952)"
         style="font-style:normal;font-variant:normal;font-weight:400;font-size:16px;line-height:125%;font-family:'CMU Serif';text-align:start;letter-spacing:0px;word-spacing:0px;text-anchor:start;fill:#000000;fill-opacity:1;stroke:none"
         xml:space="preserve"><tspan
           id="tspan901"
           y="0"
           x="0"
           sodipodi:role="line"><tspan
             id="tspan899"
             style="font-style:normal;font-variant:normal;font-weight:400;font-size:16px;font-family:'CMU Serif';fill:#000000"
             dy="0"
             dx="0">24 </tspan></tspan></text>
      <text
         id="text909"
         y="0"
         x="0"
         transform="translate(410.36559,528.36952)"
         style="font-style:normal;font-variant:normal;font-weight:400;font-size:16px;line-height:125%;font-family:'CMU Serif';text-align:start;letter-spacing:0px;word-spacing:0px;text-anchor:start;fill:#000000;fill-opacity:1;stroke:none"
         xml:space="preserve"><tspan
           id="tspan907"
           y="0"
           x="0"
           sodipodi:role="line"><tspan
             id="tspan905"
             style="font-style:normal;font-variant:normal;font-weight:400;font-size:16px;font-family:'CMU Serif';fill:#000000"
             dy="0"
             dx="0">kByte</tspan></tspan></text>
      <path
         id="path911"
         d="m 421.09678,561.36907 v -10.15654 h -1.31955 v 10.15654 z m -3.31887,-1.31955 2.6391,7.99728 2.67909,-7.99728 z m 5.31819,-7.51744 -2.67909,-7.99728 -2.6391,7.99728 z"
         style="fill:#000000;fill-opacity:1;fill-rule:nonzero;stroke:#000000;stroke-width:0.0399864px;stroke-linecap:butt;stroke-linejoin:round;stroke-miterlimit:4;stroke-dasharray:none;stroke-opacity:1"
         inkscape:connector-curvature="0" />
      <path
         id="path913"
         d="m 286.3826,268.62864 h 268.70861 v 42.22564 H 286.3826 Z"
         style="fill:none;stroke:#000000;stroke-width:0.63978243px;stroke-linecap:butt;stroke-linejoin:miter;stroke-miterlimit:8;stroke-dasharray:none;stroke-opacity:1"
         inkscape:connector-curvature="0" />
      <text
         id="text919"
         y="0"
         x="0"
         transform="translate(353.62738,294.01977)"
         style="font-style:normal;font-variant:normal;font-weight:400;font-size:16px;line-height:125%;font-family:'CMU Serif';text-align:start;letter-spacing:0px;word-spacing:0px;text-anchor:start;fill:#000000;fill-opacity:1;stroke:none"
         xml:space="preserve"><tspan
           id="tspan917"
           y="0"
           x="0"
           sodipodi:role="line"><tspan
             id="tspan915"
             style="font-style:normal;font-variant:normal;font-weight:400;font-size:16px;font-family:'CMU Serif';fill:#000000"
             dy="0"
             dx="0">Memory Controller</tspan></tspan></text>
      <path
         id="path921"
         d="m 286.42259,625.34731 v -10.15654 h -1.31956 v 10.15654 z m -3.31888,-1.31955 2.63911,7.99728 2.67909,-7.99728 z m 5.3182,-7.51744 -2.67909,-7.99728 -2.63911,7.99728 z"
         style="fill:#000000;fill-opacity:1;fill-rule:nonzero;stroke:#000000;stroke-width:0.0399864px;stroke-linecap:butt;stroke-linejoin:round;stroke-miterlimit:4;stroke-dasharray:none;stroke-opacity:1"
         inkscape:connector-curvature="0" />
      <path
         id="path923"
         d="m 13.99524,204.01061 h 541.09597 v 42.22564 H 13.99524 Z"
         style="fill:none;stroke:#000000;stroke-width:0.63978243px;stroke-linecap:butt;stroke-linejoin:miter;stroke-miterlimit:8;stroke-dasharray:none;stroke-opacity:1"
         inkscape:connector-curvature="0" />
      <text
         id="text929"
         y="0"
         x="0"
         transform="translate(228.97015,229.41799)"
         style="font-style:normal;font-variant:normal;font-weight:400;font-size:16px;line-height:125%;font-family:'CMU Serif';text-align:start;letter-spacing:0px;word-spacing:0px;text-anchor:start;fill:#000000;fill-opacity:1;stroke:none"
         xml:space="preserve"><tspan
           id="tspan927"
           y="0"
           x="0"
           sodipodi:role="line"><tspan
             id="tspan925"
             style="font-style:normal;font-variant:normal;font-weight:400;font-size:16px;font-family:'CMU Serif';fill:#000000"
             dy="0"
             dx="0">Ethernet Driver</tspan></tspan></text>
      <path
         id="path931"
         d="m 468.56064,374.67257 h 85.89079 v 87.3303 h -85.89079 z"
         style="fill:none;stroke:#000000;stroke-width:0.63978243px;stroke-linecap:butt;stroke-linejoin:miter;stroke-miterlimit:8;stroke-dasharray:none;stroke-opacity:1"
         inkscape:connector-curvature="0" />
      <text
         id="text937"
         y="0"
         x="0"
         transform="translate(483.03033,413.03937)"
         style="font-style:normal;font-variant:normal;font-weight:400;font-size:16px;line-height:125%;font-family:'CMU Serif';text-align:start;letter-spacing:0px;word-spacing:0px;text-anchor:start;fill:#000000;fill-opacity:1;stroke:none"
         xml:space="preserve"><tspan
           id="tspan935"
           y="0"
           x="0"
           sodipodi:role="line"><tspan
             id="tspan933"
             style="font-style:normal;font-variant:normal;font-weight:400;font-size:16px;font-family:'CMU Serif';fill:#000000"
             dy="0"
             dx="0">Security </tspan></tspan></text>
      <text
         id="text943"
         y="0"
         x="0"
         transform="translate(484.46984,432.23284)"
         style="font-style:normal;font-variant:normal;font-weight:400;font-size:16px;line-height:125%;font-family:'CMU Serif';text-align:start;letter-spacing:0px;word-spacing:0px;text-anchor:start;fill:#000000;fill-opacity:1;stroke:none"
         xml:space="preserve"><tspan
           id="tspan941"
           y="0"
           x="0"
           sodipodi:role="line"><tspan
             id="tspan939"
             style="font-style:normal;font-variant:normal;font-weight:400;font-size:16px;font-family:'CMU Serif';fill:#000000"
             dy="0"
             dx="0">Engines</tspan></tspan></text>
      <path
         id="path945"
         d="M 17.034207,503.90862 H 271.82755 V 544.5348 H 17.034207 Z"
         style="fill:none;stroke:#000000;stroke-width:0.63978243px;stroke-linecap:butt;stroke-linejoin:miter;stroke-miterlimit:8;stroke-dasharray:none;stroke-opacity:1"
         inkscape:connector-curvature="0" />
      <text
         id="text951"
         y="0"
         x="0"
         transform="translate(117.79804,528.45535)"
         style="font-style:normal;font-variant:normal;font-weight:400;font-size:16px;line-height:125%;font-family:'CMU Serif';text-align:start;letter-spacing:0px;word-spacing:0px;text-anchor:start;fill:#000000;fill-opacity:1;stroke:none"
         xml:space="preserve"><tspan
           id="tspan949"
           y="0"
           x="0"
           sodipodi:role="line"><tspan
             id="tspan947"
             style="font-style:normal;font-variant:normal;font-weight:400;font-size:16px;font-family:'CMU Serif';fill:#000000"
             dy="0"
             dx="0">Control</tspan></tspan></text>
      <path
         id="path953"
         d="m 145.03067,561.36907 v -10.15654 h -1.31955 v 10.15654 z m -3.31887,-1.31955 2.63911,7.99728 2.67908,-7.99728 z m 5.31819,-7.51744 -2.67908,-7.99728 -2.63911,7.99728 z"
         style="fill:#000000;fill-opacity:1;fill-rule:nonzero;stroke:#000000;stroke-width:0.0399864px;stroke-linecap:butt;stroke-linejoin:round;stroke-miterlimit:4;stroke-dasharray:none;stroke-opacity:1"
         inkscape:connector-curvature="0" />
      <path
         id="path955"
         d="M 145.03067,497.23089 V 252.91398 h -1.31955 v 244.31691 z m -3.31887,-1.31955 2.63911,7.99728 2.67908,-7.99728 z m 5.31819,-241.67781 -2.67908,-7.99728 -2.63911,7.99728 z"
         style="fill:#000000;fill-opacity:1;fill-rule:nonzero;stroke:#000000;stroke-width:0.0399864px;stroke-linecap:butt;stroke-linejoin:round;stroke-miterlimit:4;stroke-dasharray:none;stroke-opacity:1"
         inkscape:connector-curvature="0" />
      <path
         id="path957"
         d="M 421.09678,477.87747 421.45666,317.532 h -1.35954 l -0.31989,160.34547 z m -3.31887,-1.31955 2.6391,7.99728 2.71908,-7.99728 z m 5.63808,-157.66638 -2.6391,-8.03726 -2.67909,7.99728 z"
         style="fill:#000000;fill-opacity:1;fill-rule:nonzero;stroke:#000000;stroke-width:0.0399864px;stroke-linecap:butt;stroke-linejoin:round;stroke-miterlimit:4;stroke-dasharray:none;stroke-opacity:1"
         inkscape:connector-curvature="0" />
      <path
         id="path959"
         d="m 13.99524,137.95308 h 540.45619 v 42.22564 H 13.99524 Z"
         style="fill:none;stroke:#000000;stroke-width:0.63978243px;stroke-linecap:butt;stroke-linejoin:miter;stroke-miterlimit:8;stroke-dasharray:none;stroke-opacity:1"
         inkscape:connector-curvature="0" />
      <text
         id="text965"
         y="0"
         x="0"
         transform="translate(266.86131,163.3407)"
         style="font-style:normal;font-variant:normal;font-weight:400;font-size:16px;line-height:125%;font-family:'CMU Serif';text-align:start;letter-spacing:0px;word-spacing:0px;text-anchor:start;fill:#000000;fill-opacity:1;stroke:none"
         xml:space="preserve"><tspan
           id="tspan963"
           y="0"
           x="0"
           sodipodi:role="line"><tspan
             id="tspan961"
             style="font-style:normal;font-variant:normal;font-weight:400;font-size:16px;font-family:'CMU Serif';fill:#000000"
             dy="0"
             dx="0">ARP</tspan></tspan></text>
      <path
         id="path967"
         d="m 421.25673,263.07053 v -10.15655 h -1.31955 v 10.15655 z m -3.31887,-1.31955 2.6391,7.99728 2.67909,-7.99728 z m 5.31819,-7.51745 -2.67909,-7.99728 -2.6391,7.99728 z"
         style="fill:#000000;fill-opacity:1;fill-rule:nonzero;stroke:#000000;stroke-width:0.0399864px;stroke-linecap:butt;stroke-linejoin:round;stroke-miterlimit:4;stroke-dasharray:none;stroke-opacity:1"
         inkscape:connector-curvature="0" />
      <path
         id="path969"
         d="m 283.90344,197.41286 -0.15994,-10.55641 h 1.35953 l 0.11996,10.51642 z m 3.31887,-1.39953 -2.55913,8.03727 -2.75906,-7.95729 z m -5.43815,-7.79734 2.51915,-8.03727 2.79904,7.95729 z"
         style="fill:#000000;fill-opacity:1;fill-rule:nonzero;stroke:#000000;stroke-width:0.0399864px;stroke-linecap:butt;stroke-linejoin:round;stroke-miterlimit:4;stroke-dasharray:none;stroke-opacity:1"
         inkscape:connector-curvature="0" />
      <path
         id="path971"
         d="m 285.08304,131.33533 0.13995,-10.53641 -1.31955,-0.02 -0.15994,10.53642 z m -3.31887,-1.37953 2.53914,8.03727 2.79904,-7.9573 z m 5.43815,-7.79735 -2.53914,-8.03726 -2.77905,7.95729 z"
         style="fill:#000000;fill-opacity:1;fill-rule:nonzero;stroke:#000000;stroke-width:0.0199932px;stroke-linecap:butt;stroke-linejoin:round;stroke-miterlimit:4;stroke-dasharray:none;stroke-opacity:1"
         inkscape:connector-curvature="0" />
      <path
         id="path973"
         d="M 13.99524,71.895548 H 555.09121 V 114.12119 H 13.99524 Z"
         style="fill:none;stroke:#000000;stroke-width:0.63978243px;stroke-linecap:butt;stroke-linejoin:miter;stroke-miterlimit:8;stroke-dasharray:none;stroke-opacity:1"
         inkscape:connector-curvature="0" />
      <text
         id="text979"
         y="0"
         x="0"
         transform="translate(268.16014,97.261139)"
         style="font-style:normal;font-variant:normal;font-weight:400;font-size:16px;line-height:125%;font-family:'CMU Serif';text-align:start;letter-spacing:0px;word-spacing:0px;text-anchor:start;fill:#000000;fill-opacity:1;stroke:none"
         xml:space="preserve"><tspan
           id="tspan977"
           y="0"
           x="0"
           sodipodi:role="line"><tspan
             id="tspan975"
             style="font-style:normal;font-variant:normal;font-weight:400;font-size:16px;font-family:'CMU Serif';fill:#000000"
             dy="0"
             dx="0">IPv4</tspan></tspan></text>
      <path
         id="path981"
         d="m 286.42259,719.1954 v -39.86645 h -1.31956 v 39.86645 z m -3.31888,-1.31956 2.63911,7.99728 2.67909,-7.99728 z m 5.3182,-37.22733 -2.67909,-7.99728 -2.63911,7.99728 z"
         style="fill:#000000;fill-opacity:1;fill-rule:nonzero;stroke:#000000;stroke-width:0.0399864px;stroke-linecap:butt;stroke-linejoin:round;stroke-miterlimit:4;stroke-dasharray:none;stroke-opacity:1"
         inkscape:connector-curvature="0" />
    </g>
  </g>
</svg>
